<svg version="1.0" preserveAspectRatio="xMidYMid meet" viewBox="21.7125 73.9124982261 320.25 209.99999496000004" zoomAndPan="magnify" xmlns:xlink="http://www.w3.org/1999/xlink" xmlns="http://www.w3.org/2000/svg" style="max-height: 500px" width="320.25" height="209.99999496000004"><defs><clipPath id="21a3289201"><path clip-rule="nonzero" d="M 56 77.734375 L 307 77.734375 L 307 89 L 56 89 Z M 56 77.734375"/></clipPath><clipPath id="a008bb3ee8"><path clip-rule="nonzero" d="M 25.628906 108 L 36 108 L 36 208 L 25.628906 208 Z M 25.628906 108"/></clipPath><clipPath id="0da27c7ee1"><path clip-rule="nonzero" d="M 327 108 L 337.5 108 L 337.5 208 L 327 208 Z M 327 108"/></clipPath><clipPath id="093f6f63cd"><path clip-rule="nonzero" d="M 254 238 L 265 238 L 265 280.234375 L 254 280.234375 Z M 254 238"/></clipPath></defs><g clip-path="url(#21a3289201)"><path fill-rule="nonzero" fill-opacity="1" d="M 306.292969 77.734375 L 56.707031 77.734375 L 56.707031 88.121094 L 306.292969 88.121094 Z M 306.292969 77.734375" fill="#000000"/></g><g clip-path="url(#a008bb3ee8)"><path fill-rule="nonzero" fill-opacity="1" d="M 35.90625 108.886719 L 25.507812 108.886719 L 25.507812 207.539062 L 35.90625 207.539062 Z M 35.90625 108.886719" fill="#000000"/></g><path fill-rule="nonzero" fill-opacity="1" d="M 56.707031 88.121094 L 46.304688 88.121094 L 46.304688 98.503906 L 56.707031 98.503906 Z M 56.707031 88.121094" fill="#000000"/><path fill-rule="nonzero" fill-opacity="1" d="M 46.304688 98.503906 L 35.90625 98.503906 L 35.90625 108.886719 L 46.304688 108.886719 Z M 46.304688 98.503906" fill="#000000"/><path fill-rule="nonzero" fill-opacity="1" d="M 35.90625 108.886719 L 35.90625 207.539062 L 46.304688 207.539062 L 46.304688 217.925781 L 56.707031 217.925781 L 56.707031 228.308594 L 212.699219 228.308594 L 212.699219 238.691406 L 223.097656 238.691406 L 223.097656 249.078125 L 233.496094 249.078125 L 233.496094 259.460938 L 243.898438 259.460938 L 243.898438 269.847656 L 254.296875 269.847656 L 254.296875 228.308594 L 306.292969 228.308594 L 306.292969 217.925781 L 316.691406 217.925781 L 316.691406 207.539062 L 327.09375 207.539062 L 327.09375 108.886719 L 316.691406 108.886719 L 316.691406 98.503906 L 306.292969 98.503906 L 306.292969 88.121094 L 56.707031 88.121094 L 56.707031 98.503906 L 46.304688 98.503906 L 46.304688 108.886719 Z M 35.90625 108.886719" fill="#ffffff"/><path fill-rule="nonzero" fill-opacity="1" d="M 306.292969 228.308594 L 254.296875 228.308594 L 254.296875 238.691406 L 306.292969 238.691406 Z M 306.292969 228.308594" fill="#000000"/><path fill-rule="nonzero" fill-opacity="1" d="M 223.097656 228.308594 L 56.707031 228.308594 L 56.707031 238.691406 L 223.097656 238.691406 Z M 223.097656 228.308594" fill="#000000"/><path fill-rule="nonzero" fill-opacity="1" d="M 306.292969 217.925781 L 254.296875 217.925781 L 254.296875 228.308594 L 306.292969 228.308594 Z M 306.292969 217.925781" fill="#ffb3fb"/><path fill-rule="nonzero" fill-opacity="1" d="M 223.097656 217.925781 L 56.707031 217.925781 L 56.707031 228.308594 L 223.097656 228.308594 Z M 223.097656 217.925781" fill="#ffb3fb"/><path fill-rule="nonzero" fill-opacity="1" d="M 56.707031 217.925781 L 46.304688 217.925781 L 46.304688 228.308594 L 56.707031 228.308594 Z M 56.707031 217.925781" fill="#000000"/><path fill-rule="nonzero" fill-opacity="1" d="M 56.707031 207.539062 L 46.304688 207.539062 L 46.304688 217.925781 L 56.707031 217.925781 Z M 56.707031 207.539062" fill="#ffb3fb"/><path fill-rule="nonzero" fill-opacity="1" d="M 316.691406 207.539062 L 306.292969 207.539062 L 306.292969 217.925781 L 316.691406 217.925781 Z M 316.691406 207.539062" fill="#ffb3fb"/><path fill-rule="nonzero" fill-opacity="1" d="M 243.898438 238.691406 L 233.496094 238.691406 L 233.496094 249.078125 L 243.898438 249.078125 Z M 243.898438 238.691406" fill="#ffb3fb"/><path fill-rule="nonzero" fill-opacity="1" d="M 254.296875 249.078125 L 243.898438 249.078125 L 243.898438 259.460938 L 254.296875 259.460938 Z M 254.296875 249.078125" fill="#ffb3fb"/><path fill-rule="nonzero" fill-opacity="1" d="M 46.304688 197.15625 L 35.90625 197.15625 L 35.90625 207.539062 L 46.304688 207.539062 Z M 46.304688 197.15625" fill="#ffb3fb"/><path fill-rule="nonzero" fill-opacity="1" d="M 327.09375 197.15625 L 316.691406 197.15625 L 316.691406 207.539062 L 327.09375 207.539062 Z M 327.09375 197.15625" fill="#ffb3fb"/><path fill-rule="nonzero" fill-opacity="1" d="M 233.496094 228.308594 L 223.097656 228.308594 L 223.097656 238.691406 L 233.496094 238.691406 Z M 233.496094 228.308594" fill="#ffb3fb"/><path fill-rule="nonzero" fill-opacity="1" d="M 46.304688 207.539062 L 35.90625 207.539062 L 35.90625 217.925781 L 46.304688 217.925781 Z M 46.304688 207.539062" fill="#000000"/><g clip-path="url(#0da27c7ee1)"><path fill-rule="nonzero" fill-opacity="1" d="M 337.492188 108.886719 L 327.09375 108.886719 L 327.09375 207.539062 L 337.492188 207.539062 Z M 337.492188 108.886719" fill="#000000"/></g><path fill-rule="nonzero" fill-opacity="1" d="M 316.691406 88.121094 L 306.292969 88.121094 L 306.292969 98.503906 L 316.691406 98.503906 Z M 316.691406 88.121094" fill="#000000"/><path fill-rule="nonzero" fill-opacity="1" d="M 327.09375 98.503906 L 316.691406 98.503906 L 316.691406 108.886719 L 327.09375 108.886719 Z M 327.09375 98.503906" fill="#000000"/><path fill-rule="nonzero" fill-opacity="1" d="M 316.691406 217.925781 L 306.292969 217.925781 L 306.292969 228.308594 L 316.691406 228.308594 Z M 316.691406 217.925781" fill="#000000"/><path fill-rule="nonzero" fill-opacity="1" d="M 327.09375 207.539062 L 316.691406 207.539062 L 316.691406 217.925781 L 327.09375 217.925781 Z M 327.09375 207.539062" fill="#000000"/><g clip-path="url(#093f6f63cd)"><path fill-rule="nonzero" fill-opacity="1" d="M 264.695312 238.691406 L 254.296875 238.691406 L 254.296875 280.230469 L 264.695312 280.230469 Z M 264.695312 238.691406" fill="#000000"/></g><path fill-rule="nonzero" fill-opacity="1" d="M 254.296875 259.460938 L 243.898438 259.460938 L 243.898438 269.847656 L 254.296875 269.847656 Z M 254.296875 259.460938" fill="#000000"/><path fill-rule="nonzero" fill-opacity="1" d="M 243.898438 249.078125 L 233.496094 249.078125 L 233.496094 259.460938 L 243.898438 259.460938 Z M 243.898438 249.078125" fill="#000000"/><path fill-rule="nonzero" fill-opacity="1" d="M 233.496094 238.691406 L 223.097656 238.691406 L 223.097656 249.078125 L 233.496094 249.078125 Z M 233.496094 238.691406" fill="#000000"/></svg>