<svg version="1.0" preserveAspectRatio="xMidYMid meet" viewBox="41.821875 35.521874147474996 306 266.24999361" zoomAndPan="magnify" xmlns:xlink="http://www.w3.org/1999/xlink" xmlns="http://www.w3.org/2000/svg" style="max-height: 500px" width="306" height="266.24999361"><defs><clipPath id="cd598739ac"><path clip-rule="nonzero" d="M 44.28125 37.5 L 345.03125 37.5 L 345.03125 298.5 L 44.28125 298.5 Z M 44.28125 37.5"/></clipPath></defs><path stroke-miterlimit="4" stroke-opacity="1" stroke-width="2" stroke="#a39f77" d="M 26.749684 214.010434 L 26.749684 240.604186 C 26.749684 240.697936 26.796559 240.750019 26.890309 240.750019 L 53.484061 240.750019" stroke-linejoin="miter" fill="none" transform="matrix(0.75, 0, 0, 0.75, 44.355707, 37.499998)" stroke-linecap="butt"/><path stroke-miterlimit="4" stroke-opacity="1" stroke-width="2" stroke="#a19b69" d="M 53.484061 240.750019 L 53.499686 267.239604 C 53.499686 267.411479 53.588227 267.500021 53.765311 267.500021 L 80.041354 267.500021 C 80.181979 267.500021 80.249687 267.567729 80.249687 267.708354 L 80.249687 294.098981 C 80.249687 294.197939 80.301771 294.250023 80.400729 294.250023 L 107.004897 294.317731" stroke-linejoin="miter" fill="none" transform="matrix(0.75, 0, 0, 0.75, 44.355707, 37.499998)" stroke-linecap="butt"/><path stroke-miterlimit="4" stroke-opacity="1" stroke-width="2" stroke="#9a935c" d="M 107.004897 294.317731 L 107.004897 320.833358 C 107.004897 320.942733 107.062189 321.000024 107.171564 321.000024 L 133.598649 321.005233 C 133.692399 321.005233 133.744483 320.958358 133.744483 320.859399 L 133.749691 294.322939" stroke-linejoin="miter" fill="none" transform="matrix(0.75, 0, 0, 0.75, 44.355707, 37.499998)" stroke-linecap="butt"/><path stroke-miterlimit="4" stroke-opacity="1" stroke-width="2" stroke="#a19b69" d="M 133.749691 294.322939 C 133.775733 294.291689 133.806983 294.265648 133.848649 294.250023" stroke-linejoin="miter" fill="none" transform="matrix(0.75, 0, 0, 0.75, 44.355707, 37.499998)" stroke-linecap="butt"/><path stroke-miterlimit="4" stroke-opacity="1" stroke-width="2" stroke="#9a935c" d="M 133.848649 294.250023 L 160.327818 294.244814 C 160.442401 294.244814 160.499693 294.187523 160.499693 294.072939 L 160.494484 267.572938" stroke-linejoin="miter" fill="none" transform="matrix(0.75, 0, 0, 0.75, 44.355707, 37.499998)" stroke-linecap="butt"/><path stroke-miterlimit="4" stroke-opacity="1" stroke-width="2" stroke="#a19b69" d="M 160.494484 267.572938 C 160.510109 267.541688 160.530943 267.520854 160.556984 267.500021" stroke-linejoin="miter" fill="none" transform="matrix(0.75, 0, 0, 0.75, 44.355707, 37.499998)" stroke-linecap="butt"/><path stroke-miterlimit="4" stroke-opacity="1" stroke-width="2" stroke="#9a935c" d="M 160.556984 267.500021 L 187.124694 267.500021 C 187.208028 267.500021 187.249694 267.458354 187.249694 267.375021 L 187.249694 240.796894" stroke-linejoin="miter" fill="none" transform="matrix(0.75, 0, 0, 0.75, 44.355707, 37.499998)" stroke-linecap="butt"/><path stroke-miterlimit="4" stroke-opacity="1" stroke-width="2" stroke="#a19b69" d="M 187.249694 240.796894 L 187.296569 240.750019" stroke-linejoin="miter" fill="none" transform="matrix(0.75, 0, 0, 0.75, 44.355707, 37.499998)" stroke-linecap="butt"/><path stroke-miterlimit="4" stroke-opacity="1" stroke-width="2" stroke="#9a935c" d="M 187.296569 240.750019 L 213.869488 240.750019 C 213.952821 240.750019 213.989279 240.708352 213.989279 240.630227 L 213.994488 214.052101" stroke-linejoin="miter" fill="none" transform="matrix(0.75, 0, 0, 0.75, 44.355707, 37.499998)" stroke-linecap="butt"/><path stroke-miterlimit="4" stroke-opacity="1" stroke-width="2" stroke="#a19b69" d="M 213.994488 214.052101 C 214.025738 214.036476 214.056988 214.010434 214.088238 213.968767" stroke-linejoin="miter" fill="none" transform="matrix(0.75, 0, 0, 0.75, 44.355707, 37.499998)" stroke-linecap="butt"/><path stroke-miterlimit="4" stroke-opacity="1" stroke-width="2" stroke="#9a935c" d="M 214.088238 213.968767 L 240.603865 214.000017 C 240.702823 214.000017 240.754906 213.947934 240.754906 213.848976 L 240.749698 187.453141 C 240.749698 187.317724 240.817406 187.250016 240.952823 187.250016 L 267.385116 187.244807 C 267.463241 187.244807 267.4997 187.208349 267.4997 187.130224 L 267.442408 160.536472" stroke-linejoin="miter" fill="none" transform="matrix(0.75, 0, 0, 0.75, 44.355707, 37.499998)" stroke-linecap="butt"/><path stroke-miterlimit="4" stroke-opacity="1" stroke-width="2" stroke="#a19b69" d="M 267.442408 160.536472 C 267.484075 160.437514 267.510116 160.427097 267.525741 160.500014" stroke-linejoin="miter" fill="none" transform="matrix(0.75, 0, 0, 0.75, 44.355707, 37.499998)" stroke-linecap="butt"/><path stroke-miterlimit="4" stroke-opacity="1" stroke-width="2" stroke="#9a935c" d="M 267.525741 160.500014 L 294.166368 160.489597 C 294.218451 160.489597 294.239285 160.468764 294.239285 160.41668 L 294.244493 133.796887" stroke-linejoin="miter" fill="none" transform="matrix(0.75, 0, 0, 0.75, 44.355707, 37.499998)" stroke-linecap="butt"/><path stroke-miterlimit="4" stroke-opacity="1" stroke-width="2" stroke="#a19b69" d="M 294.244493 133.796887 C 294.213243 133.656262 294.22366 133.645845 294.280951 133.750012" stroke-linejoin="miter" fill="none" transform="matrix(0.75, 0, 0, 0.75, 44.355707, 37.499998)" stroke-linecap="butt"/><path stroke-miterlimit="4" stroke-opacity="1" stroke-width="2" stroke="#9a935c" d="M 294.280951 133.750012 L 320.79137 133.744804 C 320.931995 133.744804 320.999703 133.677095 320.999703 133.541679 L 320.999703 107.161469 C 320.999703 107.057302 321.051786 107.005219 321.155953 107.005219 L 347.598663 107.00001 C 347.697622 107.00001 347.744497 106.953135 347.744497 106.854177 L 347.744497 80.291675" stroke-linejoin="miter" fill="none" transform="matrix(0.75, 0, 0, 0.75, 44.355707, 37.499998)" stroke-linecap="butt"/><path stroke-miterlimit="4" stroke-opacity="1" stroke-width="2" stroke="#a19b69" d="M 347.744497 80.291675 C 347.79658 80.192717 347.822622 80.1823 347.822622 80.250009" stroke-linejoin="miter" fill="none" transform="matrix(0.75, 0, 0, 0.75, 44.355707, 37.499998)" stroke-linecap="butt"/><path stroke-miterlimit="4" stroke-opacity="1" stroke-width="2" stroke="#9a935c" d="M 347.822622 80.250009 L 374.291373 80.239592 C 374.431998 80.239592 374.504915 80.171884 374.504915 80.031259 L 374.494498 53.718757 C 374.494498 53.572923 374.421582 53.500007 374.280957 53.500007 L 347.85908 53.500007" stroke-linejoin="miter" fill="none" transform="matrix(0.75, 0, 0, 0.75, 44.355707, 37.499998)" stroke-linecap="butt"/><path stroke-miterlimit="4" stroke-opacity="1" stroke-width="2" stroke="#a19b69" d="M 347.85908 53.500007 C 347.79658 53.463548 347.754913 53.416673 347.744497 53.36459" stroke-linejoin="miter" fill="none" transform="matrix(0.75, 0, 0, 0.75, 44.355707, 37.499998)" stroke-linecap="butt"/><path stroke-miterlimit="4" stroke-opacity="1" stroke-width="2" stroke="#a39f77" d="M 347.744497 53.36459 L 347.749705 26.979172 C 347.749705 26.833338 347.676788 26.76563 347.536163 26.76563 L 321.01012 26.755213" stroke-linejoin="miter" fill="none" transform="matrix(0.75, 0, 0, 0.75, 44.355707, 37.499998)" stroke-linecap="butt"/><path stroke-miterlimit="4" stroke-opacity="1" stroke-width="2" stroke="#a39f77" d="M 321.01012 26.755213 L 320.999703 53.354173 C 320.999703 53.437507 320.958036 53.479173 320.869495 53.479173 L 294.25491 53.500007" stroke-linejoin="miter" fill="none" transform="matrix(0.75, 0, 0, 0.75, 44.355707, 37.499998)" stroke-linecap="butt"/><path stroke-miterlimit="4" stroke-opacity="1" stroke-width="2" stroke="#fdf5b7" d="M 347.744497 53.36459 C 347.718455 53.453132 347.645538 53.500007 347.536163 53.500007 C 338.702829 53.494798 329.874704 53.494798 321.056995 53.500007 C 321.01012 53.500007 320.989286 53.52084 320.989286 53.567715 L 320.989286 80.083342 C 320.984078 80.192717 320.931995 80.250009 320.82262 80.250009 L 294.41116 80.250009 C 294.296576 80.250009 294.239285 80.3073 294.239285 80.416675 L 294.234076 106.796885 C 294.234076 106.932302 294.166368 107.00001 294.030951 107.00001 L 267.598658 107.00001 C 267.525741 107.00001 267.489283 107.036469 267.489283 107.109385 L 267.489283 133.750012" stroke-linejoin="miter" fill="none" transform="matrix(0.75, 0, 0, 0.75, 44.355707, 37.499998)" stroke-linecap="butt"/><path stroke-miterlimit="4" stroke-opacity="1" stroke-width="2" stroke="#f6eeab" d="M 267.489283 133.750012 C 267.494491 133.750012 267.494491 133.744804 267.4997 133.739595" stroke-linejoin="miter" fill="none" transform="matrix(0.75, 0, 0, 0.75, 44.355707, 37.499998)" stroke-linecap="butt"/><path stroke-miterlimit="4" stroke-opacity="1" stroke-width="2" stroke="#fdf5b7" d="M 267.4997 133.739595 L 240.859073 133.744804 C 240.780948 133.744804 240.739281 133.781262 240.739281 133.859387 L 240.74449 160.338555 C 240.74449 160.442722 240.692406 160.494805 240.58824 160.494805 L 214.098654 160.500014 C 214.025738 160.500014 213.989279 160.536472 213.989279 160.609389 C 213.989279 169.484389 213.989279 178.338557 213.994488 187.182307 C 213.994488 187.192724 213.999696 187.203141 214.004904 187.208349 C 214.015321 187.223974 214.030946 187.239599 214.046571 187.250016" stroke-linejoin="miter" fill="none" transform="matrix(0.75, 0, 0, 0.75, 44.355707, 37.499998)" stroke-linecap="butt"/><path stroke-miterlimit="4" stroke-opacity="1" stroke-width="2" stroke="#f6eeab" d="M 214.046571 187.250016 C 214.030946 187.270849 214.015321 187.286474 213.999696 187.291682" stroke-linejoin="miter" fill="none" transform="matrix(0.75, 0, 0, 0.75, 44.355707, 37.499998)" stroke-linecap="butt"/><path stroke-miterlimit="4" stroke-opacity="1" stroke-width="2" stroke="#fdf5b7" d="M 213.999696 187.291682 L 187.411153 187.270849 C 187.296569 187.270849 187.239278 187.322932 187.239278 187.437516 L 187.275736 214.000017" stroke-linejoin="miter" fill="none" transform="matrix(0.75, 0, 0, 0.75, 44.355707, 37.499998)" stroke-linecap="butt"/><path stroke-miterlimit="4" stroke-opacity="1" stroke-width="2" stroke="#fdf5b7" d="M 187.275736 214.000017 L 160.603859 214.000017 C 160.530943 214.000017 160.494484 214.036476 160.494484 214.109392 L 160.494484 240.750019" stroke-linejoin="miter" fill="none" transform="matrix(0.75, 0, 0, 0.75, 44.355707, 37.499998)" stroke-linecap="butt"/><path stroke-miterlimit="4" stroke-opacity="1" stroke-width="2" stroke="#fdf5b7" d="M 160.494484 240.750019 L 133.931983 240.750019 C 133.801774 240.750019 133.739274 240.817727 133.739274 240.947936 L 133.734066 267.348979 C 133.734066 267.453146 133.687191 267.500021 133.588233 267.500021 L 107.275731 267.500021 C 107.088231 267.500021 106.989272 267.406271 106.989272 267.213562 C 106.973647 258.50002 106.978856 249.770853 106.999689 241.031269 C 106.999689 240.937519 107.025731 240.843769 107.077814 240.750019" stroke-linejoin="miter" fill="none" transform="matrix(0.75, 0, 0, 0.75, 44.355707, 37.499998)" stroke-linecap="butt"/><path stroke-miterlimit="4" stroke-opacity="1" stroke-width="2" stroke="#a39f77" d="M 107.077814 240.750019 L 133.588233 240.750019 C 133.692399 240.750019 133.739274 240.697936 133.739274 240.593769 L 133.754899 214.000017" stroke-linejoin="miter" fill="none" transform="matrix(0.75, 0, 0, 0.75, 44.355707, 37.499998)" stroke-linecap="butt"/><path stroke-miterlimit="4" stroke-opacity="1" stroke-width="2" stroke="#a39f77" d="M 133.754899 214.000017 L 160.374693 213.979184 C 160.458026 213.979184 160.499693 213.937517 160.499693 213.854184 L 160.499693 187.250016" stroke-linejoin="miter" fill="none" transform="matrix(0.75, 0, 0, 0.75, 44.355707, 37.499998)" stroke-linecap="butt"/><path stroke-miterlimit="4" stroke-opacity="1" stroke-width="2" stroke="#a39f77" d="M 160.499693 187.250016 L 187.109069 187.234391 C 187.202819 187.234391 187.249694 187.187516 187.249694 187.093766 L 187.249694 160.500014" stroke-linejoin="miter" fill="none" transform="matrix(0.75, 0, 0, 0.75, 44.355707, 37.499998)" stroke-linecap="butt"/><path stroke-miterlimit="4" stroke-opacity="1" stroke-width="2" stroke="#a39f77" d="M 187.249694 160.500014 L 213.869488 160.500014 C 213.958029 160.500014 213.999696 160.453139 213.999696 160.369805 L 213.999696 133.750012" stroke-linejoin="miter" fill="none" transform="matrix(0.75, 0, 0, 0.75, 44.355707, 37.499998)" stroke-linecap="butt"/><path stroke-miterlimit="4" stroke-opacity="1" stroke-width="2" stroke="#a39f77" d="M 213.999696 133.750012 L 240.629906 133.750012 C 240.708031 133.750012 240.74449 133.713554 240.74449 133.640637 L 240.749698 107.00001" stroke-linejoin="miter" fill="none" transform="matrix(0.75, 0, 0, 0.75, 44.355707, 37.499998)" stroke-linecap="butt"/><path stroke-miterlimit="4" stroke-opacity="1" stroke-width="2" stroke="#a39f77" d="M 240.749698 107.00001 L 267.28095 107.00001 C 267.421575 107.00001 267.494491 106.932302 267.494491 106.786469 L 267.494491 80.406259 C 267.494491 80.302092 267.546575 80.250009 267.65595 80.250009 L 294.046576 80.250009 C 294.181993 80.250009 294.249701 80.1823 294.249701 80.046884 L 294.25491 53.500007" stroke-linejoin="miter" fill="none" transform="matrix(0.75, 0, 0, 0.75, 44.355707, 37.499998)" stroke-linecap="butt"/><path stroke-miterlimit="4" stroke-opacity="1" stroke-width="2" stroke="#f3ea9d" d="M 347.85908 53.500007 C 347.780955 53.604173 347.739288 53.687507 347.739288 53.765632 C 347.749705 62.510424 347.749705 71.250008 347.749705 79.989592 C 347.749705 80.036467 347.770538 80.125009 347.822622 80.250009" stroke-linejoin="miter" fill="none" transform="matrix(0.75, 0, 0, 0.75, 44.355707, 37.499998)" stroke-linecap="butt"/><path stroke-miterlimit="4" stroke-opacity="1" stroke-width="2" stroke="#f3ea9d" d="M 347.744497 80.291675 L 321.171578 80.250009 C 321.051786 80.250009 320.994495 80.3073 320.994495 80.421884 L 320.994495 106.791677 C 320.994495 106.927094 320.926786 107.00001 320.786161 107.00001 L 294.447618 107.00001 C 294.312201 107.00001 294.244493 107.072927 294.244493 107.208344 L 294.280951 133.750012" stroke-linejoin="miter" fill="none" transform="matrix(0.75, 0, 0, 0.75, 44.355707, 37.499998)" stroke-linecap="butt"/><path stroke-miterlimit="4" stroke-opacity="1" stroke-width="2" stroke="#f3ea9d" d="M 294.244493 133.796887 C 294.234076 133.78647 294.218451 133.776054 294.202826 133.765637 C 294.19241 133.760429 294.187201 133.75522 294.176785 133.75522 L 267.489283 133.750012" stroke-linejoin="miter" fill="none" transform="matrix(0.75, 0, 0, 0.75, 44.355707, 37.499998)" stroke-linecap="butt"/><path stroke-miterlimit="4" stroke-opacity="1" stroke-width="2" stroke="#f3ea9d" d="M 267.4997 133.739595 L 267.525741 160.500014" stroke-linejoin="miter" fill="none" transform="matrix(0.75, 0, 0, 0.75, 44.355707, 37.499998)" stroke-linecap="butt"/><path stroke-miterlimit="4" stroke-opacity="1" stroke-width="2" stroke="#f3ea9d" d="M 267.442408 160.536472 L 240.864281 160.494805 C 240.786156 160.494805 240.74449 160.536472 240.74449 160.614597 L 240.749698 187.093766 C 240.749698 187.197932 240.697615 187.250016 240.598656 187.250016 L 214.046571 187.250016" stroke-linejoin="miter" fill="none" transform="matrix(0.75, 0, 0, 0.75, 44.355707, 37.499998)" stroke-linecap="butt"/><path stroke-miterlimit="4" stroke-opacity="1" stroke-width="2" stroke="#a19b69" d="M 107.077814 240.750019 L 106.999689 214.166684 C 106.999689 214.057309 106.942397 214.000017 106.827814 214.000017 C 98.010105 213.994809 89.202813 213.994809 80.405937 213.994809 C 80.359062 213.994809 80.306979 213.968767 80.249687 213.911476" stroke-linejoin="miter" fill="none" transform="matrix(0.75, 0, 0, 0.75, 44.355707, 37.499998)" stroke-linecap="butt"/><path stroke-miterlimit="4" stroke-opacity="1" stroke-width="2" stroke="#a39f77" d="M 80.249687 213.911476 L 80.260104 187.427099 C 80.260104 187.307307 80.197604 187.250016 80.077812 187.250016 L 53.577811 187.250016 C 53.530936 187.250016 53.510102 187.270849 53.510102 187.317724 L 53.499686 213.838559 C 53.499686 213.927101 53.458019 213.973976 53.369477 213.973976 L 26.749684 214.010434" stroke-linejoin="miter" fill="none" transform="matrix(0.75, 0, 0, 0.75, 44.355707, 37.499998)" stroke-linecap="butt"/><path stroke-miterlimit="4" stroke-opacity="1" stroke-width="2" stroke="#f3ea9d" d="M 214.088238 213.968767 L 213.999696 187.291682" stroke-linejoin="miter" fill="none" transform="matrix(0.75, 0, 0, 0.75, 44.355707, 37.499998)" stroke-linecap="butt"/><path stroke-miterlimit="4" stroke-opacity="1" stroke-width="2" stroke="#fdf5b7" d="M 80.249687 213.911476 C 80.260104 213.963559 80.223646 213.989601 80.150729 213.989601 C 71.405937 213.994809 62.666353 214.000017 53.921561 214.000017 C 53.791352 214.000017 53.687186 214.005226 53.609061 214.026059 C 53.530936 214.046892 53.494477 214.093767 53.494477 214.177101 L 53.484061 240.750019" stroke-linejoin="miter" fill="none" transform="matrix(0.75, 0, 0, 0.75, 44.355707, 37.499998)" stroke-linecap="butt"/><path stroke-miterlimit="4" stroke-opacity="1" stroke-width="2" stroke="#f3ea9d" d="M 213.994488 214.052101 L 187.275736 214.000017" stroke-linejoin="miter" fill="none" transform="matrix(0.75, 0, 0, 0.75, 44.355707, 37.499998)" stroke-linecap="butt"/><path stroke-miterlimit="4" stroke-opacity="1" stroke-width="2" stroke="#f3ea9d" d="M 160.494484 240.750019 L 160.556984 267.500021" stroke-linejoin="miter" fill="none" transform="matrix(0.75, 0, 0, 0.75, 44.355707, 37.499998)" stroke-linecap="butt"/><path stroke-miterlimit="4" stroke-opacity="1" stroke-width="2" stroke="#f3ea9d" d="M 160.494484 267.572938 L 133.926774 267.510438 C 133.806983 267.505229 133.749691 267.567729 133.749691 267.687521 C 133.754899 276.494813 133.760108 285.239605 133.754899 293.927106 C 133.754899 294.041689 133.786149 294.151064 133.848649 294.250023" stroke-linejoin="miter" fill="none" transform="matrix(0.75, 0, 0, 0.75, 44.355707, 37.499998)" stroke-linecap="butt"/><path stroke-miterlimit="4" stroke-opacity="1" stroke-width="2" stroke="#f3ea9d" d="M 133.749691 294.322939 L 107.004897 294.317731" stroke-linejoin="miter" fill="none" transform="matrix(0.75, 0, 0, 0.75, 44.355707, 37.499998)" stroke-linecap="butt"/><path stroke-miterlimit="4" stroke-opacity="1" stroke-width="2" stroke="#f3ea9d" d="M 187.275736 214.000017 L 187.296569 240.750019" stroke-linejoin="miter" fill="none" transform="matrix(0.75, 0, 0, 0.75, 44.355707, 37.499998)" stroke-linecap="butt"/><path stroke-miterlimit="4" stroke-opacity="1" stroke-width="2" stroke="#f3ea9d" d="M 187.249694 240.796894 L 160.494484 240.750019" stroke-linejoin="miter" fill="none" transform="matrix(0.75, 0, 0, 0.75, 44.355707, 37.499998)" stroke-linecap="butt"/><g clip-path="url(#cd598739ac)"><path fill-rule="nonzero" fill-opacity="1" d="M 305.160156 37.5 L 305.167969 57.476562 C 305.167969 57.535156 305.199219 57.5625 305.257812 57.5625 L 325.074219 57.5625 C 325.179688 57.5625 325.230469 57.613281 325.230469 57.71875 L 325.230469 77.542969 C 325.230469 77.597656 325.257812 77.625 325.3125 77.625 L 345.292969 77.628906 L 345.292969 97.683594 L 325.273438 97.6875 C 325.246094 97.6875 325.230469 97.699219 325.230469 97.726562 L 325.230469 117.632812 C 325.230469 117.710938 325.191406 117.75 325.113281 117.75 L 305.210938 117.75 C 305.183594 117.75 305.167969 117.765625 305.167969 117.792969 L 305.167969 137.773438 C 305.167969 137.800781 305.15625 137.8125 305.128906 137.8125 L 285.144531 137.8125 C 285.117188 137.8125 285.105469 137.824219 285.105469 137.851562 L 285.105469 157.757812 C 285.105469 157.835938 285.066406 157.875 284.988281 157.875 L 265.121094 157.875 C 265.070312 157.875 265.042969 157.902344 265.042969 157.953125 L 265.042969 177.859375 C 265.042969 177.910156 265.015625 177.9375 264.964844 177.9375 L 245.058594 177.9375 C 245.007812 177.9375 244.980469 177.964844 244.980469 178.015625 L 244.980469 197.882812 C 244.980469 197.960938 244.941406 198 244.863281 198 L 224.996094 198 C 224.945312 198 224.917969 198.027344 224.917969 198.078125 L 224.917969 217.984375 C 224.917969 218.035156 224.890625 218.0625 224.839844 218.0625 L 204.933594 218.0625 C 204.882812 218.0625 204.855469 218.089844 204.855469 218.140625 L 204.855469 238.007812 C 204.855469 238.085938 204.816406 238.125 204.738281 238.125 L 184.871094 238.125 C 184.820312 238.125 184.792969 238.152344 184.792969 238.203125 L 184.792969 258.109375 C 184.792969 258.160156 184.765625 258.1875 184.714844 258.1875 L 164.765625 258.1875 C 164.742188 258.1875 164.730469 258.199219 164.730469 258.222656 L 164.730469 278.132812 C 164.730469 278.210938 164.691406 278.25 164.613281 278.25 L 144.753906 278.25 C 144.699219 278.25 144.675781 278.277344 144.675781 278.328125 L 144.671875 298.3125 L 124.613281 298.3125 L 124.613281 278.339844 C 124.613281 278.28125 124.582031 278.25 124.519531 278.25 L 104.640625 278.25 C 104.574219 278.25 104.542969 278.21875 104.542969 278.152344 L 104.542969 258.265625 C 104.542969 258.214844 104.515625 258.1875 104.460938 258.1875 L 84.519531 258.1875 C 84.492188 258.1875 84.480469 258.175781 84.480469 258.148438 L 84.480469 238.199219 C 84.480469 238.148438 84.457031 238.125 84.40625 238.125 L 64.519531 238.125 C 64.453125 238.125 64.417969 238.09375 64.417969 238.027344 L 64.417969 218.132812 C 64.417969 218.085938 64.394531 218.0625 64.347656 218.0625 L 44.355469 218.058594 L 44.355469 198.042969 L 64.417969 198.007812 L 64.417969 217.953125 C 64.417969 218.023438 64.453125 218.0625 64.523438 218.0625 L 84.46875 218.0625 L 84.480469 237.929688 C 84.480469 238.058594 84.546875 238.125 84.679688 238.125 L 104.386719 238.125 C 104.492188 238.125 104.542969 238.175781 104.542969 238.28125 L 104.542969 258.074219 C 104.542969 258.148438 104.582031 258.1875 104.65625 258.1875 L 124.609375 258.238281 L 124.609375 278.125 C 124.609375 278.207031 124.652344 278.25 124.734375 278.25 L 144.554688 278.253906 C 144.625 278.253906 144.664062 278.21875 144.664062 278.144531 L 144.667969 258.242188 C 144.6875 258.21875 144.710938 258.199219 144.742188 258.1875 L 164.601562 258.183594 C 164.6875 258.183594 164.730469 258.140625 164.730469 258.054688 L 164.726562 238.179688 C 164.738281 238.15625 164.753906 238.140625 164.773438 238.125 L 184.699219 238.125 C 184.761719 238.125 184.792969 238.09375 184.792969 238.03125 L 184.792969 218.097656 L 184.828125 218.0625 L 204.757812 218.0625 C 204.820312 218.0625 204.847656 218.03125 204.847656 217.972656 L 204.851562 198.039062 C 204.875 198.027344 204.898438 198.007812 204.921875 197.976562 L 224.808594 198 C 224.882812 198 224.921875 197.960938 224.921875 197.886719 L 224.917969 178.089844 C 224.917969 177.988281 224.96875 177.9375 225.070312 177.9375 L 244.894531 177.933594 C 244.953125 177.933594 244.980469 177.90625 244.980469 177.847656 L 244.9375 157.902344 C 244.96875 157.828125 244.988281 157.820312 245 157.875 L 264.980469 157.867188 C 265.019531 157.867188 265.035156 157.851562 265.035156 157.8125 L 265.039062 137.847656 C 265.015625 137.742188 265.023438 137.734375 265.066406 137.8125 L 284.949219 137.808594 C 285.054688 137.808594 285.105469 137.757812 285.105469 137.65625 L 285.105469 117.871094 C 285.105469 117.792969 285.144531 117.753906 285.222656 117.753906 L 305.054688 117.75 C 305.128906 117.75 305.164062 117.714844 305.164062 117.640625 L 305.164062 97.71875 C 305.203125 97.644531 305.222656 97.636719 305.222656 97.6875 L 325.074219 97.679688 C 325.179688 97.679688 325.234375 97.628906 325.234375 97.523438 L 325.226562 77.789062 C 325.226562 77.679688 325.171875 77.625 325.066406 77.625 L 305.25 77.625 C 305.203125 77.597656 305.171875 77.5625 305.164062 77.523438 L 305.167969 57.734375 C 305.167969 57.625 305.113281 57.574219 305.007812 57.574219 L 285.113281 57.566406 L 285.15625 37.5 Z M 305.160156 37.5" fill="#02014b"/></g><path fill-rule="nonzero" fill-opacity="1" d="M 285.113281 57.566406 L 285.105469 77.515625 C 285.105469 77.578125 285.074219 77.609375 285.007812 77.609375 L 265.046875 77.625 L 265.046875 57.640625 C 265.046875 57.59375 265.070312 57.570312 265.117188 57.570312 Z M 285.113281 57.566406" fill="#02014b"/><path fill-rule="nonzero" fill-opacity="1" d="M 305.164062 77.523438 C 305.144531 77.589844 305.089844 77.625 305.007812 77.625 C 298.382812 77.621094 291.761719 77.621094 285.148438 77.625 C 285.113281 77.625 285.097656 77.640625 285.097656 77.675781 L 285.097656 97.5625 C 285.09375 97.644531 285.054688 97.6875 284.972656 97.6875 L 265.164062 97.6875 C 265.078125 97.6875 265.035156 97.730469 265.035156 97.8125 L 265.03125 117.597656 C 265.03125 117.699219 264.980469 117.75 264.878906 117.75 L 245.054688 117.75 C 245 117.75 244.972656 117.777344 244.972656 117.832031 L 244.972656 137.8125 C 244.976562 137.8125 244.976562 137.808594 244.980469 137.804688 L 225 137.808594 C 224.941406 137.808594 224.910156 137.835938 224.910156 137.894531 L 224.914062 157.753906 C 224.914062 157.832031 224.875 157.871094 224.796875 157.871094 L 204.929688 157.875 C 204.875 157.875 204.847656 157.902344 204.847656 157.957031 C 204.847656 164.613281 204.847656 171.253906 204.851562 177.886719 C 204.851562 177.894531 204.855469 177.902344 204.859375 177.90625 C 204.867188 177.917969 204.878906 177.929688 204.890625 177.9375 C 204.878906 177.953125 204.867188 177.964844 204.855469 177.96875 L 184.914062 177.953125 C 184.828125 177.953125 184.785156 177.992188 184.785156 178.078125 L 184.8125 198 L 164.808594 198 C 164.753906 198 164.726562 198.027344 164.726562 198.082031 L 164.726562 218.0625 L 144.804688 218.0625 C 144.707031 218.0625 144.660156 218.113281 144.660156 218.210938 L 144.65625 238.011719 C 144.65625 238.089844 144.621094 238.125 144.546875 238.125 L 124.8125 238.125 C 124.671875 238.125 124.597656 238.054688 124.597656 237.910156 C 124.585938 231.375 124.589844 224.828125 124.605469 218.273438 C 124.605469 218.203125 124.625 218.132812 124.664062 218.0625 L 144.546875 218.0625 C 144.625 218.0625 144.660156 218.023438 144.660156 217.945312 L 144.671875 198 L 164.636719 197.984375 C 164.699219 197.984375 164.730469 197.953125 164.730469 197.890625 L 164.730469 177.9375 L 184.6875 177.925781 C 184.757812 177.925781 184.792969 177.890625 184.792969 177.820312 L 184.792969 157.875 L 204.757812 157.875 C 204.824219 157.875 204.855469 157.839844 204.855469 157.777344 L 204.855469 137.8125 L 224.828125 137.8125 C 224.886719 137.8125 224.914062 137.785156 224.914062 137.730469 L 224.917969 117.75 L 244.816406 117.75 C 244.921875 117.75 244.976562 117.699219 244.976562 117.589844 L 244.976562 97.804688 C 244.976562 97.726562 245.015625 97.6875 245.097656 97.6875 L 264.890625 97.6875 C 264.992188 97.6875 265.042969 97.636719 265.042969 97.535156 L 265.046875 77.625 L 285.007812 77.609375 C 285.074219 77.609375 285.105469 77.578125 285.105469 77.515625 L 285.113281 57.566406 L 305.007812 57.574219 C 305.113281 57.574219 305.167969 57.625 305.167969 57.734375 Z M 305.164062 77.523438" fill="#f6f5fc"/><path fill-rule="nonzero" fill-opacity="1" d="M 305.164062 77.523438 C 305.171875 77.5625 305.203125 77.597656 305.25 77.625 C 305.191406 77.703125 305.160156 77.765625 305.160156 77.824219 C 305.167969 84.382812 305.167969 90.9375 305.167969 97.492188 C 305.167969 97.527344 305.183594 97.59375 305.222656 97.6875 C 305.222656 97.636719 305.203125 97.644531 305.164062 97.71875 L 285.234375 97.6875 C 285.144531 97.6875 285.101562 97.730469 285.101562 97.816406 L 285.101562 117.59375 C 285.101562 117.695312 285.050781 117.75 284.945312 117.75 L 265.191406 117.75 C 265.089844 117.75 265.039062 117.804688 265.039062 117.90625 L 265.066406 137.8125 C 265.023438 137.734375 265.015625 137.742188 265.039062 137.847656 C 265.03125 137.839844 265.019531 137.832031 265.007812 137.824219 C 265 137.820312 264.996094 137.816406 264.988281 137.816406 L 244.972656 137.8125 L 244.972656 117.832031 C 244.972656 117.777344 245 117.75 245.054688 117.75 L 264.878906 117.75 C 264.980469 117.75 265.03125 117.699219 265.03125 117.597656 L 265.035156 97.8125 C 265.035156 97.730469 265.078125 97.6875 265.164062 97.6875 L 284.972656 97.6875 C 285.054688 97.6875 285.09375 97.644531 285.097656 97.5625 L 285.097656 77.675781 C 285.097656 77.640625 285.113281 77.625 285.148438 77.625 C 291.761719 77.621094 298.382812 77.621094 305.007812 77.625 C 305.089844 77.625 305.144531 77.589844 305.164062 77.523438 Z M 305.164062 77.523438" fill="#c2edff"/><path fill-rule="nonzero" fill-opacity="1" d="M 265.046875 77.625 L 265.042969 97.535156 C 265.042969 97.636719 264.992188 97.6875 264.890625 97.6875 L 245.097656 97.6875 C 245.015625 97.6875 244.976562 97.726562 244.976562 97.804688 L 244.976562 117.589844 C 244.976562 117.699219 244.921875 117.75 244.816406 117.75 L 224.917969 117.75 L 224.917969 97.835938 C 224.917969 97.738281 224.96875 97.6875 225.066406 97.6875 L 244.902344 97.6875 C 244.953125 97.6875 244.980469 97.660156 244.980469 97.605469 L 244.980469 77.75 C 244.980469 77.667969 245.023438 77.625 245.105469 77.625 Z M 265.046875 77.625" fill="#02014b"/><path fill-rule="nonzero" fill-opacity="1" d="M 305.222656 97.6875 C 305.183594 97.59375 305.167969 97.527344 305.167969 97.492188 C 305.167969 90.9375 305.167969 84.382812 305.160156 77.824219 C 305.160156 77.765625 305.191406 77.703125 305.25 77.625 L 325.066406 77.625 C 325.171875 77.625 325.226562 77.679688 325.226562 77.789062 L 325.234375 97.523438 C 325.234375 97.628906 325.179688 97.679688 325.074219 97.679688 Z M 305.222656 97.6875" fill="#3939ff"/><path fill-rule="nonzero" fill-opacity="1" d="M 305.164062 97.71875 L 305.164062 117.640625 C 305.164062 117.714844 305.128906 117.75 305.054688 117.75 L 285.222656 117.753906 C 285.144531 117.753906 285.105469 117.792969 285.105469 117.871094 L 285.105469 137.65625 C 285.105469 137.757812 285.054688 137.808594 284.949219 137.808594 L 265.066406 137.8125 L 265.039062 117.90625 C 265.039062 117.804688 265.089844 117.75 265.191406 117.75 L 284.945312 117.75 C 285.050781 117.75 285.101562 117.695312 285.101562 117.59375 L 285.101562 97.816406 C 285.101562 97.730469 285.144531 97.6875 285.234375 97.6875 Z M 305.164062 97.71875" fill="#3939ff"/><path fill-rule="nonzero" fill-opacity="1" d="M 224.917969 117.75 L 224.914062 137.730469 C 224.914062 137.785156 224.886719 137.8125 224.828125 137.8125 L 204.855469 137.8125 L 204.859375 117.828125 C 204.859375 117.777344 204.882812 117.75 204.933594 117.75 Z M 224.917969 117.75" fill="#02014b"/><path fill-rule="nonzero" fill-opacity="1" d="M 244.980469 137.804688 L 245 157.875 C 244.988281 157.820312 244.96875 157.828125 244.9375 157.902344 L 225.003906 157.871094 C 224.945312 157.871094 224.914062 157.902344 224.914062 157.960938 L 224.917969 177.820312 C 224.917969 177.898438 224.878906 177.9375 224.804688 177.9375 L 204.890625 177.9375 C 204.878906 177.929688 204.867188 177.917969 204.859375 177.90625 C 204.855469 177.902344 204.851562 177.894531 204.851562 177.886719 C 204.847656 171.253906 204.847656 164.613281 204.847656 157.957031 C 204.847656 157.902344 204.875 157.875 204.929688 157.875 L 224.796875 157.871094 C 224.875 157.871094 224.914062 157.832031 224.914062 157.753906 L 224.910156 137.894531 C 224.910156 137.835938 224.941406 137.808594 225 137.808594 Z M 244.980469 137.804688" fill="#c2edff"/><path fill-rule="nonzero" fill-opacity="1" d="M 204.855469 137.8125 L 204.855469 157.777344 C 204.855469 157.839844 204.824219 157.875 204.757812 157.875 L 184.792969 157.875 L 184.792969 137.882812 C 184.792969 137.835938 184.816406 137.8125 184.863281 137.8125 Z M 204.855469 137.8125" fill="#02014b"/><path fill-rule="nonzero" fill-opacity="1" d="M 244.972656 137.8125 L 264.988281 137.816406 C 264.996094 137.816406 265 137.820312 265.007812 137.824219 C 265.019531 137.832031 265.03125 137.839844 265.039062 137.847656 L 265.035156 157.8125 C 265.035156 157.851562 265.019531 157.867188 264.980469 157.867188 L 245 157.875 L 244.980469 137.804688 C 244.976562 137.808594 244.976562 137.8125 244.972656 137.8125 Z M 244.972656 137.8125" fill="#3939ff"/><path fill-rule="nonzero" fill-opacity="1" d="M 144.671875 198 L 144.660156 217.945312 C 144.660156 218.023438 144.625 218.0625 144.546875 218.0625 L 124.664062 218.0625 L 124.605469 198.125 C 124.605469 198.042969 124.5625 198 124.476562 198 C 117.863281 197.996094 111.257812 197.996094 104.660156 197.996094 C 104.625 197.996094 104.585938 197.976562 104.542969 197.933594 L 104.550781 178.070312 C 104.550781 177.980469 104.503906 177.9375 104.414062 177.9375 L 84.539062 177.9375 C 84.503906 177.9375 84.488281 177.953125 84.488281 177.988281 L 84.480469 197.878906 C 84.480469 197.945312 84.449219 197.980469 84.382812 197.980469 L 64.417969 198.007812 L 64.421875 178.101562 C 64.421875 177.992188 64.476562 177.9375 64.585938 177.9375 L 84.398438 177.9375 C 84.453125 177.9375 84.480469 177.910156 84.480469 177.859375 C 84.484375 171.300781 84.484375 164.738281 84.472656 158.167969 C 84.472656 158.101562 84.480469 158.039062 84.496094 157.980469 C 84.511719 157.910156 84.554688 157.875 84.628906 157.875 L 104.464844 157.875 C 104.515625 157.875 104.542969 157.902344 104.542969 157.953125 L 104.542969 177.898438 C 104.542969 177.925781 104.554688 177.9375 104.582031 177.9375 L 124.410156 177.9375 C 124.539062 177.9375 124.605469 178.003906 124.605469 178.136719 L 124.605469 197.957031 C 124.605469 197.984375 124.621094 198 124.648438 198 Z M 144.671875 198" fill="#02014b"/><path fill-rule="nonzero" fill-opacity="1" d="M 184.792969 157.875 L 184.792969 177.820312 C 184.792969 177.890625 184.757812 177.925781 184.6875 177.925781 L 164.730469 177.9375 L 164.730469 157.9375 C 164.730469 157.894531 164.753906 157.875 164.796875 157.875 Z M 184.792969 157.875" fill="#02014b"/><path fill-rule="nonzero" fill-opacity="1" d="M 244.9375 157.902344 L 244.980469 177.847656 C 244.980469 177.90625 244.953125 177.933594 244.894531 177.933594 L 225.070312 177.9375 C 224.96875 177.9375 224.917969 177.988281 224.917969 178.089844 L 224.921875 197.886719 C 224.921875 197.960938 224.882812 198 224.808594 198 L 204.921875 197.976562 L 204.855469 177.96875 C 204.867188 177.964844 204.878906 177.953125 204.890625 177.9375 L 224.804688 177.9375 C 224.878906 177.9375 224.917969 177.898438 224.917969 177.820312 L 224.914062 157.960938 C 224.914062 157.902344 224.945312 157.871094 225.003906 157.871094 Z M 244.9375 157.902344" fill="#3939ff"/><path fill-rule="nonzero" fill-opacity="1" d="M 104.542969 197.933594 C 104.550781 197.972656 104.523438 197.992188 104.46875 197.992188 C 97.910156 197.996094 91.355469 198 84.796875 198 C 84.699219 198 84.621094 198.003906 84.5625 198.019531 C 84.503906 198.035156 84.476562 198.070312 84.476562 198.132812 L 84.46875 218.0625 L 64.523438 218.0625 C 64.453125 218.0625 64.417969 218.023438 64.417969 217.953125 L 64.417969 198.007812 L 84.382812 197.980469 C 84.449219 197.980469 84.480469 197.945312 84.480469 197.878906 L 84.488281 177.988281 C 84.488281 177.953125 84.503906 177.9375 84.539062 177.9375 L 104.414062 177.9375 C 104.503906 177.9375 104.550781 177.980469 104.550781 178.070312 Z M 104.542969 197.933594" fill="#f6f5fc"/><path fill-rule="nonzero" fill-opacity="1" d="M 164.730469 177.9375 L 164.730469 197.890625 C 164.730469 197.953125 164.699219 197.984375 164.636719 197.984375 L 144.671875 198 L 144.675781 178.011719 C 144.675781 177.964844 144.699219 177.9375 144.75 177.9375 Z M 164.730469 177.9375" fill="#02014b"/><path fill-rule="nonzero" fill-opacity="1" d="M 204.855469 177.96875 L 204.921875 197.976562 C 204.898438 198.007812 204.875 198.027344 204.851562 198.039062 L 184.8125 198 L 184.785156 178.078125 C 184.785156 177.992188 184.828125 177.953125 184.914062 177.953125 Z M 204.855469 177.96875" fill="#c2edff"/><path fill-rule="nonzero" fill-opacity="1" d="M 124.664062 218.0625 C 124.625 218.132812 124.605469 218.203125 124.605469 218.273438 C 124.589844 224.828125 124.585938 231.375 124.597656 237.910156 C 124.597656 238.054688 124.671875 238.125 124.8125 238.125 L 144.546875 238.125 C 144.621094 238.125 144.65625 238.089844 144.65625 238.011719 L 144.660156 218.210938 C 144.660156 218.113281 144.707031 218.0625 144.804688 218.0625 L 164.726562 218.0625 L 164.773438 238.125 C 164.753906 238.140625 164.738281 238.15625 164.726562 238.179688 L 144.800781 238.132812 C 144.710938 238.128906 144.667969 238.175781 144.667969 238.265625 C 144.671875 244.871094 144.675781 251.429688 144.671875 257.945312 C 144.671875 258.03125 144.695312 258.113281 144.742188 258.1875 C 144.710938 258.199219 144.6875 258.21875 144.667969 258.242188 L 124.609375 258.238281 L 104.65625 258.1875 C 104.582031 258.1875 104.542969 258.148438 104.542969 258.074219 L 104.542969 238.28125 C 104.542969 238.175781 104.492188 238.125 104.386719 238.125 L 84.679688 238.125 C 84.546875 238.125 84.480469 238.058594 84.480469 237.929688 L 84.46875 218.0625 L 84.476562 198.132812 C 84.476562 198.070312 84.503906 198.035156 84.5625 198.019531 C 84.621094 198.003906 84.699219 198 84.796875 198 C 91.355469 198 97.910156 197.996094 104.46875 197.992188 C 104.523438 197.992188 104.550781 197.972656 104.542969 197.933594 C 104.585938 197.976562 104.625 197.996094 104.660156 197.996094 C 111.257812 197.996094 117.863281 197.996094 124.476562 198 C 124.5625 198 124.605469 198.042969 124.605469 198.125 Z M 124.664062 218.0625" fill="#c2edff"/><path fill-rule="nonzero" fill-opacity="1" d="M 184.8125 198 L 184.828125 218.0625 L 184.792969 218.097656 L 164.726562 218.0625 L 164.726562 198.082031 C 164.726562 198.027344 164.753906 198 164.808594 198 Z M 184.8125 198" fill="#c2edff"/><path fill-rule="nonzero" fill-opacity="1" d="M 204.851562 198.039062 L 204.847656 217.972656 C 204.847656 218.03125 204.820312 218.0625 204.757812 218.0625 L 184.828125 218.0625 L 184.8125 198 Z M 204.851562 198.039062" fill="#3939ff"/><path fill-rule="nonzero" fill-opacity="1" d="M 184.792969 218.097656 L 184.792969 238.03125 C 184.792969 238.09375 184.761719 238.125 184.699219 238.125 L 164.773438 238.125 L 164.726562 218.0625 Z M 184.792969 218.097656" fill="#3939ff"/><path fill-rule="nonzero" fill-opacity="1" d="M 164.726562 238.179688 L 164.730469 258.054688 C 164.730469 258.140625 164.6875 258.183594 164.601562 258.183594 L 144.742188 258.1875 C 144.695312 258.113281 144.671875 258.03125 144.671875 257.945312 C 144.675781 251.429688 144.671875 244.871094 144.667969 238.265625 C 144.667969 238.175781 144.710938 238.128906 144.800781 238.132812 Z M 164.726562 238.179688" fill="#3939ff"/><path fill-rule="nonzero" fill-opacity="1" d="M 144.667969 258.242188 L 144.664062 278.144531 C 144.664062 278.21875 144.625 278.253906 144.554688 278.253906 L 124.734375 278.25 C 124.652344 278.25 124.609375 278.207031 124.609375 278.125 L 124.609375 258.238281 Z M 144.667969 258.242188" fill="#3939ff"/></svg>