<svg version="1.0" preserveAspectRatio="xMidYMid meet" viewBox="95.22224999999999 49.93124880165001 195 236.24999433000002" zoomAndPan="magnify" xmlns:xlink="http://www.w3.org/1999/xlink" xmlns="http://www.w3.org/2000/svg" style="max-height: 500px" width="195" height="236.24999433000002"><defs><clipPath id="54cb7db7fe"><path clip-rule="nonzero" d="M 276 66 L 288 66 L 288 78 L 276 78 Z M 276 66"/></clipPath><clipPath id="2a1e3a295c"><path clip-rule="nonzero" d="M 134.992188 37.5 L 287.136719 68.40625 L 239.804688 301.398438 L 87.660156 270.492188 Z M 134.992188 37.5"/></clipPath><clipPath id="739c530e4c"><path clip-rule="nonzero" d="M 287.34375 68.449219 L 135.199219 37.542969 L 87.867188 270.535156 L 240.011719 301.441406 Z M 287.34375 68.449219"/></clipPath><clipPath id="4726f53f2a"><path clip-rule="nonzero" d="M 287.34375 68.449219 L 135.199219 37.542969 L 87.867188 270.535156 L 240.011719 301.441406 Z M 287.34375 68.449219"/></clipPath><clipPath id="5473b3fe89"><path clip-rule="nonzero" d="M 204 52 L 216 52 L 216 63 L 204 63 Z M 204 52"/></clipPath><clipPath id="46fc757a6c"><path clip-rule="nonzero" d="M 134.992188 37.5 L 287.136719 68.40625 L 239.804688 301.398438 L 87.660156 270.492188 Z M 134.992188 37.5"/></clipPath><clipPath id="147370875e"><path clip-rule="nonzero" d="M 287.34375 68.449219 L 135.199219 37.542969 L 87.867188 270.535156 L 240.011719 301.441406 Z M 287.34375 68.449219"/></clipPath><clipPath id="74705725e2"><path clip-rule="nonzero" d="M 287.34375 68.449219 L 135.199219 37.542969 L 87.867188 270.535156 L 240.011719 301.441406 Z M 287.34375 68.449219"/></clipPath><clipPath id="e19b203b78"><path clip-rule="nonzero" d="M 212 62 L 223 62 L 223 74 L 212 74 Z M 212 62"/></clipPath><clipPath id="87ba1c8e20"><path clip-rule="nonzero" d="M 134.992188 37.5 L 287.136719 68.40625 L 239.804688 301.398438 L 87.660156 270.492188 Z M 134.992188 37.5"/></clipPath><clipPath id="9e362f223a"><path clip-rule="nonzero" d="M 287.34375 68.449219 L 135.199219 37.542969 L 87.867188 270.535156 L 240.011719 301.441406 Z M 287.34375 68.449219"/></clipPath><clipPath id="12eb953d46"><path clip-rule="nonzero" d="M 287.34375 68.449219 L 135.199219 37.542969 L 87.867188 270.535156 L 240.011719 301.441406 Z M 287.34375 68.449219"/></clipPath><clipPath id="6ebf8ff443"><path clip-rule="nonzero" d="M 265 73 L 277 73 L 277 85 L 265 85 Z M 265 73"/></clipPath><clipPath id="9a35be86c1"><path clip-rule="nonzero" d="M 134.992188 37.5 L 287.136719 68.40625 L 239.804688 301.398438 L 87.660156 270.492188 Z M 134.992188 37.5"/></clipPath><clipPath id="ebe98ce31f"><path clip-rule="nonzero" d="M 287.34375 68.449219 L 135.199219 37.542969 L 87.867188 270.535156 L 240.011719 301.441406 Z M 287.34375 68.449219"/></clipPath><clipPath id="626407228d"><path clip-rule="nonzero" d="M 287.34375 68.449219 L 135.199219 37.542969 L 87.867188 270.535156 L 240.011719 301.441406 Z M 287.34375 68.449219"/></clipPath><clipPath id="60c3a11fef"><path clip-rule="nonzero" d="M 219 73 L 231 73 L 231 85 L 219 85 Z M 219 73"/></clipPath><clipPath id="45b99cd593"><path clip-rule="nonzero" d="M 134.992188 37.5 L 287.136719 68.40625 L 239.804688 301.398438 L 87.660156 270.492188 Z M 134.992188 37.5"/></clipPath><clipPath id="d6914b6ae3"><path clip-rule="nonzero" d="M 287.34375 68.449219 L 135.199219 37.542969 L 87.867188 270.535156 L 240.011719 301.441406 Z M 287.34375 68.449219"/></clipPath><clipPath id="0fc0801a1a"><path clip-rule="nonzero" d="M 287.34375 68.449219 L 135.199219 37.542969 L 87.867188 270.535156 L 240.011719 301.441406 Z M 287.34375 68.449219"/></clipPath><clipPath id="8fe949731d"><path clip-rule="nonzero" d="M 237 59 L 252 59 L 252 89 L 237 89 Z M 237 59"/></clipPath><clipPath id="3404ff0320"><path clip-rule="nonzero" d="M 134.992188 37.5 L 287.136719 68.40625 L 239.804688 301.398438 L 87.660156 270.492188 Z M 134.992188 37.5"/></clipPath><clipPath id="2bece33512"><path clip-rule="nonzero" d="M 287.34375 68.449219 L 135.199219 37.542969 L 87.867188 270.535156 L 240.011719 301.441406 Z M 287.34375 68.449219"/></clipPath><clipPath id="2ff0bef4a4"><path clip-rule="nonzero" d="M 287.34375 68.449219 L 135.199219 37.542969 L 87.867188 270.535156 L 240.011719 301.441406 Z M 287.34375 68.449219"/></clipPath><clipPath id="cb448b41f9"><path clip-rule="nonzero" d="M 255 80 L 266 80 L 266 92 L 255 92 Z M 255 80"/></clipPath><clipPath id="c7701fb9e6"><path clip-rule="nonzero" d="M 134.992188 37.5 L 287.136719 68.40625 L 239.804688 301.398438 L 87.660156 270.492188 Z M 134.992188 37.5"/></clipPath><clipPath id="86e9f218c1"><path clip-rule="nonzero" d="M 287.34375 68.449219 L 135.199219 37.542969 L 87.867188 270.535156 L 240.011719 301.441406 Z M 287.34375 68.449219"/></clipPath><clipPath id="f8c0e30825"><path clip-rule="nonzero" d="M 287.34375 68.449219 L 135.199219 37.542969 L 87.867188 270.535156 L 240.011719 301.441406 Z M 287.34375 68.449219"/></clipPath><clipPath id="72d2f4f1b8"><path clip-rule="nonzero" d="M 262 138 L 273 138 L 273 150 L 262 150 Z M 262 138"/></clipPath><clipPath id="73eec9ed70"><path clip-rule="nonzero" d="M 134.992188 37.5 L 287.136719 68.40625 L 239.804688 301.398438 L 87.660156 270.492188 Z M 134.992188 37.5"/></clipPath><clipPath id="c359bda68e"><path clip-rule="nonzero" d="M 287.34375 68.449219 L 135.199219 37.542969 L 87.867188 270.535156 L 240.011719 301.441406 Z M 287.34375 68.449219"/></clipPath><clipPath id="8e47ff371c"><path clip-rule="nonzero" d="M 287.34375 68.449219 L 135.199219 37.542969 L 87.867188 270.535156 L 240.011719 301.441406 Z M 287.34375 68.449219"/></clipPath><clipPath id="adce0d4327"><path clip-rule="nonzero" d="M 145 161 L 157 161 L 157 173 L 145 173 Z M 145 161"/></clipPath><clipPath id="4bff419a5e"><path clip-rule="nonzero" d="M 134.992188 37.5 L 287.136719 68.40625 L 239.804688 301.398438 L 87.660156 270.492188 Z M 134.992188 37.5"/></clipPath><clipPath id="ab6d9091bb"><path clip-rule="nonzero" d="M 287.34375 68.449219 L 135.199219 37.542969 L 87.867188 270.535156 L 240.011719 301.441406 Z M 287.34375 68.449219"/></clipPath><clipPath id="f7d56c63b6"><path clip-rule="nonzero" d="M 287.34375 68.449219 L 135.199219 37.542969 L 87.867188 270.535156 L 240.011719 301.441406 Z M 287.34375 68.449219"/></clipPath><clipPath id="ca5f2c4ea0"><path clip-rule="nonzero" d="M 156 154 L 168 154 L 168 165 L 156 165 Z M 156 154"/></clipPath><clipPath id="1d0622527f"><path clip-rule="nonzero" d="M 134.992188 37.5 L 287.136719 68.40625 L 239.804688 301.398438 L 87.660156 270.492188 Z M 134.992188 37.5"/></clipPath><clipPath id="67406ad58d"><path clip-rule="nonzero" d="M 287.34375 68.449219 L 135.199219 37.542969 L 87.867188 270.535156 L 240.011719 301.441406 Z M 287.34375 68.449219"/></clipPath><clipPath id="d24ee59c68"><path clip-rule="nonzero" d="M 287.34375 68.449219 L 135.199219 37.542969 L 87.867188 270.535156 L 240.011719 301.441406 Z M 287.34375 68.449219"/></clipPath><clipPath id="10691e3a16"><path clip-rule="nonzero" d="M 167 147 L 178 147 L 178 158 L 167 158 Z M 167 147"/></clipPath><clipPath id="d6c60d3c66"><path clip-rule="nonzero" d="M 134.992188 37.5 L 287.136719 68.40625 L 239.804688 301.398438 L 87.660156 270.492188 Z M 134.992188 37.5"/></clipPath><clipPath id="141380b254"><path clip-rule="nonzero" d="M 287.34375 68.449219 L 135.199219 37.542969 L 87.867188 270.535156 L 240.011719 301.441406 Z M 287.34375 68.449219"/></clipPath><clipPath id="9b87f821c4"><path clip-rule="nonzero" d="M 287.34375 68.449219 L 135.199219 37.542969 L 87.867188 270.535156 L 240.011719 301.441406 Z M 287.34375 68.449219"/></clipPath><clipPath id="020e084dad"><path clip-rule="nonzero" d="M 177 139 L 189 139 L 189 151 L 177 151 Z M 177 139"/></clipPath><clipPath id="fddc1c902f"><path clip-rule="nonzero" d="M 134.992188 37.5 L 287.136719 68.40625 L 239.804688 301.398438 L 87.660156 270.492188 Z M 134.992188 37.5"/></clipPath><clipPath id="34ce04e872"><path clip-rule="nonzero" d="M 287.34375 68.449219 L 135.199219 37.542969 L 87.867188 270.535156 L 240.011719 301.441406 Z M 287.34375 68.449219"/></clipPath><clipPath id="3faa80fc71"><path clip-rule="nonzero" d="M 287.34375 68.449219 L 135.199219 37.542969 L 87.867188 270.535156 L 240.011719 301.441406 Z M 287.34375 68.449219"/></clipPath><clipPath id="6b99dd5069"><path clip-rule="nonzero" d="M 188 132 L 200 132 L 200 144 L 188 144 Z M 188 132"/></clipPath><clipPath id="b9b31f4439"><path clip-rule="nonzero" d="M 134.992188 37.5 L 287.136719 68.40625 L 239.804688 301.398438 L 87.660156 270.492188 Z M 134.992188 37.5"/></clipPath><clipPath id="aa9f13bc32"><path clip-rule="nonzero" d="M 287.34375 68.449219 L 135.199219 37.542969 L 87.867188 270.535156 L 240.011719 301.441406 Z M 287.34375 68.449219"/></clipPath><clipPath id="c4c16af0ee"><path clip-rule="nonzero" d="M 287.34375 68.449219 L 135.199219 37.542969 L 87.867188 270.535156 L 240.011719 301.441406 Z M 287.34375 68.449219"/></clipPath><clipPath id="6905e8462d"><path clip-rule="nonzero" d="M 199 125 L 211 125 L 211 137 L 199 137 Z M 199 125"/></clipPath><clipPath id="a8e18f386e"><path clip-rule="nonzero" d="M 134.992188 37.5 L 287.136719 68.40625 L 239.804688 301.398438 L 87.660156 270.492188 Z M 134.992188 37.5"/></clipPath><clipPath id="7f241dff6b"><path clip-rule="nonzero" d="M 287.34375 68.449219 L 135.199219 37.542969 L 87.867188 270.535156 L 240.011719 301.441406 Z M 287.34375 68.449219"/></clipPath><clipPath id="e3462fcceb"><path clip-rule="nonzero" d="M 287.34375 68.449219 L 135.199219 37.542969 L 87.867188 270.535156 L 240.011719 301.441406 Z M 287.34375 68.449219"/></clipPath><clipPath id="7b22c61091"><path clip-rule="nonzero" d="M 197 87 L 227 87 L 227 103 L 197 103 Z M 197 87"/></clipPath><clipPath id="fc280670c3"><path clip-rule="nonzero" d="M 134.992188 37.5 L 287.136719 68.40625 L 239.804688 301.398438 L 87.660156 270.492188 Z M 134.992188 37.5"/></clipPath><clipPath id="5655c5a519"><path clip-rule="nonzero" d="M 287.34375 68.449219 L 135.199219 37.542969 L 87.867188 270.535156 L 240.011719 301.441406 Z M 287.34375 68.449219"/></clipPath><clipPath id="0cf380f0bd"><path clip-rule="nonzero" d="M 287.34375 68.449219 L 135.199219 37.542969 L 87.867188 270.535156 L 240.011719 301.441406 Z M 287.34375 68.449219"/></clipPath><clipPath id="3e4258d5fe"><path clip-rule="nonzero" d="M 210 118 L 221 118 L 221 130 L 210 130 Z M 210 118"/></clipPath><clipPath id="88255be2de"><path clip-rule="nonzero" d="M 134.992188 37.5 L 287.136719 68.40625 L 239.804688 301.398438 L 87.660156 270.492188 Z M 134.992188 37.5"/></clipPath><clipPath id="8ab426dd93"><path clip-rule="nonzero" d="M 287.34375 68.449219 L 135.199219 37.542969 L 87.867188 270.535156 L 240.011719 301.441406 Z M 287.34375 68.449219"/></clipPath><clipPath id="18f0551bab"><path clip-rule="nonzero" d="M 287.34375 68.449219 L 135.199219 37.542969 L 87.867188 270.535156 L 240.011719 301.441406 Z M 287.34375 68.449219"/></clipPath><clipPath id="09b8b24a57"><path clip-rule="nonzero" d="M 247 116 L 259 116 L 259 128 L 247 128 Z M 247 116"/></clipPath><clipPath id="15ddd5ada5"><path clip-rule="nonzero" d="M 134.992188 37.5 L 287.136719 68.40625 L 239.804688 301.398438 L 87.660156 270.492188 Z M 134.992188 37.5"/></clipPath><clipPath id="7625d00c58"><path clip-rule="nonzero" d="M 287.34375 68.449219 L 135.199219 37.542969 L 87.867188 270.535156 L 240.011719 301.441406 Z M 287.34375 68.449219"/></clipPath><clipPath id="ac221cc172"><path clip-rule="nonzero" d="M 287.34375 68.449219 L 135.199219 37.542969 L 87.867188 270.535156 L 240.011719 301.441406 Z M 287.34375 68.449219"/></clipPath><clipPath id="4c9fb65c9c"><path clip-rule="nonzero" d="M 254 127 L 266 127 L 266 139 L 254 139 Z M 254 127"/></clipPath><clipPath id="92a529a026"><path clip-rule="nonzero" d="M 134.992188 37.5 L 287.136719 68.40625 L 239.804688 301.398438 L 87.660156 270.492188 Z M 134.992188 37.5"/></clipPath><clipPath id="dab68d2b23"><path clip-rule="nonzero" d="M 287.34375 68.449219 L 135.199219 37.542969 L 87.867188 270.535156 L 240.011719 301.441406 Z M 287.34375 68.449219"/></clipPath><clipPath id="9eaddb6d5d"><path clip-rule="nonzero" d="M 287.34375 68.449219 L 135.199219 37.542969 L 87.867188 270.535156 L 240.011719 301.441406 Z M 287.34375 68.449219"/></clipPath><clipPath id="15d9271fcf"><path clip-rule="nonzero" d="M 251 98 L 281 98 L 281 114 L 251 114 Z M 251 98"/></clipPath><clipPath id="4a0e35616c"><path clip-rule="nonzero" d="M 134.992188 37.5 L 287.136719 68.40625 L 239.804688 301.398438 L 87.660156 270.492188 Z M 134.992188 37.5"/></clipPath><clipPath id="a0de8c912d"><path clip-rule="nonzero" d="M 287.34375 68.449219 L 135.199219 37.542969 L 87.867188 270.535156 L 240.011719 301.441406 Z M 287.34375 68.449219"/></clipPath><clipPath id="44771d3efb"><path clip-rule="nonzero" d="M 287.34375 68.449219 L 135.199219 37.542969 L 87.867188 270.535156 L 240.011719 301.441406 Z M 287.34375 68.449219"/></clipPath><clipPath id="b0da2279a7"><path clip-rule="nonzero" d="M 134 168 L 146 168 L 146 180 L 134 180 Z M 134 168"/></clipPath><clipPath id="40a6da3f91"><path clip-rule="nonzero" d="M 134.992188 37.5 L 287.136719 68.40625 L 239.804688 301.398438 L 87.660156 270.492188 Z M 134.992188 37.5"/></clipPath><clipPath id="544856dac6"><path clip-rule="nonzero" d="M 287.34375 68.449219 L 135.199219 37.542969 L 87.867188 270.535156 L 240.011719 301.441406 Z M 287.34375 68.449219"/></clipPath><clipPath id="95594c6c5a"><path clip-rule="nonzero" d="M 287.34375 68.449219 L 135.199219 37.542969 L 87.867188 270.535156 L 240.011719 301.441406 Z M 287.34375 68.449219"/></clipPath><clipPath id="1b34ddd38a"><path clip-rule="nonzero" d="M 123 175 L 135 175 L 135 187 L 123 187 Z M 123 175"/></clipPath><clipPath id="1d785d352b"><path clip-rule="nonzero" d="M 134.992188 37.5 L 287.136719 68.40625 L 239.804688 301.398438 L 87.660156 270.492188 Z M 134.992188 37.5"/></clipPath><clipPath id="a492ddcc50"><path clip-rule="nonzero" d="M 287.34375 68.449219 L 135.199219 37.542969 L 87.867188 270.535156 L 240.011719 301.441406 Z M 287.34375 68.449219"/></clipPath><clipPath id="fdd090574a"><path clip-rule="nonzero" d="M 287.34375 68.449219 L 135.199219 37.542969 L 87.867188 270.535156 L 240.011719 301.441406 Z M 287.34375 68.449219"/></clipPath><clipPath id="66d2a56a72"><path clip-rule="nonzero" d="M 111 120 L 230 120 L 230 271 L 111 271 Z M 111 120"/></clipPath><clipPath id="4b3e4e33d2"><path clip-rule="nonzero" d="M 134.992188 37.5 L 287.136719 68.40625 L 239.804688 301.398438 L 87.660156 270.492188 Z M 134.992188 37.5"/></clipPath><clipPath id="5b23d33641"><path clip-rule="nonzero" d="M 287.34375 68.449219 L 135.199219 37.542969 L 87.867188 270.535156 L 240.011719 301.441406 Z M 287.34375 68.449219"/></clipPath><clipPath id="01a4299a99"><path clip-rule="nonzero" d="M 287.34375 68.449219 L 135.199219 37.542969 L 87.867188 270.535156 L 240.011719 301.441406 Z M 287.34375 68.449219"/></clipPath><clipPath id="73363f9548"><path clip-rule="nonzero" d="M 159 229 L 180 229 L 180 243 L 159 243 Z M 159 229"/></clipPath><clipPath id="7b259786b8"><path clip-rule="nonzero" d="M 134.992188 37.5 L 287.136719 68.40625 L 239.804688 301.398438 L 87.660156 270.492188 Z M 134.992188 37.5"/></clipPath><clipPath id="3b697e90e2"><path clip-rule="nonzero" d="M 287.34375 68.449219 L 135.199219 37.542969 L 87.867188 270.535156 L 240.011719 301.441406 Z M 287.34375 68.449219"/></clipPath><clipPath id="184c99f1a3"><path clip-rule="nonzero" d="M 287.34375 68.449219 L 135.199219 37.542969 L 87.867188 270.535156 L 240.011719 301.441406 Z M 287.34375 68.449219"/></clipPath><clipPath id="8fe9292f3d"><path clip-rule="nonzero" d="M 147 236 L 160 236 L 160 257 L 147 257 Z M 147 236"/></clipPath><clipPath id="e70dc59c07"><path clip-rule="nonzero" d="M 134.992188 37.5 L 287.136719 68.40625 L 239.804688 301.398438 L 87.660156 270.492188 Z M 134.992188 37.5"/></clipPath><clipPath id="f9693183a8"><path clip-rule="nonzero" d="M 287.34375 68.449219 L 135.199219 37.542969 L 87.867188 270.535156 L 240.011719 301.441406 Z M 287.34375 68.449219"/></clipPath><clipPath id="36077a169d"><path clip-rule="nonzero" d="M 287.34375 68.449219 L 135.199219 37.542969 L 87.867188 270.535156 L 240.011719 301.441406 Z M 287.34375 68.449219"/></clipPath><clipPath id="aa60e9149f"><path clip-rule="nonzero" d="M 175 242 L 187 242 L 187 253 L 175 253 Z M 175 242"/></clipPath><clipPath id="1bd78ecf48"><path clip-rule="nonzero" d="M 134.992188 37.5 L 287.136719 68.40625 L 239.804688 301.398438 L 87.660156 270.492188 Z M 134.992188 37.5"/></clipPath><clipPath id="4c7096ee05"><path clip-rule="nonzero" d="M 287.34375 68.449219 L 135.199219 37.542969 L 87.867188 270.535156 L 240.011719 301.441406 Z M 287.34375 68.449219"/></clipPath><clipPath id="08b8f0a7b2"><path clip-rule="nonzero" d="M 287.34375 68.449219 L 135.199219 37.542969 L 87.867188 270.535156 L 240.011719 301.441406 Z M 287.34375 68.449219"/></clipPath><clipPath id="070236c141"><path clip-rule="nonzero" d="M 182 252 L 194 252 L 194 264 L 182 264 Z M 182 252"/></clipPath><clipPath id="2f524bcc60"><path clip-rule="nonzero" d="M 134.992188 37.5 L 287.136719 68.40625 L 239.804688 301.398438 L 87.660156 270.492188 Z M 134.992188 37.5"/></clipPath><clipPath id="774cbdc0c8"><path clip-rule="nonzero" d="M 287.34375 68.449219 L 135.199219 37.542969 L 87.867188 270.535156 L 240.011719 301.441406 Z M 287.34375 68.449219"/></clipPath><clipPath id="3e1e24c66a"><path clip-rule="nonzero" d="M 287.34375 68.449219 L 135.199219 37.542969 L 87.867188 270.535156 L 240.011719 301.441406 Z M 287.34375 68.449219"/></clipPath><clipPath id="4b760be8f5"><path clip-rule="nonzero" d="M 189 104 L 243 104 L 243 277 L 189 277 Z M 189 104"/></clipPath><clipPath id="04252a1f47"><path clip-rule="nonzero" d="M 134.992188 37.5 L 287.136719 68.40625 L 239.804688 301.398438 L 87.660156 270.492188 Z M 134.992188 37.5"/></clipPath><clipPath id="a30c6822ca"><path clip-rule="nonzero" d="M 287.34375 68.449219 L 135.199219 37.542969 L 87.867188 270.535156 L 240.011719 301.441406 Z M 287.34375 68.449219"/></clipPath><clipPath id="192c829618"><path clip-rule="nonzero" d="M 287.34375 68.449219 L 135.199219 37.542969 L 87.867188 270.535156 L 240.011719 301.441406 Z M 287.34375 68.449219"/></clipPath><clipPath id="7dea7395b8"><path clip-rule="nonzero" d="M 134 252 L 148 252 L 148 273 L 134 273 Z M 134 252"/></clipPath><clipPath id="7af9d40128"><path clip-rule="nonzero" d="M 134.992188 37.5 L 287.136719 68.40625 L 239.804688 301.398438 L 87.660156 270.492188 Z M 134.992188 37.5"/></clipPath><clipPath id="286f60dea9"><path clip-rule="nonzero" d="M 287.34375 68.449219 L 135.199219 37.542969 L 87.867188 270.535156 L 240.011719 301.441406 Z M 287.34375 68.449219"/></clipPath><clipPath id="aa5a21c865"><path clip-rule="nonzero" d="M 287.34375 68.449219 L 135.199219 37.542969 L 87.867188 270.535156 L 240.011719 301.441406 Z M 287.34375 68.449219"/></clipPath><clipPath id="f7bde50f00"><path clip-rule="nonzero" d="M 114 267 L 135 267 L 135 280 L 114 280 Z M 114 267"/></clipPath><clipPath id="19aa584863"><path clip-rule="nonzero" d="M 134.992188 37.5 L 287.136719 68.40625 L 239.804688 301.398438 L 87.660156 270.492188 Z M 134.992188 37.5"/></clipPath><clipPath id="ddc9715550"><path clip-rule="nonzero" d="M 287.34375 68.449219 L 135.199219 37.542969 L 87.867188 270.535156 L 240.011719 301.441406 Z M 287.34375 68.449219"/></clipPath><clipPath id="18e667191b"><path clip-rule="nonzero" d="M 287.34375 68.449219 L 135.199219 37.542969 L 87.867188 270.535156 L 240.011719 301.441406 Z M 287.34375 68.449219"/></clipPath><clipPath id="2190c398dc"><path clip-rule="nonzero" d="M 113 182 L 124 182 L 124 194 L 113 194 Z M 113 182"/></clipPath><clipPath id="510c9206fc"><path clip-rule="nonzero" d="M 134.992188 37.5 L 287.136719 68.40625 L 239.804688 301.398438 L 87.660156 270.492188 Z M 134.992188 37.5"/></clipPath><clipPath id="22b8cd7e05"><path clip-rule="nonzero" d="M 287.34375 68.449219 L 135.199219 37.542969 L 87.867188 270.535156 L 240.011719 301.441406 Z M 287.34375 68.449219"/></clipPath><clipPath id="60d97dc565"><path clip-rule="nonzero" d="M 287.34375 68.449219 L 135.199219 37.542969 L 87.867188 270.535156 L 240.011719 301.441406 Z M 287.34375 68.449219"/></clipPath><clipPath id="0c1cfb7bbe"><path clip-rule="nonzero" d="M 100 189 L 148 189 L 148 235 L 100 235 Z M 100 189"/></clipPath><clipPath id="dfc8e913fd"><path clip-rule="nonzero" d="M 134.992188 37.5 L 287.136719 68.40625 L 239.804688 301.398438 L 87.660156 270.492188 Z M 134.992188 37.5"/></clipPath><clipPath id="8986148888"><path clip-rule="nonzero" d="M 287.34375 68.449219 L 135.199219 37.542969 L 87.867188 270.535156 L 240.011719 301.441406 Z M 287.34375 68.449219"/></clipPath><clipPath id="d02c084056"><path clip-rule="nonzero" d="M 287.34375 68.449219 L 135.199219 37.542969 L 87.867188 270.535156 L 240.011719 301.441406 Z M 287.34375 68.449219"/></clipPath><clipPath id="5f427e2e08"><path clip-rule="nonzero" d="M 120 231 L 133 231 L 133 251 L 120 251 Z M 120 231"/></clipPath><clipPath id="92159500bd"><path clip-rule="nonzero" d="M 134.992188 37.5 L 287.136719 68.40625 L 239.804688 301.398438 L 87.660156 270.492188 Z M 134.992188 37.5"/></clipPath><clipPath id="97a5a70829"><path clip-rule="nonzero" d="M 287.34375 68.449219 L 135.199219 37.542969 L 87.867188 270.535156 L 240.011719 301.441406 Z M 287.34375 68.449219"/></clipPath><clipPath id="7b12a7e154"><path clip-rule="nonzero" d="M 287.34375 68.449219 L 135.199219 37.542969 L 87.867188 270.535156 L 240.011719 301.441406 Z M 287.34375 68.449219"/></clipPath><clipPath id="a726dc34e7"><path clip-rule="nonzero" d="M 107 247 L 121 247 L 121 267 L 107 267 Z M 107 247"/></clipPath><clipPath id="c5b3a48c7c"><path clip-rule="nonzero" d="M 134.992188 37.5 L 287.136719 68.40625 L 239.804688 301.398438 L 87.660156 270.492188 Z M 134.992188 37.5"/></clipPath><clipPath id="53b05ab097"><path clip-rule="nonzero" d="M 287.34375 68.449219 L 135.199219 37.542969 L 87.867188 270.535156 L 240.011719 301.441406 Z M 287.34375 68.449219"/></clipPath><clipPath id="c2e311d5c7"><path clip-rule="nonzero" d="M 287.34375 68.449219 L 135.199219 37.542969 L 87.867188 270.535156 L 240.011719 301.441406 Z M 287.34375 68.449219"/></clipPath></defs><g clip-path="url(#54cb7db7fe)"><g clip-path="url(#2a1e3a295c)"><g clip-path="url(#739c530e4c)"><g clip-path="url(#4726f53f2a)"><path fill-rule="nonzero" fill-opacity="1" d="M 287.332031 68.5 L 278.382812 66.679688 L 276.5625 75.640625 L 285.511719 77.457031 Z M 287.332031 68.5" fill="#000000"/></g></g></g></g><g clip-path="url(#5473b3fe89)"><g clip-path="url(#46fc757a6c)"><g clip-path="url(#147370875e)"><g clip-path="url(#74705725e2)"><path fill-rule="nonzero" fill-opacity="1" d="M 215.746094 53.957031 L 206.796875 52.136719 L 204.980469 61.097656 L 213.925781 62.914062 Z M 215.746094 53.957031" fill="#000000"/></g></g></g></g><g clip-path="url(#e19b203b78)"><g clip-path="url(#87ba1c8e20)"><g clip-path="url(#9e362f223a)"><g clip-path="url(#12eb953d46)"><path fill-rule="nonzero" fill-opacity="1" d="M 222.875 64.734375 L 213.925781 62.914062 L 212.109375 71.875 L 221.054688 73.691406 Z M 222.875 64.734375" fill="#000000"/></g></g></g></g><g clip-path="url(#6ebf8ff443)"><g clip-path="url(#9a35be86c1)"><g clip-path="url(#ebe98ce31f)"><g clip-path="url(#626407228d)"><path fill-rule="nonzero" fill-opacity="1" d="M 276.5625 75.640625 L 267.613281 73.820312 L 265.792969 82.78125 L 274.742188 84.597656 Z M 276.5625 75.640625" fill="#000000"/></g></g></g></g><g clip-path="url(#60c3a11fef)"><g clip-path="url(#45b99cd593)"><g clip-path="url(#d6914b6ae3)"><g clip-path="url(#0fc0801a1a)"><path fill-rule="nonzero" fill-opacity="1" d="M 230.003906 75.507812 L 221.054688 73.691406 L 219.238281 82.648438 L 228.183594 84.464844 Z M 230.003906 75.507812" fill="#000000"/></g></g></g></g><g clip-path="url(#8fe949731d)"><g clip-path="url(#3404ff0320)"><g clip-path="url(#2bece33512)"><g clip-path="url(#2ff0bef4a4)"><path fill-rule="nonzero" fill-opacity="1" d="M 238.953125 77.324219 L 240.773438 68.367188 L 242.589844 59.410156 L 251.539062 61.226562 L 249.71875 70.1875 L 247.902344 79.144531 L 246.082031 88.101562 L 237.132812 86.285156 Z M 238.953125 77.324219" fill="#000000"/></g></g></g></g><g clip-path="url(#cb448b41f9)"><g clip-path="url(#c7701fb9e6)"><g clip-path="url(#86e9f218c1)"><g clip-path="url(#f8c0e30825)"><path fill-rule="nonzero" fill-opacity="1" d="M 265.796875 82.777344 L 256.847656 80.960938 L 255.027344 89.917969 L 263.976562 91.738281 Z M 265.796875 82.777344" fill="#000000"/></g></g></g></g><g clip-path="url(#72d2f4f1b8)"><g clip-path="url(#73eec9ed70)"><g clip-path="url(#c359bda68e)"><g clip-path="url(#8e47ff371c)"><path fill-rule="nonzero" fill-opacity="1" d="M 272.773438 140.164062 L 263.824219 138.34375 L 262.003906 147.304688 L 270.953125 149.121094 Z M 272.773438 140.164062" fill="#000000"/></g></g></g></g><g clip-path="url(#adce0d4327)"><g clip-path="url(#4bff419a5e)"><g clip-path="url(#ab6d9091bb)"><g clip-path="url(#f7d56c63b6)"><path fill-rule="nonzero" fill-opacity="1" d="M 156.300781 163.136719 L 147.351562 161.320312 L 145.53125 170.277344 L 154.480469 172.097656 Z M 156.300781 163.136719" fill="#000000"/></g></g></g></g><g clip-path="url(#ca5f2c4ea0)"><g clip-path="url(#1d0622527f)"><g clip-path="url(#67406ad58d)"><g clip-path="url(#d24ee59c68)"><path fill-rule="nonzero" fill-opacity="1" d="M 167.066406 156 L 158.117188 154.179688 L 156.296875 163.140625 L 165.246094 164.957031 Z M 167.066406 156" fill="#000000"/></g></g></g></g><g clip-path="url(#10691e3a16)"><g clip-path="url(#d6c60d3c66)"><g clip-path="url(#141380b254)"><g clip-path="url(#9b87f821c4)"><path fill-rule="nonzero" fill-opacity="1" d="M 177.835938 148.859375 L 168.886719 147.039062 L 167.066406 156 L 176.015625 157.816406 Z M 177.835938 148.859375" fill="#000000"/></g></g></g></g><g clip-path="url(#020e084dad)"><g clip-path="url(#fddc1c902f)"><g clip-path="url(#34ce04e872)"><g clip-path="url(#3faa80fc71)"><path fill-rule="nonzero" fill-opacity="1" d="M 188.601562 141.71875 L 179.652344 139.902344 L 177.832031 148.859375 L 186.78125 150.675781 Z M 188.601562 141.71875" fill="#000000"/></g></g></g></g><g clip-path="url(#6b99dd5069)"><g clip-path="url(#b9b31f4439)"><g clip-path="url(#aa9f13bc32)"><g clip-path="url(#c4c16af0ee)"><path fill-rule="nonzero" fill-opacity="1" d="M 199.371094 134.578125 L 190.421875 132.761719 L 188.601562 141.71875 L 197.550781 143.535156 Z M 199.371094 134.578125" fill="#000000"/></g></g></g></g><g clip-path="url(#6905e8462d)"><g clip-path="url(#a8e18f386e)"><g clip-path="url(#7f241dff6b)"><g clip-path="url(#e3462fcceb)"><path fill-rule="nonzero" fill-opacity="1" d="M 210.136719 127.4375 L 201.1875 125.621094 L 199.371094 134.578125 L 208.316406 136.398438 Z M 210.136719 127.4375" fill="#000000"/></g></g></g></g><g clip-path="url(#7b22c61091)"><g clip-path="url(#fc280670c3)"><g clip-path="url(#5655c5a519)"><g clip-path="url(#0cf380f0bd)"><path fill-rule="nonzero" fill-opacity="1" d="M 206.648438 98.746094 L 197.703125 96.929688 L 199.519531 87.96875 L 208.46875 89.789062 L 226.367188 93.421875 L 224.546875 102.382812 L 215.597656 100.5625 Z M 206.648438 98.746094" fill="#000000"/></g></g></g></g><g clip-path="url(#3e4258d5fe)"><g clip-path="url(#88255be2de)"><g clip-path="url(#8ab426dd93)"><g clip-path="url(#18f0551bab)"><path fill-rule="nonzero" fill-opacity="1" d="M 220.90625 120.296875 L 211.957031 118.480469 L 210.136719 127.4375 L 219.085938 129.257812 Z M 220.90625 120.296875" fill="#000000"/></g></g></g></g><g clip-path="url(#09b8b24a57)"><g clip-path="url(#15ddd5ada5)"><g clip-path="url(#7625d00c58)"><g clip-path="url(#ac221cc172)"><path fill-rule="nonzero" fill-opacity="1" d="M 258.519531 118.609375 L 249.570312 116.792969 L 247.75 125.75 L 256.699219 127.570312 Z M 258.519531 118.609375" fill="#000000"/></g></g></g></g><g clip-path="url(#4c9fb65c9c)"><g clip-path="url(#92a529a026)"><g clip-path="url(#dab68d2b23)"><g clip-path="url(#9eaddb6d5d)"><path fill-rule="nonzero" fill-opacity="1" d="M 265.644531 129.386719 L 256.695312 127.570312 L 254.875 136.527344 L 263.824219 138.34375 Z M 265.644531 129.386719" fill="#000000"/></g></g></g></g><g clip-path="url(#15d9271fcf)"><g clip-path="url(#4a0e35616c)"><g clip-path="url(#a0de8c912d)"><g clip-path="url(#44771d3efb)"><path fill-rule="nonzero" fill-opacity="1" d="M 271.105469 102.511719 L 280.054688 104.328125 L 278.234375 113.289062 L 269.285156 111.46875 L 260.335938 109.652344 L 251.390625 107.835938 L 253.207031 98.875 L 262.15625 100.695312 Z M 271.105469 102.511719" fill="#000000"/></g></g></g></g><g clip-path="url(#b0da2279a7)"><g clip-path="url(#40a6da3f91)"><g clip-path="url(#544856dac6)"><g clip-path="url(#95594c6c5a)"><path fill-rule="nonzero" fill-opacity="1" d="M 145.53125 170.28125 L 136.582031 168.460938 L 134.761719 177.421875 L 143.710938 179.238281 Z M 145.53125 170.28125" fill="#000000"/></g></g></g></g><g clip-path="url(#1b34ddd38a)"><g clip-path="url(#1d785d352b)"><g clip-path="url(#a492ddcc50)"><g clip-path="url(#fdd090574a)"><path fill-rule="nonzero" fill-opacity="1" d="M 134.765625 177.417969 L 125.816406 175.601562 L 123.996094 184.558594 L 132.945312 186.378906 Z M 134.765625 177.417969" fill="#000000"/></g></g></g></g><g clip-path="url(#66d2a56a72)"><g clip-path="url(#4b3e4e33d2)"><g clip-path="url(#5b23d33641)"><g clip-path="url(#01a4299a99)"><path fill-rule="nonzero" fill-opacity="1" d="M 143.5625 225.84375 L 145.378906 216.886719 L 147.199219 207.929688 L 138.253906 206.109375 L 120.355469 202.476562 L 111.410156 200.65625 L 113.226562 191.699219 L 122.175781 193.519531 L 123.996094 184.558594 L 132.945312 186.378906 L 134.765625 177.417969 L 143.710938 179.238281 L 145.53125 170.28125 L 154.480469 172.097656 L 156.300781 163.136719 L 165.246094 164.957031 L 167.066406 156 L 176.015625 157.816406 L 177.835938 148.859375 L 186.78125 150.675781 L 188.601562 141.71875 L 197.550781 143.535156 L 199.371094 134.578125 L 208.316406 136.394531 L 210.136719 127.4375 L 219.085938 129.257812 L 220.90625 120.296875 L 229.851562 122.117188 L 228.035156 131.074219 L 222.574219 157.945312 L 220.753906 166.90625 L 217.113281 184.820312 L 215.296875 193.777344 L 213.476562 202.738281 L 206.195312 238.566406 L 204.375 247.527344 L 202.558594 256.484375 L 200.738281 265.441406 L 191.789062 263.625 L 193.609375 254.667969 L 184.660156 252.847656 L 186.480469 243.890625 L 177.53125 242.074219 L 179.351562 233.113281 L 170.40625 231.296875 L 161.457031 229.480469 L 159.636719 238.4375 L 150.691406 236.621094 L 147.050781 254.535156 L 138.101562 252.71875 L 134.460938 270.632812 L 125.515625 268.816406 L 116.566406 267 L 118.386719 258.042969 L 120.207031 249.082031 L 129.152344 250.902344 L 130.972656 241.941406 L 132.792969 232.984375 L 141.742188 234.800781 Z M 143.5625 225.84375" fill="#ffffff"/></g></g></g></g><g clip-path="url(#73363f9548)"><g clip-path="url(#7b259786b8)"><g clip-path="url(#3b697e90e2)"><g clip-path="url(#184c99f1a3)"><path fill-rule="nonzero" fill-opacity="1" d="M 170.40625 231.296875 L 179.351562 233.113281 L 177.53125 242.074219 L 168.585938 240.257812 L 159.636719 238.4375 L 161.457031 229.480469 Z M 170.40625 231.296875" fill="#000000"/></g></g></g></g><g clip-path="url(#8fe9292f3d)"><g clip-path="url(#e70dc59c07)"><g clip-path="url(#f9693183a8)"><g clip-path="url(#36077a169d)"><path fill-rule="nonzero" fill-opacity="1" d="M 150.691406 236.621094 L 159.636719 238.4375 L 157.816406 247.394531 L 155.996094 256.355469 L 147.050781 254.535156 Z M 150.691406 236.621094" fill="#000000"/></g></g></g></g><g clip-path="url(#aa60e9149f)"><g clip-path="url(#1bd78ecf48)"><g clip-path="url(#4c7096ee05)"><g clip-path="url(#08b8f0a7b2)"><path fill-rule="nonzero" fill-opacity="1" d="M 186.480469 243.890625 L 177.53125 242.074219 L 175.710938 251.03125 L 184.660156 252.851562 Z M 186.480469 243.890625" fill="#000000"/></g></g></g></g><g clip-path="url(#070236c141)"><g clip-path="url(#2f524bcc60)"><g clip-path="url(#774cbdc0c8)"><g clip-path="url(#3e1e24c66a)"><path fill-rule="nonzero" fill-opacity="1" d="M 193.609375 254.667969 L 184.660156 252.847656 L 182.839844 261.808594 L 191.789062 263.625 Z M 193.609375 254.667969" fill="#000000"/></g></g></g></g><g clip-path="url(#4b760be8f5)"><g clip-path="url(#04252a1f47)"><g clip-path="url(#a30c6822ca)"><g clip-path="url(#192c829618)"><path fill-rule="nonzero" fill-opacity="1" d="M 202.558594 256.484375 L 204.375 247.527344 L 206.195312 238.566406 L 213.476562 202.738281 L 215.296875 193.777344 L 217.113281 184.820312 L 220.753906 166.90625 L 222.574219 157.945312 L 228.035156 131.074219 L 229.851562 122.117188 L 220.90625 120.296875 L 222.726562 111.339844 L 231.671875 113.15625 L 233.492188 104.199219 L 242.441406 106.015625 L 240.621094 114.976562 L 236.980469 132.890625 L 235.164062 141.847656 L 233.34375 150.808594 L 227.882812 177.679688 L 226.0625 186.640625 L 224.246094 195.597656 L 218.785156 222.46875 L 216.964844 231.429688 L 213.324219 249.34375 L 211.507812 258.300781 L 209.6875 267.261719 L 207.867188 276.21875 L 198.917969 274.402344 L 189.96875 272.582031 L 191.789062 263.625 L 200.738281 265.441406 Z M 202.558594 256.484375" fill="#000000"/></g></g></g></g><g clip-path="url(#7dea7395b8)"><g clip-path="url(#7af9d40128)"><g clip-path="url(#286f60dea9)"><g clip-path="url(#aa5a21c865)"><path fill-rule="nonzero" fill-opacity="1" d="M 138.101562 252.71875 L 147.050781 254.535156 L 145.230469 263.496094 L 143.410156 272.453125 L 134.460938 270.632812 Z M 138.101562 252.71875" fill="#000000"/></g></g></g></g><g clip-path="url(#f7bde50f00)"><g clip-path="url(#19aa584863)"><g clip-path="url(#ddc9715550)"><g clip-path="url(#18e667191b)"><path fill-rule="nonzero" fill-opacity="1" d="M 134.460938 270.632812 L 132.640625 279.59375 L 123.695312 277.773438 L 114.746094 275.957031 L 116.566406 267 L 125.515625 268.816406 Z M 134.460938 270.632812" fill="#000000"/></g></g></g></g><g clip-path="url(#2190c398dc)"><g clip-path="url(#510c9206fc)"><g clip-path="url(#22b8cd7e05)"><g clip-path="url(#60d97dc565)"><path fill-rule="nonzero" fill-opacity="1" d="M 123.996094 184.558594 L 115.046875 182.742188 L 113.226562 191.699219 L 122.175781 193.519531 Z M 123.996094 184.558594" fill="#000000"/></g></g></g></g><g clip-path="url(#0c1cfb7bbe)"><g clip-path="url(#dfc8e913fd)"><g clip-path="url(#8986148888)"><g clip-path="url(#d02c084056)"><path fill-rule="nonzero" fill-opacity="1" d="M 113.226562 191.699219 L 111.410156 200.65625 L 120.355469 202.476562 L 138.253906 206.109375 L 147.199219 207.929688 L 145.378906 216.886719 L 143.5625 225.84375 L 141.742188 234.800781 L 132.792969 232.984375 L 136.433594 215.070312 L 127.484375 213.25 L 118.539062 211.433594 L 109.589844 209.617188 L 100.640625 207.796875 L 104.28125 189.882812 Z M 113.226562 191.699219" fill="#000000"/></g></g></g></g><g clip-path="url(#5f427e2e08)"><g clip-path="url(#92159500bd)"><g clip-path="url(#97a5a70829)"><g clip-path="url(#7b12a7e154)"><path fill-rule="nonzero" fill-opacity="1" d="M 129.152344 250.902344 L 120.207031 249.082031 L 122.027344 240.125 L 123.84375 231.167969 L 132.792969 232.984375 L 130.972656 241.941406 Z M 129.152344 250.902344" fill="#000000"/></g></g></g></g><g clip-path="url(#a726dc34e7)"><g clip-path="url(#c5b3a48c7c)"><g clip-path="url(#53b05ab097)"><g clip-path="url(#c2e311d5c7)"><path fill-rule="nonzero" fill-opacity="1" d="M 116.566406 267 L 107.617188 265.179688 L 111.257812 247.265625 L 120.207031 249.082031 L 118.386719 258.042969 Z M 116.566406 267" fill="#000000"/></g></g></g></g></svg>