<svg version="1.0" preserveAspectRatio="xMidYMid meet" viewBox="122.54100000000001 170.390995910616 136.5 31.499999244000005" zoomAndPan="magnify" xmlns:xlink="http://www.w3.org/1999/xlink" xmlns="http://www.w3.org/2000/svg" style="max-height: 500px" width="136.5" height="31.499999244000005"><metadata>Yes</metadata><defs><g/></defs><g fill-opacity="1" fill="#ff00ff"><g transform="translate(123.993863, 198.408851)"><g><path d="M 2.21875 0 L 2.21875 -22.171875 L 19.953125 -22.171875 L 19.953125 -17.734375 L 6.65625 -17.734375 L 6.65625 -4.4375 L 19.953125 -4.4375 L 19.953125 0 Z M 19.953125 -4.4375 L 19.953125 -17.734375 L 24.390625 -17.734375 L 24.390625 -4.4375 Z M 19.953125 -4.4375"/></g></g></g><g fill-opacity="1" fill="#ff00ff"><g transform="translate(150.586576, 198.408851)"><g><path d="M 2.21875 0 L 2.21875 -17.734375 L 6.65625 -17.734375 L 6.65625 -8.875 L 19.953125 -8.875 L 19.953125 -17.734375 L 24.390625 -17.734375 L 24.390625 0 L 19.953125 0 L 19.953125 -4.4375 L 6.65625 -4.4375 L 6.65625 0 Z M 6.65625 -17.734375 L 6.65625 -22.171875 L 19.953125 -22.171875 L 19.953125 -17.734375 Z M 6.65625 -17.734375"/></g></g></g><g fill-opacity="1" fill="#ff00ff"><g transform="translate(177.179289, 198.408851)"><g><path d="M 2.21875 0 L 2.21875 -22.171875 L 19.953125 -22.171875 L 19.953125 -17.734375 L 6.65625 -17.734375 L 6.65625 -8.875 L 19.953125 -8.875 L 19.953125 -4.4375 L 6.65625 -4.4375 L 6.65625 0 Z M 19.953125 0 L 19.953125 -4.4375 L 24.390625 -4.4375 L 24.390625 0 Z M 19.953125 -8.875 L 19.953125 -17.734375 L 24.390625 -17.734375 L 24.390625 -8.875 Z M 19.953125 -8.875"/></g></g></g><g fill-opacity="1" fill="#ff00ff"><g transform="translate(203.772003, 198.408851)"><g><path d="M 2.21875 0 L 2.21875 -22.171875 L 24.390625 -22.171875 L 24.390625 -17.734375 L 6.65625 -17.734375 L 6.65625 -13.296875 L 19.953125 -13.296875 L 19.953125 -8.875 L 6.65625 -8.875 L 6.65625 -4.4375 L 24.390625 -4.4375 L 24.390625 0 Z M 2.21875 0"/></g></g></g><g fill-opacity="1" fill="#ff00ff"><g transform="translate(230.364716, 198.408851)"><g><path d="M 2.21875 0 L 2.21875 -4.4375 L 6.65625 -4.4375 L 6.65625 0 Z M 2.21875 0"/></g></g></g><g fill-opacity="1" fill="#ff00ff"><g transform="translate(239.228954, 198.408851)"><g><path d="M 2.21875 0 L 2.21875 -4.4375 L 6.65625 -4.4375 L 6.65625 0 Z M 2.21875 0"/></g></g></g><g fill-opacity="1" fill="#ff00ff"><g transform="translate(248.093192, 198.408851)"><g><path d="M 2.21875 0 L 2.21875 -4.4375 L 6.65625 -4.4375 L 6.65625 0 Z M 2.21875 0"/></g></g></g><g fill-opacity="1" fill="#00ffff"><g transform="translate(123.993863, 195.438587)"><g><path d="M 2.21875 0 L 2.21875 -22.171875 L 19.953125 -22.171875 L 19.953125 -17.734375 L 6.65625 -17.734375 L 6.65625 -4.4375 L 19.953125 -4.4375 L 19.953125 0 Z M 19.953125 -4.4375 L 19.953125 -17.734375 L 24.390625 -17.734375 L 24.390625 -4.4375 Z M 19.953125 -4.4375"/></g></g></g><g fill-opacity="1" fill="#00ffff"><g transform="translate(150.586576, 195.438587)"><g><path d="M 2.21875 0 L 2.21875 -17.734375 L 6.65625 -17.734375 L 6.65625 -8.875 L 19.953125 -8.875 L 19.953125 -17.734375 L 24.390625 -17.734375 L 24.390625 0 L 19.953125 0 L 19.953125 -4.4375 L 6.65625 -4.4375 L 6.65625 0 Z M 6.65625 -17.734375 L 6.65625 -22.171875 L 19.953125 -22.171875 L 19.953125 -17.734375 Z M 6.65625 -17.734375"/></g></g></g><g fill-opacity="1" fill="#00ffff"><g transform="translate(177.179289, 195.438587)"><g><path d="M 2.21875 0 L 2.21875 -22.171875 L 19.953125 -22.171875 L 19.953125 -17.734375 L 6.65625 -17.734375 L 6.65625 -8.875 L 19.953125 -8.875 L 19.953125 -4.4375 L 6.65625 -4.4375 L 6.65625 0 Z M 19.953125 0 L 19.953125 -4.4375 L 24.390625 -4.4375 L 24.390625 0 Z M 19.953125 -8.875 L 19.953125 -17.734375 L 24.390625 -17.734375 L 24.390625 -8.875 Z M 19.953125 -8.875"/></g></g></g><g fill-opacity="1" fill="#00ffff"><g transform="translate(203.772003, 195.438587)"><g><path d="M 2.21875 0 L 2.21875 -22.171875 L 24.390625 -22.171875 L 24.390625 -17.734375 L 6.65625 -17.734375 L 6.65625 -13.296875 L 19.953125 -13.296875 L 19.953125 -8.875 L 6.65625 -8.875 L 6.65625 -4.4375 L 24.390625 -4.4375 L 24.390625 0 Z M 2.21875 0"/></g></g></g><g fill-opacity="1" fill="#00ffff"><g transform="translate(230.364716, 195.438587)"><g><path d="M 2.21875 0 L 2.21875 -4.4375 L 6.65625 -4.4375 L 6.65625 0 Z M 2.21875 0"/></g></g></g><g fill-opacity="1" fill="#00ffff"><g transform="translate(239.228954, 195.438587)"><g><path d="M 2.21875 0 L 2.21875 -4.4375 L 6.65625 -4.4375 L 6.65625 0 Z M 2.21875 0"/></g></g></g><g fill-opacity="1" fill="#00ffff"><g transform="translate(248.093192, 195.438587)"><g><path d="M 2.21875 0 L 2.21875 -4.4375 L 6.65625 -4.4375 L 6.65625 0 Z M 2.21875 0"/></g></g></g><g fill-opacity="1" fill="#ffffff"><g transform="translate(123.993863, 196.923719)"><g><path d="M 2.21875 0 L 2.21875 -22.171875 L 19.953125 -22.171875 L 19.953125 -17.734375 L 6.65625 -17.734375 L 6.65625 -4.4375 L 19.953125 -4.4375 L 19.953125 0 Z M 19.953125 -4.4375 L 19.953125 -17.734375 L 24.390625 -17.734375 L 24.390625 -4.4375 Z M 19.953125 -4.4375"/></g></g></g><g fill-opacity="1" fill="#ffffff"><g transform="translate(150.586576, 196.923719)"><g><path d="M 2.21875 0 L 2.21875 -17.734375 L 6.65625 -17.734375 L 6.65625 -8.875 L 19.953125 -8.875 L 19.953125 -17.734375 L 24.390625 -17.734375 L 24.390625 0 L 19.953125 0 L 19.953125 -4.4375 L 6.65625 -4.4375 L 6.65625 0 Z M 6.65625 -17.734375 L 6.65625 -22.171875 L 19.953125 -22.171875 L 19.953125 -17.734375 Z M 6.65625 -17.734375"/></g></g></g><g fill-opacity="1" fill="#ffffff"><g transform="translate(177.179289, 196.923719)"><g><path d="M 2.21875 0 L 2.21875 -22.171875 L 19.953125 -22.171875 L 19.953125 -17.734375 L 6.65625 -17.734375 L 6.65625 -8.875 L 19.953125 -8.875 L 19.953125 -4.4375 L 6.65625 -4.4375 L 6.65625 0 Z M 19.953125 0 L 19.953125 -4.4375 L 24.390625 -4.4375 L 24.390625 0 Z M 19.953125 -8.875 L 19.953125 -17.734375 L 24.390625 -17.734375 L 24.390625 -8.875 Z M 19.953125 -8.875"/></g></g></g><g fill-opacity="1" fill="#ffffff"><g transform="translate(203.772003, 196.923719)"><g><path d="M 2.21875 0 L 2.21875 -22.171875 L 24.390625 -22.171875 L 24.390625 -17.734375 L 6.65625 -17.734375 L 6.65625 -13.296875 L 19.953125 -13.296875 L 19.953125 -8.875 L 6.65625 -8.875 L 6.65625 -4.4375 L 24.390625 -4.4375 L 24.390625 0 Z M 2.21875 0"/></g></g></g><g fill-opacity="1" fill="#ffffff"><g transform="translate(230.364716, 196.923719)"><g><path d="M 2.21875 0 L 2.21875 -4.4375 L 6.65625 -4.4375 L 6.65625 0 Z M 2.21875 0"/></g></g></g><g fill-opacity="1" fill="#ffffff"><g transform="translate(239.228954, 196.923719)"><g><path d="M 2.21875 0 L 2.21875 -4.4375 L 6.65625 -4.4375 L 6.65625 0 Z M 2.21875 0"/></g></g></g><g fill-opacity="1" fill="#ffffff"><g transform="translate(248.093192, 196.923719)"><g><path d="M 2.21875 0 L 2.21875 -4.4375 L 6.65625 -4.4375 L 6.65625 0 Z M 2.21875 0"/></g></g></g></svg>