<svg version="1.0" preserveAspectRatio="xMidYMid meet" viewBox="84.25349999999999 165.703496023116 207.00000000000003 32.249999226" zoomAndPan="magnify" xmlns:xlink="http://www.w3.org/1999/xlink" xmlns="http://www.w3.org/2000/svg" style="max-height: 500px" width="207.00000000000003" height="32.249999226"><defs><clipPath id="77f017b192"><path clip-rule="nonzero" d="M 91 167.441406 L 283 167.441406 L 283 174 L 91 174 Z M 91 167.441406"/></clipPath><clipPath id="11395bef69"><path clip-rule="nonzero" d="M 91 189 L 283 189 L 283 195.191406 L 91 195.191406 Z M 91 189"/></clipPath><clipPath id="1f9cd16dd8"><path clip-rule="nonzero" d="M 282 170 L 287.996094 170 L 287.996094 193 L 282 193 Z M 282 170"/></clipPath></defs><path fill-rule="nonzero" fill-opacity="1" d="M 225.710938 174.472656 L 233.332031 174.472656 C 233.332031 179.179688 233.332031 183.882812 233.332031 188.585938 C 230.792969 188.585938 228.253906 188.585938 225.710938 188.585938 C 225.710938 183.882812 225.710938 179.179688 225.710938 174.472656" fill="#59eeff"/><path fill-rule="nonzero" fill-opacity="1" d="M 235.132812 174.472656 L 242.753906 174.472656 C 242.753906 179.179688 242.753906 183.882812 242.753906 188.585938 C 240.210938 188.585938 237.671875 188.585938 235.132812 188.585938 C 235.132812 183.882812 235.132812 179.179688 235.132812 174.472656" fill="#59eeff"/><path fill-rule="nonzero" fill-opacity="1" d="M 244.550781 174.472656 L 252.171875 174.472656 C 252.171875 179.179688 252.171875 183.882812 252.171875 188.585938 C 249.632812 188.585938 247.09375 188.585938 244.550781 188.585938 C 244.550781 183.882812 244.550781 179.179688 244.550781 174.472656" fill="#59eeff"/><path fill-rule="nonzero" fill-opacity="1" d="M 253.972656 174.472656 L 261.59375 174.472656 C 261.59375 179.179688 261.59375 183.882812 261.59375 188.585938 C 259.050781 188.585938 256.511719 188.585938 253.972656 188.585938 C 253.972656 183.882812 253.972656 179.179688 253.972656 174.472656" fill="#59eeff"/><path fill-rule="nonzero" fill-opacity="1" d="M 263.390625 174.472656 L 271.011719 174.472656 C 271.011719 179.179688 271.011719 183.882812 271.011719 188.585938 C 268.472656 188.585938 265.929688 188.585938 263.390625 188.585938 C 263.390625 183.882812 263.390625 179.179688 263.390625 174.472656" fill="#59eeff"/><path fill-rule="nonzero" fill-opacity="1" d="M 272.808594 174.472656 L 280.429688 174.472656 C 280.429688 179.179688 280.429688 183.882812 280.429688 188.585938 C 277.890625 188.585938 275.351562 188.585938 272.808594 188.585938 C 272.808594 183.882812 272.808594 179.179688 272.808594 174.472656" fill="#ffffff"/><path fill-rule="nonzero" fill-opacity="1" d="M 216.292969 174.472656 L 223.914062 174.472656 C 223.914062 179.179688 223.914062 183.882812 223.914062 188.585938 C 221.375 188.585938 218.832031 188.585938 216.292969 188.585938 C 216.292969 183.882812 216.292969 179.179688 216.292969 174.472656" fill="#59eeff"/><path fill-rule="nonzero" fill-opacity="1" d="M 206.875 174.472656 L 214.496094 174.472656 C 214.496094 179.179688 214.496094 183.882812 214.496094 188.585938 C 211.953125 188.585938 209.414062 188.585938 206.875 188.585938 C 206.875 183.882812 206.875 179.179688 206.875 174.472656" fill="#59eeff"/><path fill-rule="nonzero" fill-opacity="1" d="M 197.453125 174.472656 L 205.074219 174.472656 C 205.074219 179.179688 205.074219 183.882812 205.074219 188.585938 C 202.535156 188.585938 199.996094 188.585938 197.453125 188.585938 C 197.453125 183.882812 197.453125 179.179688 197.453125 174.472656" fill="#59eeff"/><path fill-rule="nonzero" fill-opacity="1" d="M 188.035156 174.472656 L 195.65625 174.472656 C 195.65625 179.179688 195.65625 183.882812 195.65625 188.585938 C 193.113281 188.585938 190.574219 188.585938 188.035156 188.585938 C 188.035156 183.882812 188.035156 179.179688 188.035156 174.472656" fill="#59eeff"/><path fill-rule="nonzero" fill-opacity="1" d="M 178.613281 174.472656 L 186.234375 174.472656 C 186.234375 179.179688 186.234375 183.882812 186.234375 188.585938 C 183.695312 188.585938 181.15625 188.585938 178.613281 188.585938 C 178.613281 183.882812 178.613281 179.179688 178.613281 174.472656" fill="#59eeff"/><path fill-rule="nonzero" fill-opacity="1" d="M 169.195312 174.472656 L 176.816406 174.472656 C 176.816406 179.179688 176.816406 183.882812 176.816406 188.585938 C 174.277344 188.585938 171.734375 188.585938 169.195312 188.585938 C 169.195312 183.882812 169.195312 179.179688 169.195312 174.472656" fill="#59eeff"/><path fill-rule="nonzero" fill-opacity="1" d="M 159.777344 174.472656 L 167.398438 174.472656 C 167.398438 179.179688 167.398438 183.882812 167.398438 188.585938 C 164.855469 188.585938 162.316406 188.585938 159.777344 188.585938 C 159.777344 183.882812 159.777344 179.179688 159.777344 174.472656" fill="#59eeff"/><path fill-rule="nonzero" fill-opacity="1" d="M 150.355469 174.472656 L 157.976562 174.472656 C 157.976562 179.179688 157.976562 183.882812 157.976562 188.585938 C 155.4375 188.585938 152.898438 188.585938 150.355469 188.585938 C 150.355469 183.882812 150.355469 179.179688 150.355469 174.472656" fill="#59eeff"/><path fill-rule="nonzero" fill-opacity="1" d="M 140.9375 174.472656 L 148.558594 174.472656 C 148.558594 179.179688 148.558594 183.882812 148.558594 188.585938 C 146.015625 188.585938 143.476562 188.585938 140.9375 188.585938 C 140.9375 183.882812 140.9375 179.179688 140.9375 174.472656" fill="#59eeff"/><path fill-rule="nonzero" fill-opacity="1" d="M 131.515625 174.472656 L 139.136719 174.472656 C 139.136719 179.179688 139.136719 183.882812 139.136719 188.585938 C 136.597656 188.585938 134.058594 188.585938 131.515625 188.585938 C 131.515625 183.882812 131.515625 179.179688 131.515625 174.472656" fill="#59eeff"/><path fill-rule="nonzero" fill-opacity="1" d="M 122.097656 174.472656 L 129.71875 174.472656 C 129.71875 179.179688 129.71875 183.882812 129.71875 188.585938 C 127.179688 188.585938 124.636719 188.585938 122.097656 188.585938 C 122.097656 183.882812 122.097656 179.179688 122.097656 174.472656" fill="#59eeff"/><path fill-rule="nonzero" fill-opacity="1" d="M 112.679688 174.472656 L 120.300781 174.472656 C 120.300781 179.179688 120.300781 183.882812 120.300781 188.585938 C 117.757812 188.585938 115.21875 188.585938 112.679688 188.585938 C 112.679688 183.882812 112.679688 179.179688 112.679688 174.472656" fill="#59eeff"/><path fill-rule="nonzero" fill-opacity="1" d="M 103.257812 174.472656 L 110.878906 174.472656 C 110.878906 179.179688 110.878906 183.882812 110.878906 188.585938 C 108.339844 188.585938 105.800781 188.585938 103.257812 188.585938 C 103.257812 183.882812 103.257812 179.179688 103.257812 174.472656" fill="#59eeff"/><path fill-rule="nonzero" fill-opacity="1" d="M 93.839844 174.472656 L 101.460938 174.472656 C 101.460938 179.179688 101.460938 183.882812 101.460938 188.585938 C 98.917969 188.585938 96.378906 188.585938 93.839844 188.585938 C 93.839844 183.882812 93.839844 179.179688 93.839844 174.472656" fill="#59eeff"/><g clip-path="url(#77f017b192)"><path fill-rule="nonzero" fill-opacity="1" d="M 91.785156 167.433594 L 282.867188 167.433594 L 282.867188 173.34375 L 91.785156 173.34375 Z M 91.785156 167.433594" fill="#ffb3fb"/></g><g clip-path="url(#11395bef69)"><path fill-rule="nonzero" fill-opacity="1" d="M 91.785156 189.414062 L 282.867188 189.414062 L 282.867188 195.324219 L 91.785156 195.324219 Z M 91.785156 189.414062" fill="#ffb3fb"/></g><g clip-path="url(#1f9cd16dd8)"><path fill-rule="nonzero" fill-opacity="1" d="M 282.089844 170.929688 L 288.003906 170.929688 L 288.003906 192.074219 L 282.089844 192.074219 Z M 282.089844 170.929688" fill="#ffb3fb"/></g><path fill-rule="nonzero" fill-opacity="1" d="M 87.007812 170.734375 L 92.917969 170.734375 L 92.917969 191.878906 L 87.007812 191.878906 Z M 87.007812 170.734375" fill="#ffb3fb"/></svg>