<svg version="1.0" preserveAspectRatio="xMidYMid meet" viewBox="34.631249999999994 166.49099600421602 306.75 36.749999118000005" zoomAndPan="magnify" xmlns:xlink="http://www.w3.org/1999/xlink" xmlns="http://www.w3.org/2000/svg" style="max-height: 500px" width="306.75" height="36.749999118000005"><metadata>Yes</metadata><defs><g/></defs><g fill-opacity="1" fill="#ff00ff"><g transform="translate(37.057758, 196.919303)"><g><path d="M 19.59375 -20.734375 L 5.703125 -20.734375 L 5.703125 -13.515625 L 18.703125 -13.515625 L 18.703125 -10.765625 L 5.703125 -10.765625 L 5.703125 -2.75 L 20.109375 -2.75 L 20.109375 0 L 2.59375 0 L 2.59375 -23.5 L 19.59375 -23.5 Z M 19.59375 -20.734375"/></g></g></g><g fill-opacity="1" fill="#ff00ff"><g transform="translate(58.946023, 196.919303)"><g><path d="M 10.234375 -17.390625 C 11.460938 -17.390625 12.519531 -17.148438 13.40625 -16.671875 C 14.289062 -16.191406 14.941406 -15.578125 15.359375 -14.828125 C 15.617188 -14.328125 15.800781 -13.785156 15.90625 -13.203125 C 16.019531 -12.628906 16.078125 -11.90625 16.078125 -11.03125 L 16.078125 0 L 13.1875 0 L 13.1875 -10.5 C 13.1875 -13.425781 11.992188 -14.890625 9.609375 -14.890625 C 8.710938 -14.890625 7.882812 -14.671875 7.125 -14.234375 C 6.375 -13.796875 5.835938 -13.164062 5.515625 -12.34375 C 5.253906 -11.632812 5.125 -10.691406 5.125 -9.515625 L 5.125 0 L 2.234375 0 L 2.234375 -17 L 4.828125 -17 L 4.828125 -14.609375 C 6.117188 -16.460938 7.921875 -17.390625 10.234375 -17.390625 Z M 10.234375 -17.390625"/></g></g></g><g fill-opacity="1" fill="#ff00ff"><g transform="translate(77.191709, 196.919303)"><g><path d="M 5.546875 -17 L 8.4375 -17 L 8.4375 -14.828125 L 5.546875 -14.828125 L 5.546875 -4.296875 C 5.546875 -3.554688 5.648438 -3.03125 5.859375 -2.71875 C 6.066406 -2.414062 6.5 -2.265625 7.15625 -2.265625 C 7.3125 -2.265625 7.738281 -2.316406 8.4375 -2.421875 L 8.859375 0.125 C 7.984375 0.300781 7.273438 0.390625 6.734375 0.390625 C 5.609375 0.390625 4.75 0.210938 4.15625 -0.140625 C 3.570312 -0.503906 3.175781 -1.007812 2.96875 -1.65625 C 2.757812 -2.300781 2.65625 -3.140625 2.65625 -4.171875 L 2.65625 -14.828125 L 0.5625 -14.828125 L 0.5625 -17 L 2.65625 -17 L 2.65625 -21.234375 L 5.546875 -22.96875 Z M 5.546875 -17"/></g></g></g><g fill-opacity="1" fill="#ff00ff"><g transform="translate(86.314558, 196.919303)"><g><path d="M 9.21875 -17.390625 C 10.863281 -17.390625 12.269531 -17 13.4375 -16.21875 C 14.601562 -15.445312 15.484375 -14.40625 16.078125 -13.09375 C 16.671875 -11.78125 16.96875 -10.316406 16.96875 -8.703125 L 16.96875 -7.78125 L 4.265625 -7.78125 C 4.347656 -5.957031 4.859375 -4.535156 5.796875 -3.515625 C 6.742188 -2.503906 7.953125 -2 9.421875 -2 C 10.535156 -2 11.457031 -2.296875 12.1875 -2.890625 C 12.925781 -3.484375 13.488281 -4.347656 13.875 -5.484375 L 16.859375 -5.125 C 16.398438 -3.414062 15.53125 -2.070312 14.25 -1.09375 C 12.976562 -0.125 11.410156 0.359375 9.546875 0.359375 C 6.941406 0.359375 4.910156 -0.40625 3.453125 -1.9375 C 2.003906 -3.46875 1.28125 -5.613281 1.28125 -8.375 C 1.28125 -10.207031 1.609375 -11.800781 2.265625 -13.15625 C 2.921875 -14.507812 3.84375 -15.550781 5.03125 -16.28125 C 6.226562 -17.019531 7.625 -17.390625 9.21875 -17.390625 Z M 4.4375 -10.171875 L 13.90625 -10.171875 C 13.84375 -11.785156 13.347656 -13 12.421875 -13.8125 C 11.492188 -14.625 10.425781 -15.03125 9.21875 -15.03125 C 7.863281 -15.03125 6.753906 -14.566406 5.890625 -13.640625 C 5.023438 -12.722656 4.539062 -11.566406 4.4375 -10.171875 Z M 4.4375 -10.171875"/></g></g></g><g fill-opacity="1" fill="#ff00ff"><g transform="translate(104.560243, 196.919303)"><g><path d="M 8.4375 -17.390625 C 9.414062 -17.390625 10.390625 -17.082031 11.359375 -16.46875 L 10.375 -13.8125 C 9.664062 -14.226562 8.929688 -14.4375 8.171875 -14.4375 C 7.078125 -14.4375 6.269531 -13.9375 5.75 -12.9375 C 5.238281 -11.945312 4.984375 -10.664062 4.984375 -9.09375 L 4.984375 0 L 2.09375 0 L 2.09375 -17 L 4.6875 -17 L 4.6875 -14.4375 C 5.238281 -15.425781 5.78125 -16.164062 6.3125 -16.65625 C 6.851562 -17.144531 7.5625 -17.390625 8.4375 -17.390625 Z M 8.4375 -17.390625"/></g></g></g><g fill-opacity="1" fill="#ff00ff"><g transform="translate(115.48797, 196.919303)"><g/></g></g><g fill-opacity="1" fill="#ff00ff"><g transform="translate(124.610819, 196.919303)"><g><path d="M 5.546875 -17 L 8.4375 -17 L 8.4375 -14.828125 L 5.546875 -14.828125 L 5.546875 -4.296875 C 5.546875 -3.554688 5.648438 -3.03125 5.859375 -2.71875 C 6.066406 -2.414062 6.5 -2.265625 7.15625 -2.265625 C 7.3125 -2.265625 7.738281 -2.316406 8.4375 -2.421875 L 8.859375 0.125 C 7.984375 0.300781 7.273438 0.390625 6.734375 0.390625 C 5.609375 0.390625 4.75 0.210938 4.15625 -0.140625 C 3.570312 -0.503906 3.175781 -1.007812 2.96875 -1.65625 C 2.757812 -2.300781 2.65625 -3.140625 2.65625 -4.171875 L 2.65625 -14.828125 L 0.5625 -14.828125 L 0.5625 -17 L 2.65625 -17 L 2.65625 -21.234375 L 5.546875 -22.96875 Z M 5.546875 -17"/></g></g></g><g fill-opacity="1" fill="#ff00ff"><g transform="translate(133.733668, 196.919303)"><g><path d="M 5.09375 -15.0625 C 5.75 -15.820312 6.488281 -16.398438 7.3125 -16.796875 C 8.144531 -17.191406 9.109375 -17.390625 10.203125 -17.390625 C 11.117188 -17.390625 11.945312 -17.242188 12.6875 -16.953125 C 13.4375 -16.671875 14.0625 -16.289062 14.5625 -15.8125 C 15.09375 -15.3125 15.476562 -14.675781 15.71875 -13.90625 C 15.957031 -13.144531 16.078125 -12.160156 16.078125 -10.953125 L 16.078125 0 L 13.1875 0 L 13.1875 -10.890625 C 13.1875 -12.179688 12.878906 -13.171875 12.265625 -13.859375 C 11.660156 -14.546875 10.753906 -14.890625 9.546875 -14.890625 C 8.671875 -14.890625 7.835938 -14.644531 7.046875 -14.15625 C 6.265625 -13.664062 5.722656 -12.984375 5.421875 -12.109375 C 5.203125 -11.453125 5.09375 -10.609375 5.09375 -9.578125 L 5.09375 0 L 2.203125 0 L 2.203125 -23.5 L 5.09375 -23.5 Z M 5.09375 -15.0625"/></g></g></g><g fill-opacity="1" fill="#ff00ff"><g transform="translate(151.979353, 196.919303)"><g><path d="M 9.21875 -17.390625 C 10.863281 -17.390625 12.269531 -17 13.4375 -16.21875 C 14.601562 -15.445312 15.484375 -14.40625 16.078125 -13.09375 C 16.671875 -11.78125 16.96875 -10.316406 16.96875 -8.703125 L 16.96875 -7.78125 L 4.265625 -7.78125 C 4.347656 -5.957031 4.859375 -4.535156 5.796875 -3.515625 C 6.742188 -2.503906 7.953125 -2 9.421875 -2 C 10.535156 -2 11.457031 -2.296875 12.1875 -2.890625 C 12.925781 -3.484375 13.488281 -4.347656 13.875 -5.484375 L 16.859375 -5.125 C 16.398438 -3.414062 15.53125 -2.070312 14.25 -1.09375 C 12.976562 -0.125 11.410156 0.359375 9.546875 0.359375 C 6.941406 0.359375 4.910156 -0.40625 3.453125 -1.9375 C 2.003906 -3.46875 1.28125 -5.613281 1.28125 -8.375 C 1.28125 -10.207031 1.609375 -11.800781 2.265625 -13.15625 C 2.921875 -14.507812 3.84375 -15.550781 5.03125 -16.28125 C 6.226562 -17.019531 7.625 -17.390625 9.21875 -17.390625 Z M 4.4375 -10.171875 L 13.90625 -10.171875 C 13.84375 -11.785156 13.347656 -13 12.421875 -13.8125 C 11.492188 -14.625 10.425781 -15.03125 9.21875 -15.03125 C 7.863281 -15.03125 6.753906 -14.566406 5.890625 -13.640625 C 5.023438 -12.722656 4.539062 -11.566406 4.4375 -10.171875 Z M 4.4375 -10.171875"/></g></g></g><g fill-opacity="1" fill="#ff00ff"><g transform="translate(170.225039, 196.919303)"><g/></g></g><g fill-opacity="1" fill="#ff00ff"><g transform="translate(179.347888, 196.919303)"><g><path d="M 5.703125 -9.609375 C 5.703125 -7.597656 5.921875 -6.144531 6.359375 -5.25 C 6.773438 -4.394531 7.421875 -3.703125 8.296875 -3.171875 C 9.171875 -2.648438 10.300781 -2.390625 11.6875 -2.390625 C 13.582031 -2.390625 14.988281 -2.765625 15.90625 -3.515625 C 16.832031 -4.273438 17.40625 -5.140625 17.625 -6.109375 C 17.84375 -7.085938 17.953125 -8.242188 17.953125 -9.578125 L 17.953125 -23.5 L 21.0625 -23.5 L 21.0625 -9.640625 C 21.0625 -8.460938 20.988281 -7.320312 20.84375 -6.21875 C 20.707031 -5.113281 20.300781 -4.066406 19.625 -3.078125 C 18.875 -2.015625 17.882812 -1.171875 16.65625 -0.546875 C 15.4375 0.078125 13.832031 0.390625 11.84375 0.390625 C 9.914062 0.390625 8.351562 0.109375 7.15625 -0.453125 C 5.96875 -1.023438 4.984375 -1.816406 4.203125 -2.828125 C 3.503906 -3.703125 3.0625 -4.726562 2.875 -5.90625 C 2.6875 -7.082031 2.59375 -8.316406 2.59375 -9.609375 L 2.59375 -23.5 L 5.703125 -23.5 Z M 5.703125 -9.609375"/></g></g></g><g fill-opacity="1" fill="#ff00ff"><g transform="translate(203.041031, 196.919303)"><g><path d="M 10.234375 -17.390625 C 11.460938 -17.390625 12.519531 -17.148438 13.40625 -16.671875 C 14.289062 -16.191406 14.941406 -15.578125 15.359375 -14.828125 C 15.617188 -14.328125 15.800781 -13.785156 15.90625 -13.203125 C 16.019531 -12.628906 16.078125 -11.90625 16.078125 -11.03125 L 16.078125 0 L 13.1875 0 L 13.1875 -10.5 C 13.1875 -13.425781 11.992188 -14.890625 9.609375 -14.890625 C 8.710938 -14.890625 7.882812 -14.671875 7.125 -14.234375 C 6.375 -13.796875 5.835938 -13.164062 5.515625 -12.34375 C 5.253906 -11.632812 5.125 -10.691406 5.125 -9.515625 L 5.125 0 L 2.234375 0 L 2.234375 -17 L 4.828125 -17 L 4.828125 -14.609375 C 6.117188 -16.460938 7.921875 -17.390625 10.234375 -17.390625 Z M 10.234375 -17.390625"/></g></g></g><g fill-opacity="1" fill="#ff00ff"><g transform="translate(221.286716, 196.919303)"><g><path d="M 5.09375 -20.21875 L 2.203125 -20.21875 L 2.203125 -23.5 L 5.09375 -23.5 Z M 5.09375 0 L 2.203125 0 L 2.203125 -17 L 5.09375 -17 Z M 5.09375 0"/></g></g></g><g fill-opacity="1" fill="#ff00ff"><g transform="translate(228.571864, 196.919303)"><g><path d="M 7.25 -7.640625 C 7.625 -5.960938 7.929688 -4.507812 8.171875 -3.28125 L 8.375 -4.109375 C 8.78125 -5.859375 9.070312 -7.070312 9.25 -7.75 L 13.6875 -23.5 L 17.421875 -23.5 L 20.734375 -11.8125 C 21.566406 -8.882812 22.203125 -6.039062 22.640625 -3.28125 C 23.015625 -5.144531 23.382812 -6.816406 23.75 -8.296875 L 27.46875 -23.5 L 30.578125 -23.5 L 24.15625 0 L 21.171875 0 L 16.109375 -18.171875 C 15.804688 -19.203125 15.585938 -20.035156 15.453125 -20.671875 C 15.347656 -20.316406 15.226562 -19.8125 15.09375 -19.15625 L 14.734375 -17.75 L 9.8125 0 L 6.625 0 L 0.390625 -23.5 L 3.578125 -23.5 Z M 7.25 -7.640625"/></g></g></g><g fill-opacity="1" fill="#ff00ff"><g transform="translate(257.876544, 196.919303)"><g><path d="M 9.125 -17.390625 C 10.414062 -17.390625 11.664062 -17.101562 12.875 -16.53125 C 14.09375 -15.96875 15.097656 -15.023438 15.890625 -13.703125 C 16.691406 -12.378906 17.09375 -10.644531 17.09375 -8.5 C 17.09375 -6.59375 16.753906 -4.976562 16.078125 -3.65625 C 15.398438 -2.332031 14.457031 -1.332031 13.25 -0.65625 C 12.050781 0.0195312 10.675781 0.359375 9.125 0.359375 C 6.84375 0.359375 4.984375 -0.347656 3.546875 -1.765625 C 1.953125 -3.328125 1.15625 -5.570312 1.15625 -8.5 C 1.15625 -10.40625 1.492188 -12.023438 2.171875 -13.359375 C 2.847656 -14.691406 3.785156 -15.695312 4.984375 -16.375 C 6.191406 -17.050781 7.570312 -17.390625 9.125 -17.390625 Z M 4.109375 -8.5 C 4.109375 -6.445312 4.5625 -4.847656 5.46875 -3.703125 C 6.375 -2.566406 7.59375 -2 9.125 -2 C 10.632812 -2 11.847656 -2.5625 12.765625 -3.6875 C 13.679688 -4.8125 14.140625 -6.414062 14.140625 -8.5 C 14.140625 -10.507812 13.691406 -12.097656 12.796875 -13.265625 C 11.898438 -14.441406 10.664062 -15.03125 9.09375 -15.03125 C 7.601562 -15.03125 6.398438 -14.453125 5.484375 -13.296875 C 4.566406 -12.148438 4.109375 -10.550781 4.109375 -8.5 Z M 4.109375 -8.5"/></g></g></g><g fill-opacity="1" fill="#ff00ff"><g transform="translate(276.122217, 196.919303)"><g><path d="M 8.4375 -17.390625 C 9.414062 -17.390625 10.390625 -17.082031 11.359375 -16.46875 L 10.375 -13.8125 C 9.664062 -14.226562 8.929688 -14.4375 8.171875 -14.4375 C 7.078125 -14.4375 6.269531 -13.9375 5.75 -12.9375 C 5.238281 -11.945312 4.984375 -10.664062 4.984375 -9.09375 L 4.984375 0 L 2.09375 0 L 2.09375 -17 L 4.6875 -17 L 4.6875 -14.4375 C 5.238281 -15.425781 5.78125 -16.164062 6.3125 -16.65625 C 6.851562 -17.144531 7.5625 -17.390625 8.4375 -17.390625 Z M 8.4375 -17.390625"/></g></g></g><g fill-opacity="1" fill="#ff00ff"><g transform="translate(287.378087, 196.919303)"><g><path d="M 5.09375 0 L 2.203125 0 L 2.203125 -23.5 L 5.09375 -23.5 Z M 5.09375 0"/></g></g></g><g fill-opacity="1" fill="#ff00ff"><g transform="translate(294.663247, 196.919303)"><g><path d="M 15.953125 -23.5 L 15.953125 0 L 13.25 0 L 13.25 -2.171875 C 12.925781 -1.597656 12.375 -1.03125 11.59375 -0.46875 C 10.820312 0.0820312 9.800781 0.359375 8.53125 0.359375 C 7.15625 0.359375 5.910156 -0.00390625 4.796875 -0.734375 C 3.679688 -1.472656 2.800781 -2.519531 2.15625 -3.875 C 1.507812 -5.226562 1.1875 -6.800781 1.1875 -8.59375 C 1.1875 -10.382812 1.484375 -11.941406 2.078125 -13.265625 C 2.679688 -14.597656 3.535156 -15.617188 4.640625 -16.328125 C 5.742188 -17.035156 7.03125 -17.390625 8.5 -17.390625 C 9.570312 -17.390625 10.503906 -17.132812 11.296875 -16.625 C 12.097656 -16.125 12.6875 -15.601562 13.0625 -15.0625 L 13.0625 -23.5 Z M 4.140625 -8.5 C 4.140625 -7.101562 4.34375 -5.914062 4.75 -4.9375 C 5.164062 -3.96875 5.726562 -3.234375 6.4375 -2.734375 C 7.15625 -2.242188 7.941406 -2 8.796875 -2 C 10.128906 -2 11.21875 -2.535156 12.0625 -3.609375 C 12.90625 -4.679688 13.328125 -6.222656 13.328125 -8.234375 C 13.328125 -10.296875 12.921875 -11.941406 12.109375 -13.171875 C 11.296875 -14.410156 10.144531 -15.03125 8.65625 -15.03125 C 7.238281 -15.03125 6.128906 -14.445312 5.328125 -13.28125 C 4.535156 -12.125 4.140625 -10.53125 4.140625 -8.5 Z M 4.140625 -8.5"/></g></g></g><g fill-opacity="1" fill="#ff00ff"><g transform="translate(312.908944, 196.919303)"><g><path d="M 7.8125 -17.390625 C 9.738281 -17.390625 11.289062 -16.988281 12.46875 -16.1875 C 13.644531 -15.394531 14.320312 -14.210938 14.5 -12.640625 L 11.6875 -12.234375 C 11.550781 -13.085938 11.1875 -13.765625 10.59375 -14.265625 C 10.007812 -14.773438 9.132812 -15.03125 7.96875 -15.03125 C 6.8125 -15.03125 5.910156 -14.832031 5.265625 -14.4375 C 4.617188 -14.039062 4.296875 -13.492188 4.296875 -12.796875 C 4.296875 -12.316406 4.488281 -11.914062 4.875 -11.59375 C 5.257812 -11.28125 5.710938 -11.039062 6.234375 -10.875 C 6.753906 -10.707031 7.550781 -10.492188 8.625 -10.234375 C 10.007812 -9.910156 11.132812 -9.582031 12 -9.25 C 12.863281 -8.925781 13.601562 -8.425781 14.21875 -7.75 C 14.84375 -7.070312 15.15625 -6.160156 15.15625 -5.015625 C 15.15625 -4.035156 14.878906 -3.132812 14.328125 -2.3125 C 13.785156 -1.488281 13.003906 -0.835938 11.984375 -0.359375 C 10.972656 0.117188 9.8125 0.359375 8.5 0.359375 C 6.226562 0.359375 4.488281 -0.0859375 3.28125 -0.984375 C 2.082031 -1.878906 1.328125 -3.25 1.015625 -5.09375 L 3.875 -5.515625 C 4.03125 -4.359375 4.492188 -3.484375 5.265625 -2.890625 C 6.046875 -2.296875 7.046875 -2 8.265625 -2 C 9.515625 -2 10.484375 -2.253906 11.171875 -2.765625 C 11.859375 -3.285156 12.203125 -3.925781 12.203125 -4.6875 C 12.203125 -5.414062 11.859375 -5.953125 11.171875 -6.296875 C 10.484375 -6.648438 9.425781 -6.988281 8 -7.3125 C 6.601562 -7.644531 5.484375 -7.96875 4.640625 -8.28125 C 3.796875 -8.601562 3.0625 -9.101562 2.4375 -9.78125 C 1.820312 -10.457031 1.515625 -11.363281 1.515625 -12.5 C 1.515625 -13.414062 1.757812 -14.242188 2.25 -14.984375 C 2.738281 -15.734375 3.457031 -16.320312 4.40625 -16.75 C 5.363281 -17.175781 6.5 -17.390625 7.8125 -17.390625 Z M 7.8125 -17.390625"/></g></g><g transform="translate(329.316953, 196.919303)"><g><path d="M 6.359375 -18.28125 L 5.546875 -5.84375 L 3.671875 -5.84375 L 2.796875 -18.28125 L 2.796875 -23.5 L 6.359375 -23.5 Z M 6.234375 0 L 2.953125 0 L 2.953125 -3.28125 L 6.234375 -3.28125 Z M 6.234375 0"/></g></g></g><g fill-opacity="1" fill="#00ffff"><g transform="translate(36.557851, 192.847886)"><g><path d="M 19.59375 -20.734375 L 5.703125 -20.734375 L 5.703125 -13.515625 L 18.703125 -13.515625 L 18.703125 -10.765625 L 5.703125 -10.765625 L 5.703125 -2.75 L 20.109375 -2.75 L 20.109375 0 L 2.59375 0 L 2.59375 -23.5 L 19.59375 -23.5 Z M 19.59375 -20.734375"/></g></g></g><g fill-opacity="1" fill="#00ffff"><g transform="translate(58.446116, 192.847886)"><g><path d="M 10.234375 -17.390625 C 11.460938 -17.390625 12.519531 -17.148438 13.40625 -16.671875 C 14.289062 -16.191406 14.941406 -15.578125 15.359375 -14.828125 C 15.617188 -14.328125 15.800781 -13.785156 15.90625 -13.203125 C 16.019531 -12.628906 16.078125 -11.90625 16.078125 -11.03125 L 16.078125 0 L 13.1875 0 L 13.1875 -10.5 C 13.1875 -13.425781 11.992188 -14.890625 9.609375 -14.890625 C 8.710938 -14.890625 7.882812 -14.671875 7.125 -14.234375 C 6.375 -13.796875 5.835938 -13.164062 5.515625 -12.34375 C 5.253906 -11.632812 5.125 -10.691406 5.125 -9.515625 L 5.125 0 L 2.234375 0 L 2.234375 -17 L 4.828125 -17 L 4.828125 -14.609375 C 6.117188 -16.460938 7.921875 -17.390625 10.234375 -17.390625 Z M 10.234375 -17.390625"/></g></g></g><g fill-opacity="1" fill="#00ffff"><g transform="translate(76.691801, 192.847886)"><g><path d="M 5.546875 -17 L 8.4375 -17 L 8.4375 -14.828125 L 5.546875 -14.828125 L 5.546875 -4.296875 C 5.546875 -3.554688 5.648438 -3.03125 5.859375 -2.71875 C 6.066406 -2.414062 6.5 -2.265625 7.15625 -2.265625 C 7.3125 -2.265625 7.738281 -2.316406 8.4375 -2.421875 L 8.859375 0.125 C 7.984375 0.300781 7.273438 0.390625 6.734375 0.390625 C 5.609375 0.390625 4.75 0.210938 4.15625 -0.140625 C 3.570312 -0.503906 3.175781 -1.007812 2.96875 -1.65625 C 2.757812 -2.300781 2.65625 -3.140625 2.65625 -4.171875 L 2.65625 -14.828125 L 0.5625 -14.828125 L 0.5625 -17 L 2.65625 -17 L 2.65625 -21.234375 L 5.546875 -22.96875 Z M 5.546875 -17"/></g></g></g><g fill-opacity="1" fill="#00ffff"><g transform="translate(85.81465, 192.847886)"><g><path d="M 9.21875 -17.390625 C 10.863281 -17.390625 12.269531 -17 13.4375 -16.21875 C 14.601562 -15.445312 15.484375 -14.40625 16.078125 -13.09375 C 16.671875 -11.78125 16.96875 -10.316406 16.96875 -8.703125 L 16.96875 -7.78125 L 4.265625 -7.78125 C 4.347656 -5.957031 4.859375 -4.535156 5.796875 -3.515625 C 6.742188 -2.503906 7.953125 -2 9.421875 -2 C 10.535156 -2 11.457031 -2.296875 12.1875 -2.890625 C 12.925781 -3.484375 13.488281 -4.347656 13.875 -5.484375 L 16.859375 -5.125 C 16.398438 -3.414062 15.53125 -2.070312 14.25 -1.09375 C 12.976562 -0.125 11.410156 0.359375 9.546875 0.359375 C 6.941406 0.359375 4.910156 -0.40625 3.453125 -1.9375 C 2.003906 -3.46875 1.28125 -5.613281 1.28125 -8.375 C 1.28125 -10.207031 1.609375 -11.800781 2.265625 -13.15625 C 2.921875 -14.507812 3.84375 -15.550781 5.03125 -16.28125 C 6.226562 -17.019531 7.625 -17.390625 9.21875 -17.390625 Z M 4.4375 -10.171875 L 13.90625 -10.171875 C 13.84375 -11.785156 13.347656 -13 12.421875 -13.8125 C 11.492188 -14.625 10.425781 -15.03125 9.21875 -15.03125 C 7.863281 -15.03125 6.753906 -14.566406 5.890625 -13.640625 C 5.023438 -12.722656 4.539062 -11.566406 4.4375 -10.171875 Z M 4.4375 -10.171875"/></g></g></g><g fill-opacity="1" fill="#00ffff"><g transform="translate(104.060336, 192.847886)"><g><path d="M 8.4375 -17.390625 C 9.414062 -17.390625 10.390625 -17.082031 11.359375 -16.46875 L 10.375 -13.8125 C 9.664062 -14.226562 8.929688 -14.4375 8.171875 -14.4375 C 7.078125 -14.4375 6.269531 -13.9375 5.75 -12.9375 C 5.238281 -11.945312 4.984375 -10.664062 4.984375 -9.09375 L 4.984375 0 L 2.09375 0 L 2.09375 -17 L 4.6875 -17 L 4.6875 -14.4375 C 5.238281 -15.425781 5.78125 -16.164062 6.3125 -16.65625 C 6.851562 -17.144531 7.5625 -17.390625 8.4375 -17.390625 Z M 8.4375 -17.390625"/></g></g></g><g fill-opacity="1" fill="#00ffff"><g transform="translate(114.988063, 192.847886)"><g/></g></g><g fill-opacity="1" fill="#00ffff"><g transform="translate(124.110912, 192.847886)"><g><path d="M 5.546875 -17 L 8.4375 -17 L 8.4375 -14.828125 L 5.546875 -14.828125 L 5.546875 -4.296875 C 5.546875 -3.554688 5.648438 -3.03125 5.859375 -2.71875 C 6.066406 -2.414062 6.5 -2.265625 7.15625 -2.265625 C 7.3125 -2.265625 7.738281 -2.316406 8.4375 -2.421875 L 8.859375 0.125 C 7.984375 0.300781 7.273438 0.390625 6.734375 0.390625 C 5.609375 0.390625 4.75 0.210938 4.15625 -0.140625 C 3.570312 -0.503906 3.175781 -1.007812 2.96875 -1.65625 C 2.757812 -2.300781 2.65625 -3.140625 2.65625 -4.171875 L 2.65625 -14.828125 L 0.5625 -14.828125 L 0.5625 -17 L 2.65625 -17 L 2.65625 -21.234375 L 5.546875 -22.96875 Z M 5.546875 -17"/></g></g></g><g fill-opacity="1" fill="#00ffff"><g transform="translate(133.233761, 192.847886)"><g><path d="M 5.09375 -15.0625 C 5.75 -15.820312 6.488281 -16.398438 7.3125 -16.796875 C 8.144531 -17.191406 9.109375 -17.390625 10.203125 -17.390625 C 11.117188 -17.390625 11.945312 -17.242188 12.6875 -16.953125 C 13.4375 -16.671875 14.0625 -16.289062 14.5625 -15.8125 C 15.09375 -15.3125 15.476562 -14.675781 15.71875 -13.90625 C 15.957031 -13.144531 16.078125 -12.160156 16.078125 -10.953125 L 16.078125 0 L 13.1875 0 L 13.1875 -10.890625 C 13.1875 -12.179688 12.878906 -13.171875 12.265625 -13.859375 C 11.660156 -14.546875 10.753906 -14.890625 9.546875 -14.890625 C 8.671875 -14.890625 7.835938 -14.644531 7.046875 -14.15625 C 6.265625 -13.664062 5.722656 -12.984375 5.421875 -12.109375 C 5.203125 -11.453125 5.09375 -10.609375 5.09375 -9.578125 L 5.09375 0 L 2.203125 0 L 2.203125 -23.5 L 5.09375 -23.5 Z M 5.09375 -15.0625"/></g></g></g><g fill-opacity="1" fill="#00ffff"><g transform="translate(151.479446, 192.847886)"><g><path d="M 9.21875 -17.390625 C 10.863281 -17.390625 12.269531 -17 13.4375 -16.21875 C 14.601562 -15.445312 15.484375 -14.40625 16.078125 -13.09375 C 16.671875 -11.78125 16.96875 -10.316406 16.96875 -8.703125 L 16.96875 -7.78125 L 4.265625 -7.78125 C 4.347656 -5.957031 4.859375 -4.535156 5.796875 -3.515625 C 6.742188 -2.503906 7.953125 -2 9.421875 -2 C 10.535156 -2 11.457031 -2.296875 12.1875 -2.890625 C 12.925781 -3.484375 13.488281 -4.347656 13.875 -5.484375 L 16.859375 -5.125 C 16.398438 -3.414062 15.53125 -2.070312 14.25 -1.09375 C 12.976562 -0.125 11.410156 0.359375 9.546875 0.359375 C 6.941406 0.359375 4.910156 -0.40625 3.453125 -1.9375 C 2.003906 -3.46875 1.28125 -5.613281 1.28125 -8.375 C 1.28125 -10.207031 1.609375 -11.800781 2.265625 -13.15625 C 2.921875 -14.507812 3.84375 -15.550781 5.03125 -16.28125 C 6.226562 -17.019531 7.625 -17.390625 9.21875 -17.390625 Z M 4.4375 -10.171875 L 13.90625 -10.171875 C 13.84375 -11.785156 13.347656 -13 12.421875 -13.8125 C 11.492188 -14.625 10.425781 -15.03125 9.21875 -15.03125 C 7.863281 -15.03125 6.753906 -14.566406 5.890625 -13.640625 C 5.023438 -12.722656 4.539062 -11.566406 4.4375 -10.171875 Z M 4.4375 -10.171875"/></g></g></g><g fill-opacity="1" fill="#00ffff"><g transform="translate(169.725131, 192.847886)"><g/></g></g><g fill-opacity="1" fill="#00ffff"><g transform="translate(178.84798, 192.847886)"><g><path d="M 5.703125 -9.609375 C 5.703125 -7.597656 5.921875 -6.144531 6.359375 -5.25 C 6.773438 -4.394531 7.421875 -3.703125 8.296875 -3.171875 C 9.171875 -2.648438 10.300781 -2.390625 11.6875 -2.390625 C 13.582031 -2.390625 14.988281 -2.765625 15.90625 -3.515625 C 16.832031 -4.273438 17.40625 -5.140625 17.625 -6.109375 C 17.84375 -7.085938 17.953125 -8.242188 17.953125 -9.578125 L 17.953125 -23.5 L 21.0625 -23.5 L 21.0625 -9.640625 C 21.0625 -8.460938 20.988281 -7.320312 20.84375 -6.21875 C 20.707031 -5.113281 20.300781 -4.066406 19.625 -3.078125 C 18.875 -2.015625 17.882812 -1.171875 16.65625 -0.546875 C 15.4375 0.078125 13.832031 0.390625 11.84375 0.390625 C 9.914062 0.390625 8.351562 0.109375 7.15625 -0.453125 C 5.96875 -1.023438 4.984375 -1.816406 4.203125 -2.828125 C 3.503906 -3.703125 3.0625 -4.726562 2.875 -5.90625 C 2.6875 -7.082031 2.59375 -8.316406 2.59375 -9.609375 L 2.59375 -23.5 L 5.703125 -23.5 Z M 5.703125 -9.609375"/></g></g></g><g fill-opacity="1" fill="#00ffff"><g transform="translate(202.541124, 192.847886)"><g><path d="M 10.234375 -17.390625 C 11.460938 -17.390625 12.519531 -17.148438 13.40625 -16.671875 C 14.289062 -16.191406 14.941406 -15.578125 15.359375 -14.828125 C 15.617188 -14.328125 15.800781 -13.785156 15.90625 -13.203125 C 16.019531 -12.628906 16.078125 -11.90625 16.078125 -11.03125 L 16.078125 0 L 13.1875 0 L 13.1875 -10.5 C 13.1875 -13.425781 11.992188 -14.890625 9.609375 -14.890625 C 8.710938 -14.890625 7.882812 -14.671875 7.125 -14.234375 C 6.375 -13.796875 5.835938 -13.164062 5.515625 -12.34375 C 5.253906 -11.632812 5.125 -10.691406 5.125 -9.515625 L 5.125 0 L 2.234375 0 L 2.234375 -17 L 4.828125 -17 L 4.828125 -14.609375 C 6.117188 -16.460938 7.921875 -17.390625 10.234375 -17.390625 Z M 10.234375 -17.390625"/></g></g></g><g fill-opacity="1" fill="#00ffff"><g transform="translate(220.786809, 192.847886)"><g><path d="M 5.09375 -20.21875 L 2.203125 -20.21875 L 2.203125 -23.5 L 5.09375 -23.5 Z M 5.09375 0 L 2.203125 0 L 2.203125 -17 L 5.09375 -17 Z M 5.09375 0"/></g></g></g><g fill-opacity="1" fill="#00ffff"><g transform="translate(228.071957, 192.847886)"><g><path d="M 7.25 -7.640625 C 7.625 -5.960938 7.929688 -4.507812 8.171875 -3.28125 L 8.375 -4.109375 C 8.78125 -5.859375 9.070312 -7.070312 9.25 -7.75 L 13.6875 -23.5 L 17.421875 -23.5 L 20.734375 -11.8125 C 21.566406 -8.882812 22.203125 -6.039062 22.640625 -3.28125 C 23.015625 -5.144531 23.382812 -6.816406 23.75 -8.296875 L 27.46875 -23.5 L 30.578125 -23.5 L 24.15625 0 L 21.171875 0 L 16.109375 -18.171875 C 15.804688 -19.203125 15.585938 -20.035156 15.453125 -20.671875 C 15.347656 -20.316406 15.226562 -19.8125 15.09375 -19.15625 L 14.734375 -17.75 L 9.8125 0 L 6.625 0 L 0.390625 -23.5 L 3.578125 -23.5 Z M 7.25 -7.640625"/></g></g></g><g fill-opacity="1" fill="#00ffff"><g transform="translate(257.376637, 192.847886)"><g><path d="M 9.125 -17.390625 C 10.414062 -17.390625 11.664062 -17.101562 12.875 -16.53125 C 14.09375 -15.96875 15.097656 -15.023438 15.890625 -13.703125 C 16.691406 -12.378906 17.09375 -10.644531 17.09375 -8.5 C 17.09375 -6.59375 16.753906 -4.976562 16.078125 -3.65625 C 15.398438 -2.332031 14.457031 -1.332031 13.25 -0.65625 C 12.050781 0.0195312 10.675781 0.359375 9.125 0.359375 C 6.84375 0.359375 4.984375 -0.347656 3.546875 -1.765625 C 1.953125 -3.328125 1.15625 -5.570312 1.15625 -8.5 C 1.15625 -10.40625 1.492188 -12.023438 2.171875 -13.359375 C 2.847656 -14.691406 3.785156 -15.695312 4.984375 -16.375 C 6.191406 -17.050781 7.570312 -17.390625 9.125 -17.390625 Z M 4.109375 -8.5 C 4.109375 -6.445312 4.5625 -4.847656 5.46875 -3.703125 C 6.375 -2.566406 7.59375 -2 9.125 -2 C 10.632812 -2 11.847656 -2.5625 12.765625 -3.6875 C 13.679688 -4.8125 14.140625 -6.414062 14.140625 -8.5 C 14.140625 -10.507812 13.691406 -12.097656 12.796875 -13.265625 C 11.898438 -14.441406 10.664062 -15.03125 9.09375 -15.03125 C 7.601562 -15.03125 6.398438 -14.453125 5.484375 -13.296875 C 4.566406 -12.148438 4.109375 -10.550781 4.109375 -8.5 Z M 4.109375 -8.5"/></g></g></g><g fill-opacity="1" fill="#00ffff"><g transform="translate(275.62231, 192.847886)"><g><path d="M 8.4375 -17.390625 C 9.414062 -17.390625 10.390625 -17.082031 11.359375 -16.46875 L 10.375 -13.8125 C 9.664062 -14.226562 8.929688 -14.4375 8.171875 -14.4375 C 7.078125 -14.4375 6.269531 -13.9375 5.75 -12.9375 C 5.238281 -11.945312 4.984375 -10.664062 4.984375 -9.09375 L 4.984375 0 L 2.09375 0 L 2.09375 -17 L 4.6875 -17 L 4.6875 -14.4375 C 5.238281 -15.425781 5.78125 -16.164062 6.3125 -16.65625 C 6.851562 -17.144531 7.5625 -17.390625 8.4375 -17.390625 Z M 8.4375 -17.390625"/></g></g></g><g fill-opacity="1" fill="#00ffff"><g transform="translate(286.87818, 192.847886)"><g><path d="M 5.09375 0 L 2.203125 0 L 2.203125 -23.5 L 5.09375 -23.5 Z M 5.09375 0"/></g></g></g><g fill-opacity="1" fill="#00ffff"><g transform="translate(294.163339, 192.847886)"><g><path d="M 15.953125 -23.5 L 15.953125 0 L 13.25 0 L 13.25 -2.171875 C 12.925781 -1.597656 12.375 -1.03125 11.59375 -0.46875 C 10.820312 0.0820312 9.800781 0.359375 8.53125 0.359375 C 7.15625 0.359375 5.910156 -0.00390625 4.796875 -0.734375 C 3.679688 -1.472656 2.800781 -2.519531 2.15625 -3.875 C 1.507812 -5.226562 1.1875 -6.800781 1.1875 -8.59375 C 1.1875 -10.382812 1.484375 -11.941406 2.078125 -13.265625 C 2.679688 -14.597656 3.535156 -15.617188 4.640625 -16.328125 C 5.742188 -17.035156 7.03125 -17.390625 8.5 -17.390625 C 9.570312 -17.390625 10.503906 -17.132812 11.296875 -16.625 C 12.097656 -16.125 12.6875 -15.601562 13.0625 -15.0625 L 13.0625 -23.5 Z M 4.140625 -8.5 C 4.140625 -7.101562 4.34375 -5.914062 4.75 -4.9375 C 5.164062 -3.96875 5.726562 -3.234375 6.4375 -2.734375 C 7.15625 -2.242188 7.941406 -2 8.796875 -2 C 10.128906 -2 11.21875 -2.535156 12.0625 -3.609375 C 12.90625 -4.679688 13.328125 -6.222656 13.328125 -8.234375 C 13.328125 -10.296875 12.921875 -11.941406 12.109375 -13.171875 C 11.296875 -14.410156 10.144531 -15.03125 8.65625 -15.03125 C 7.238281 -15.03125 6.128906 -14.445312 5.328125 -13.28125 C 4.535156 -12.125 4.140625 -10.53125 4.140625 -8.5 Z M 4.140625 -8.5"/></g></g></g><g fill-opacity="1" fill="#00ffff"><g transform="translate(312.409037, 192.847886)"><g><path d="M 7.8125 -17.390625 C 9.738281 -17.390625 11.289062 -16.988281 12.46875 -16.1875 C 13.644531 -15.394531 14.320312 -14.210938 14.5 -12.640625 L 11.6875 -12.234375 C 11.550781 -13.085938 11.1875 -13.765625 10.59375 -14.265625 C 10.007812 -14.773438 9.132812 -15.03125 7.96875 -15.03125 C 6.8125 -15.03125 5.910156 -14.832031 5.265625 -14.4375 C 4.617188 -14.039062 4.296875 -13.492188 4.296875 -12.796875 C 4.296875 -12.316406 4.488281 -11.914062 4.875 -11.59375 C 5.257812 -11.28125 5.710938 -11.039062 6.234375 -10.875 C 6.753906 -10.707031 7.550781 -10.492188 8.625 -10.234375 C 10.007812 -9.910156 11.132812 -9.582031 12 -9.25 C 12.863281 -8.925781 13.601562 -8.425781 14.21875 -7.75 C 14.84375 -7.070312 15.15625 -6.160156 15.15625 -5.015625 C 15.15625 -4.035156 14.878906 -3.132812 14.328125 -2.3125 C 13.785156 -1.488281 13.003906 -0.835938 11.984375 -0.359375 C 10.972656 0.117188 9.8125 0.359375 8.5 0.359375 C 6.226562 0.359375 4.488281 -0.0859375 3.28125 -0.984375 C 2.082031 -1.878906 1.328125 -3.25 1.015625 -5.09375 L 3.875 -5.515625 C 4.03125 -4.359375 4.492188 -3.484375 5.265625 -2.890625 C 6.046875 -2.296875 7.046875 -2 8.265625 -2 C 9.515625 -2 10.484375 -2.253906 11.171875 -2.765625 C 11.859375 -3.285156 12.203125 -3.925781 12.203125 -4.6875 C 12.203125 -5.414062 11.859375 -5.953125 11.171875 -6.296875 C 10.484375 -6.648438 9.425781 -6.988281 8 -7.3125 C 6.601562 -7.644531 5.484375 -7.96875 4.640625 -8.28125 C 3.796875 -8.601562 3.0625 -9.101562 2.4375 -9.78125 C 1.820312 -10.457031 1.515625 -11.363281 1.515625 -12.5 C 1.515625 -13.414062 1.757812 -14.242188 2.25 -14.984375 C 2.738281 -15.734375 3.457031 -16.320312 4.40625 -16.75 C 5.363281 -17.175781 6.5 -17.390625 7.8125 -17.390625 Z M 7.8125 -17.390625"/></g></g><g transform="translate(328.817046, 192.847886)"><g><path d="M 6.359375 -18.28125 L 5.546875 -5.84375 L 3.671875 -5.84375 L 2.796875 -18.28125 L 2.796875 -23.5 L 6.359375 -23.5 Z M 6.234375 0 L 2.953125 0 L 2.953125 -3.28125 L 6.234375 -3.28125 Z M 6.234375 0"/></g></g></g><g fill-opacity="1" fill="#ffffff"><g transform="translate(36.807805, 194.883594)"><g><path d="M 19.59375 -20.734375 L 5.703125 -20.734375 L 5.703125 -13.515625 L 18.703125 -13.515625 L 18.703125 -10.765625 L 5.703125 -10.765625 L 5.703125 -2.75 L 20.109375 -2.75 L 20.109375 0 L 2.59375 0 L 2.59375 -23.5 L 19.59375 -23.5 Z M 19.59375 -20.734375"/></g></g></g><g fill-opacity="1" fill="#ffffff"><g transform="translate(58.69607, 194.883594)"><g><path d="M 10.234375 -17.390625 C 11.460938 -17.390625 12.519531 -17.148438 13.40625 -16.671875 C 14.289062 -16.191406 14.941406 -15.578125 15.359375 -14.828125 C 15.617188 -14.328125 15.800781 -13.785156 15.90625 -13.203125 C 16.019531 -12.628906 16.078125 -11.90625 16.078125 -11.03125 L 16.078125 0 L 13.1875 0 L 13.1875 -10.5 C 13.1875 -13.425781 11.992188 -14.890625 9.609375 -14.890625 C 8.710938 -14.890625 7.882812 -14.671875 7.125 -14.234375 C 6.375 -13.796875 5.835938 -13.164062 5.515625 -12.34375 C 5.253906 -11.632812 5.125 -10.691406 5.125 -9.515625 L 5.125 0 L 2.234375 0 L 2.234375 -17 L 4.828125 -17 L 4.828125 -14.609375 C 6.117188 -16.460938 7.921875 -17.390625 10.234375 -17.390625 Z M 10.234375 -17.390625"/></g></g></g><g fill-opacity="1" fill="#ffffff"><g transform="translate(76.941755, 194.883594)"><g><path d="M 5.546875 -17 L 8.4375 -17 L 8.4375 -14.828125 L 5.546875 -14.828125 L 5.546875 -4.296875 C 5.546875 -3.554688 5.648438 -3.03125 5.859375 -2.71875 C 6.066406 -2.414062 6.5 -2.265625 7.15625 -2.265625 C 7.3125 -2.265625 7.738281 -2.316406 8.4375 -2.421875 L 8.859375 0.125 C 7.984375 0.300781 7.273438 0.390625 6.734375 0.390625 C 5.609375 0.390625 4.75 0.210938 4.15625 -0.140625 C 3.570312 -0.503906 3.175781 -1.007812 2.96875 -1.65625 C 2.757812 -2.300781 2.65625 -3.140625 2.65625 -4.171875 L 2.65625 -14.828125 L 0.5625 -14.828125 L 0.5625 -17 L 2.65625 -17 L 2.65625 -21.234375 L 5.546875 -22.96875 Z M 5.546875 -17"/></g></g></g><g fill-opacity="1" fill="#ffffff"><g transform="translate(86.064604, 194.883594)"><g><path d="M 9.21875 -17.390625 C 10.863281 -17.390625 12.269531 -17 13.4375 -16.21875 C 14.601562 -15.445312 15.484375 -14.40625 16.078125 -13.09375 C 16.671875 -11.78125 16.96875 -10.316406 16.96875 -8.703125 L 16.96875 -7.78125 L 4.265625 -7.78125 C 4.347656 -5.957031 4.859375 -4.535156 5.796875 -3.515625 C 6.742188 -2.503906 7.953125 -2 9.421875 -2 C 10.535156 -2 11.457031 -2.296875 12.1875 -2.890625 C 12.925781 -3.484375 13.488281 -4.347656 13.875 -5.484375 L 16.859375 -5.125 C 16.398438 -3.414062 15.53125 -2.070312 14.25 -1.09375 C 12.976562 -0.125 11.410156 0.359375 9.546875 0.359375 C 6.941406 0.359375 4.910156 -0.40625 3.453125 -1.9375 C 2.003906 -3.46875 1.28125 -5.613281 1.28125 -8.375 C 1.28125 -10.207031 1.609375 -11.800781 2.265625 -13.15625 C 2.921875 -14.507812 3.84375 -15.550781 5.03125 -16.28125 C 6.226562 -17.019531 7.625 -17.390625 9.21875 -17.390625 Z M 4.4375 -10.171875 L 13.90625 -10.171875 C 13.84375 -11.785156 13.347656 -13 12.421875 -13.8125 C 11.492188 -14.625 10.425781 -15.03125 9.21875 -15.03125 C 7.863281 -15.03125 6.753906 -14.566406 5.890625 -13.640625 C 5.023438 -12.722656 4.539062 -11.566406 4.4375 -10.171875 Z M 4.4375 -10.171875"/></g></g></g><g fill-opacity="1" fill="#ffffff"><g transform="translate(104.310289, 194.883594)"><g><path d="M 8.4375 -17.390625 C 9.414062 -17.390625 10.390625 -17.082031 11.359375 -16.46875 L 10.375 -13.8125 C 9.664062 -14.226562 8.929688 -14.4375 8.171875 -14.4375 C 7.078125 -14.4375 6.269531 -13.9375 5.75 -12.9375 C 5.238281 -11.945312 4.984375 -10.664062 4.984375 -9.09375 L 4.984375 0 L 2.09375 0 L 2.09375 -17 L 4.6875 -17 L 4.6875 -14.4375 C 5.238281 -15.425781 5.78125 -16.164062 6.3125 -16.65625 C 6.851562 -17.144531 7.5625 -17.390625 8.4375 -17.390625 Z M 8.4375 -17.390625"/></g></g></g><g fill-opacity="1" fill="#ffffff"><g transform="translate(115.238017, 194.883594)"><g/></g></g><g fill-opacity="1" fill="#ffffff"><g transform="translate(124.360866, 194.883594)"><g><path d="M 5.546875 -17 L 8.4375 -17 L 8.4375 -14.828125 L 5.546875 -14.828125 L 5.546875 -4.296875 C 5.546875 -3.554688 5.648438 -3.03125 5.859375 -2.71875 C 6.066406 -2.414062 6.5 -2.265625 7.15625 -2.265625 C 7.3125 -2.265625 7.738281 -2.316406 8.4375 -2.421875 L 8.859375 0.125 C 7.984375 0.300781 7.273438 0.390625 6.734375 0.390625 C 5.609375 0.390625 4.75 0.210938 4.15625 -0.140625 C 3.570312 -0.503906 3.175781 -1.007812 2.96875 -1.65625 C 2.757812 -2.300781 2.65625 -3.140625 2.65625 -4.171875 L 2.65625 -14.828125 L 0.5625 -14.828125 L 0.5625 -17 L 2.65625 -17 L 2.65625 -21.234375 L 5.546875 -22.96875 Z M 5.546875 -17"/></g></g></g><g fill-opacity="1" fill="#ffffff"><g transform="translate(133.483715, 194.883594)"><g><path d="M 5.09375 -15.0625 C 5.75 -15.820312 6.488281 -16.398438 7.3125 -16.796875 C 8.144531 -17.191406 9.109375 -17.390625 10.203125 -17.390625 C 11.117188 -17.390625 11.945312 -17.242188 12.6875 -16.953125 C 13.4375 -16.671875 14.0625 -16.289062 14.5625 -15.8125 C 15.09375 -15.3125 15.476562 -14.675781 15.71875 -13.90625 C 15.957031 -13.144531 16.078125 -12.160156 16.078125 -10.953125 L 16.078125 0 L 13.1875 0 L 13.1875 -10.890625 C 13.1875 -12.179688 12.878906 -13.171875 12.265625 -13.859375 C 11.660156 -14.546875 10.753906 -14.890625 9.546875 -14.890625 C 8.671875 -14.890625 7.835938 -14.644531 7.046875 -14.15625 C 6.265625 -13.664062 5.722656 -12.984375 5.421875 -12.109375 C 5.203125 -11.453125 5.09375 -10.609375 5.09375 -9.578125 L 5.09375 0 L 2.203125 0 L 2.203125 -23.5 L 5.09375 -23.5 Z M 5.09375 -15.0625"/></g></g></g><g fill-opacity="1" fill="#ffffff"><g transform="translate(151.7294, 194.883594)"><g><path d="M 9.21875 -17.390625 C 10.863281 -17.390625 12.269531 -17 13.4375 -16.21875 C 14.601562 -15.445312 15.484375 -14.40625 16.078125 -13.09375 C 16.671875 -11.78125 16.96875 -10.316406 16.96875 -8.703125 L 16.96875 -7.78125 L 4.265625 -7.78125 C 4.347656 -5.957031 4.859375 -4.535156 5.796875 -3.515625 C 6.742188 -2.503906 7.953125 -2 9.421875 -2 C 10.535156 -2 11.457031 -2.296875 12.1875 -2.890625 C 12.925781 -3.484375 13.488281 -4.347656 13.875 -5.484375 L 16.859375 -5.125 C 16.398438 -3.414062 15.53125 -2.070312 14.25 -1.09375 C 12.976562 -0.125 11.410156 0.359375 9.546875 0.359375 C 6.941406 0.359375 4.910156 -0.40625 3.453125 -1.9375 C 2.003906 -3.46875 1.28125 -5.613281 1.28125 -8.375 C 1.28125 -10.207031 1.609375 -11.800781 2.265625 -13.15625 C 2.921875 -14.507812 3.84375 -15.550781 5.03125 -16.28125 C 6.226562 -17.019531 7.625 -17.390625 9.21875 -17.390625 Z M 4.4375 -10.171875 L 13.90625 -10.171875 C 13.84375 -11.785156 13.347656 -13 12.421875 -13.8125 C 11.492188 -14.625 10.425781 -15.03125 9.21875 -15.03125 C 7.863281 -15.03125 6.753906 -14.566406 5.890625 -13.640625 C 5.023438 -12.722656 4.539062 -11.566406 4.4375 -10.171875 Z M 4.4375 -10.171875"/></g></g></g><g fill-opacity="1" fill="#ffffff"><g transform="translate(169.975085, 194.883594)"><g/></g></g><g fill-opacity="1" fill="#ffffff"><g transform="translate(179.097934, 194.883594)"><g><path d="M 5.703125 -9.609375 C 5.703125 -7.597656 5.921875 -6.144531 6.359375 -5.25 C 6.773438 -4.394531 7.421875 -3.703125 8.296875 -3.171875 C 9.171875 -2.648438 10.300781 -2.390625 11.6875 -2.390625 C 13.582031 -2.390625 14.988281 -2.765625 15.90625 -3.515625 C 16.832031 -4.273438 17.40625 -5.140625 17.625 -6.109375 C 17.84375 -7.085938 17.953125 -8.242188 17.953125 -9.578125 L 17.953125 -23.5 L 21.0625 -23.5 L 21.0625 -9.640625 C 21.0625 -8.460938 20.988281 -7.320312 20.84375 -6.21875 C 20.707031 -5.113281 20.300781 -4.066406 19.625 -3.078125 C 18.875 -2.015625 17.882812 -1.171875 16.65625 -0.546875 C 15.4375 0.078125 13.832031 0.390625 11.84375 0.390625 C 9.914062 0.390625 8.351562 0.109375 7.15625 -0.453125 C 5.96875 -1.023438 4.984375 -1.816406 4.203125 -2.828125 C 3.503906 -3.703125 3.0625 -4.726562 2.875 -5.90625 C 2.6875 -7.082031 2.59375 -8.316406 2.59375 -9.609375 L 2.59375 -23.5 L 5.703125 -23.5 Z M 5.703125 -9.609375"/></g></g></g><g fill-opacity="1" fill="#ffffff"><g transform="translate(202.791078, 194.883594)"><g><path d="M 10.234375 -17.390625 C 11.460938 -17.390625 12.519531 -17.148438 13.40625 -16.671875 C 14.289062 -16.191406 14.941406 -15.578125 15.359375 -14.828125 C 15.617188 -14.328125 15.800781 -13.785156 15.90625 -13.203125 C 16.019531 -12.628906 16.078125 -11.90625 16.078125 -11.03125 L 16.078125 0 L 13.1875 0 L 13.1875 -10.5 C 13.1875 -13.425781 11.992188 -14.890625 9.609375 -14.890625 C 8.710938 -14.890625 7.882812 -14.671875 7.125 -14.234375 C 6.375 -13.796875 5.835938 -13.164062 5.515625 -12.34375 C 5.253906 -11.632812 5.125 -10.691406 5.125 -9.515625 L 5.125 0 L 2.234375 0 L 2.234375 -17 L 4.828125 -17 L 4.828125 -14.609375 C 6.117188 -16.460938 7.921875 -17.390625 10.234375 -17.390625 Z M 10.234375 -17.390625"/></g></g></g><g fill-opacity="1" fill="#ffffff"><g transform="translate(221.036763, 194.883594)"><g><path d="M 5.09375 -20.21875 L 2.203125 -20.21875 L 2.203125 -23.5 L 5.09375 -23.5 Z M 5.09375 0 L 2.203125 0 L 2.203125 -17 L 5.09375 -17 Z M 5.09375 0"/></g></g></g><g fill-opacity="1" fill="#ffffff"><g transform="translate(228.32191, 194.883594)"><g><path d="M 7.25 -7.640625 C 7.625 -5.960938 7.929688 -4.507812 8.171875 -3.28125 L 8.375 -4.109375 C 8.78125 -5.859375 9.070312 -7.070312 9.25 -7.75 L 13.6875 -23.5 L 17.421875 -23.5 L 20.734375 -11.8125 C 21.566406 -8.882812 22.203125 -6.039062 22.640625 -3.28125 C 23.015625 -5.144531 23.382812 -6.816406 23.75 -8.296875 L 27.46875 -23.5 L 30.578125 -23.5 L 24.15625 0 L 21.171875 0 L 16.109375 -18.171875 C 15.804688 -19.203125 15.585938 -20.035156 15.453125 -20.671875 C 15.347656 -20.316406 15.226562 -19.8125 15.09375 -19.15625 L 14.734375 -17.75 L 9.8125 0 L 6.625 0 L 0.390625 -23.5 L 3.578125 -23.5 Z M 7.25 -7.640625"/></g></g></g><g fill-opacity="1" fill="#ffffff"><g transform="translate(257.62659, 194.883594)"><g><path d="M 9.125 -17.390625 C 10.414062 -17.390625 11.664062 -17.101562 12.875 -16.53125 C 14.09375 -15.96875 15.097656 -15.023438 15.890625 -13.703125 C 16.691406 -12.378906 17.09375 -10.644531 17.09375 -8.5 C 17.09375 -6.59375 16.753906 -4.976562 16.078125 -3.65625 C 15.398438 -2.332031 14.457031 -1.332031 13.25 -0.65625 C 12.050781 0.0195312 10.675781 0.359375 9.125 0.359375 C 6.84375 0.359375 4.984375 -0.347656 3.546875 -1.765625 C 1.953125 -3.328125 1.15625 -5.570312 1.15625 -8.5 C 1.15625 -10.40625 1.492188 -12.023438 2.171875 -13.359375 C 2.847656 -14.691406 3.785156 -15.695312 4.984375 -16.375 C 6.191406 -17.050781 7.570312 -17.390625 9.125 -17.390625 Z M 4.109375 -8.5 C 4.109375 -6.445312 4.5625 -4.847656 5.46875 -3.703125 C 6.375 -2.566406 7.59375 -2 9.125 -2 C 10.632812 -2 11.847656 -2.5625 12.765625 -3.6875 C 13.679688 -4.8125 14.140625 -6.414062 14.140625 -8.5 C 14.140625 -10.507812 13.691406 -12.097656 12.796875 -13.265625 C 11.898438 -14.441406 10.664062 -15.03125 9.09375 -15.03125 C 7.601562 -15.03125 6.398438 -14.453125 5.484375 -13.296875 C 4.566406 -12.148438 4.109375 -10.550781 4.109375 -8.5 Z M 4.109375 -8.5"/></g></g></g><g fill-opacity="1" fill="#ffffff"><g transform="translate(275.872263, 194.883594)"><g><path d="M 8.4375 -17.390625 C 9.414062 -17.390625 10.390625 -17.082031 11.359375 -16.46875 L 10.375 -13.8125 C 9.664062 -14.226562 8.929688 -14.4375 8.171875 -14.4375 C 7.078125 -14.4375 6.269531 -13.9375 5.75 -12.9375 C 5.238281 -11.945312 4.984375 -10.664062 4.984375 -9.09375 L 4.984375 0 L 2.09375 0 L 2.09375 -17 L 4.6875 -17 L 4.6875 -14.4375 C 5.238281 -15.425781 5.78125 -16.164062 6.3125 -16.65625 C 6.851562 -17.144531 7.5625 -17.390625 8.4375 -17.390625 Z M 8.4375 -17.390625"/></g></g></g><g fill-opacity="1" fill="#ffffff"><g transform="translate(287.128133, 194.883594)"><g><path d="M 5.09375 0 L 2.203125 0 L 2.203125 -23.5 L 5.09375 -23.5 Z M 5.09375 0"/></g></g></g><g fill-opacity="1" fill="#ffffff"><g transform="translate(294.413293, 194.883594)"><g><path d="M 15.953125 -23.5 L 15.953125 0 L 13.25 0 L 13.25 -2.171875 C 12.925781 -1.597656 12.375 -1.03125 11.59375 -0.46875 C 10.820312 0.0820312 9.800781 0.359375 8.53125 0.359375 C 7.15625 0.359375 5.910156 -0.00390625 4.796875 -0.734375 C 3.679688 -1.472656 2.800781 -2.519531 2.15625 -3.875 C 1.507812 -5.226562 1.1875 -6.800781 1.1875 -8.59375 C 1.1875 -10.382812 1.484375 -11.941406 2.078125 -13.265625 C 2.679688 -14.597656 3.535156 -15.617188 4.640625 -16.328125 C 5.742188 -17.035156 7.03125 -17.390625 8.5 -17.390625 C 9.570312 -17.390625 10.503906 -17.132812 11.296875 -16.625 C 12.097656 -16.125 12.6875 -15.601562 13.0625 -15.0625 L 13.0625 -23.5 Z M 4.140625 -8.5 C 4.140625 -7.101562 4.34375 -5.914062 4.75 -4.9375 C 5.164062 -3.96875 5.726562 -3.234375 6.4375 -2.734375 C 7.15625 -2.242188 7.941406 -2 8.796875 -2 C 10.128906 -2 11.21875 -2.535156 12.0625 -3.609375 C 12.90625 -4.679688 13.328125 -6.222656 13.328125 -8.234375 C 13.328125 -10.296875 12.921875 -11.941406 12.109375 -13.171875 C 11.296875 -14.410156 10.144531 -15.03125 8.65625 -15.03125 C 7.238281 -15.03125 6.128906 -14.445312 5.328125 -13.28125 C 4.535156 -12.125 4.140625 -10.53125 4.140625 -8.5 Z M 4.140625 -8.5"/></g></g></g><g fill-opacity="1" fill="#ffffff"><g transform="translate(312.658991, 194.883594)"><g><path d="M 7.8125 -17.390625 C 9.738281 -17.390625 11.289062 -16.988281 12.46875 -16.1875 C 13.644531 -15.394531 14.320312 -14.210938 14.5 -12.640625 L 11.6875 -12.234375 C 11.550781 -13.085938 11.1875 -13.765625 10.59375 -14.265625 C 10.007812 -14.773438 9.132812 -15.03125 7.96875 -15.03125 C 6.8125 -15.03125 5.910156 -14.832031 5.265625 -14.4375 C 4.617188 -14.039062 4.296875 -13.492188 4.296875 -12.796875 C 4.296875 -12.316406 4.488281 -11.914062 4.875 -11.59375 C 5.257812 -11.28125 5.710938 -11.039062 6.234375 -10.875 C 6.753906 -10.707031 7.550781 -10.492188 8.625 -10.234375 C 10.007812 -9.910156 11.132812 -9.582031 12 -9.25 C 12.863281 -8.925781 13.601562 -8.425781 14.21875 -7.75 C 14.84375 -7.070312 15.15625 -6.160156 15.15625 -5.015625 C 15.15625 -4.035156 14.878906 -3.132812 14.328125 -2.3125 C 13.785156 -1.488281 13.003906 -0.835938 11.984375 -0.359375 C 10.972656 0.117188 9.8125 0.359375 8.5 0.359375 C 6.226562 0.359375 4.488281 -0.0859375 3.28125 -0.984375 C 2.082031 -1.878906 1.328125 -3.25 1.015625 -5.09375 L 3.875 -5.515625 C 4.03125 -4.359375 4.492188 -3.484375 5.265625 -2.890625 C 6.046875 -2.296875 7.046875 -2 8.265625 -2 C 9.515625 -2 10.484375 -2.253906 11.171875 -2.765625 C 11.859375 -3.285156 12.203125 -3.925781 12.203125 -4.6875 C 12.203125 -5.414062 11.859375 -5.953125 11.171875 -6.296875 C 10.484375 -6.648438 9.425781 -6.988281 8 -7.3125 C 6.601562 -7.644531 5.484375 -7.96875 4.640625 -8.28125 C 3.796875 -8.601562 3.0625 -9.101562 2.4375 -9.78125 C 1.820312 -10.457031 1.515625 -11.363281 1.515625 -12.5 C 1.515625 -13.414062 1.757812 -14.242188 2.25 -14.984375 C 2.738281 -15.734375 3.457031 -16.320312 4.40625 -16.75 C 5.363281 -17.175781 6.5 -17.390625 7.8125 -17.390625 Z M 7.8125 -17.390625"/></g></g><g transform="translate(329.067, 194.883594)"><g><path d="M 6.359375 -18.28125 L 5.546875 -5.84375 L 3.671875 -5.84375 L 2.796875 -18.28125 L 2.796875 -23.5 L 6.359375 -23.5 Z M 6.234375 0 L 2.953125 0 L 2.953125 -3.28125 L 6.234375 -3.28125 Z M 6.234375 0"/></g></g></g></svg>