<svg version="1.0" preserveAspectRatio="xMidYMid meet" viewBox="91.60350000000001 136.30349672871603 194.25 55.499998668" zoomAndPan="magnify" xmlns:xlink="http://www.w3.org/1999/xlink" xmlns="http://www.w3.org/2000/svg" style="max-height: 500px" width="194.25" height="55.499998668"><defs><clipPath id="7e97f86335"><path clip-rule="nonzero" d="M 93.75 138.984375 L 150 138.984375 L 150 187.734375 L 93.75 187.734375 Z M 93.75 138.984375"/></clipPath><clipPath id="e41820bf40"><path clip-rule="nonzero" d="M 232 138.984375 L 244 138.984375 L 244 143 L 232 143 Z M 232 138.984375"/></clipPath><clipPath id="c2070b7b65"><path clip-rule="nonzero" d="M 262 138.984375 L 274 138.984375 L 274 143 L 262 143 Z M 262 138.984375"/></clipPath><clipPath id="bcdefb1d03"><path clip-rule="nonzero" d="M 277 146 L 281.25 146 L 281.25 162 L 277 162 Z M 277 146"/></clipPath><clipPath id="13ef69aa83"><path clip-rule="nonzero" d="M 251 183 L 255 183 L 255 187.734375 L 251 187.734375 Z M 251 183"/></clipPath><clipPath id="9eca6ad265"><path clip-rule="nonzero" d="M 196 138.984375 L 208 138.984375 L 208 143 L 196 143 Z M 196 138.984375"/></clipPath><clipPath id="8e4e785881"><path clip-rule="nonzero" d="M 159 138.984375 L 190 138.984375 L 190 184 L 159 184 Z M 159 138.984375"/></clipPath><clipPath id="ade6616e7c"><path clip-rule="nonzero" d="M 185 183 L 190 183 L 190 187.734375 L 185 187.734375 Z M 185 183"/></clipPath></defs><g clip-path="url(#7e97f86335)"><path fill-rule="nonzero" fill-opacity="1" d="M 146.179688 142.714844 L 142.449219 142.714844 L 142.449219 138.984375 L 131.253906 138.984375 L 131.253906 142.714844 L 127.523438 142.714844 L 127.523438 146.449219 L 123.789062 146.449219 L 123.789062 150.179688 L 120.058594 150.179688 L 120.058594 146.449219 L 116.324219 146.449219 L 116.324219 142.714844 L 112.59375 142.714844 L 112.59375 138.984375 L 101.398438 138.984375 L 101.398438 142.714844 L 97.664062 142.714844 L 97.664062 146.449219 L 93.933594 146.449219 L 93.933594 161.375 L 97.664062 161.375 L 97.664062 165.109375 L 101.398438 165.109375 L 101.398438 168.839844 L 105.128906 168.839844 L 105.128906 172.570312 L 108.863281 172.570312 L 108.863281 176.304688 L 112.59375 176.304688 L 112.59375 180.035156 L 116.324219 180.035156 L 116.324219 183.769531 L 120.058594 183.769531 L 120.058594 187.5 L 123.789062 187.5 L 123.789062 183.769531 L 127.523438 183.769531 L 127.523438 180.035156 L 131.253906 180.035156 L 131.253906 176.304688 L 134.984375 176.304688 L 134.984375 172.570312 L 138.71875 172.570312 L 138.71875 168.839844 L 142.449219 168.839844 L 142.449219 165.109375 L 146.179688 165.109375 L 146.179688 161.375 L 149.914062 161.375 L 149.914062 146.449219 L 146.179688 146.449219 Z M 146.179688 142.714844" fill="#e2001a"/></g><g clip-path="url(#e41820bf40)"><path fill-rule="nonzero" fill-opacity="1" d="M 240.015625 142.714844 L 243.746094 142.714844 L 243.746094 138.984375 L 232.550781 138.984375 L 232.550781 142.714844 Z M 240.015625 142.714844" fill="#e2001a"/></g><g clip-path="url(#c2070b7b65)"><path fill-rule="nonzero" fill-opacity="1" d="M 269.871094 142.714844 L 273.601562 142.714844 L 273.601562 138.984375 L 262.40625 138.984375 L 262.40625 142.714844 Z M 269.871094 142.714844" fill="#e2001a"/></g><path fill-rule="nonzero" fill-opacity="1" d="M 228.820312 142.714844 L 232.550781 142.714844 L 232.550781 146.449219 L 228.820312 146.449219 Z M 228.820312 142.714844" fill="#e2001a"/><path fill-rule="nonzero" fill-opacity="1" d="M 243.746094 142.714844 L 247.476562 142.714844 L 247.476562 146.449219 L 243.746094 146.449219 Z M 243.746094 142.714844" fill="#e2001a"/><path fill-rule="nonzero" fill-opacity="1" d="M 273.601562 142.714844 L 277.332031 142.714844 L 277.332031 146.449219 L 273.601562 146.449219 Z M 273.601562 142.714844" fill="#e2001a"/><path fill-rule="nonzero" fill-opacity="1" d="M 258.675781 142.714844 L 262.40625 142.714844 L 262.40625 146.449219 L 258.675781 146.449219 Z M 258.675781 142.714844" fill="#e2001a"/><path fill-rule="nonzero" fill-opacity="1" d="M 247.476562 146.449219 L 251.210938 146.449219 L 251.210938 150.179688 L 247.476562 150.179688 Z M 247.476562 146.449219" fill="#e2001a"/><g clip-path="url(#bcdefb1d03)"><path fill-rule="nonzero" fill-opacity="1" d="M 277.335938 146.449219 L 277.335938 161.375 L 281.066406 161.375 L 281.066406 146.449219 Z M 277.335938 146.449219" fill="#e2001a"/></g><path fill-rule="nonzero" fill-opacity="1" d="M 254.941406 146.449219 L 258.675781 146.449219 L 258.675781 150.179688 L 254.941406 150.179688 Z M 254.941406 146.449219" fill="#e2001a"/><path fill-rule="nonzero" fill-opacity="1" d="M 251.210938 150.179688 L 254.941406 150.179688 L 254.941406 153.914062 L 251.210938 153.914062 Z M 251.210938 150.179688" fill="#e2001a"/><path fill-rule="nonzero" fill-opacity="1" d="M 228.820312 153.914062 L 228.820312 146.449219 L 225.085938 146.449219 L 225.085938 161.375 L 228.820312 161.375 Z M 228.820312 153.914062" fill="#e2001a"/><path fill-rule="nonzero" fill-opacity="1" d="M 228.820312 161.375 L 232.550781 161.375 L 232.550781 165.109375 L 228.820312 165.109375 Z M 228.820312 161.375" fill="#e2001a"/><path fill-rule="nonzero" fill-opacity="1" d="M 232.550781 165.109375 L 236.28125 165.109375 L 236.28125 168.839844 L 232.550781 168.839844 Z M 232.550781 165.109375" fill="#e2001a"/><path fill-rule="nonzero" fill-opacity="1" d="M 236.28125 168.839844 L 240.015625 168.839844 L 240.015625 172.570312 L 236.28125 172.570312 Z M 236.28125 168.839844" fill="#e2001a"/><path fill-rule="nonzero" fill-opacity="1" d="M 240.015625 172.570312 L 243.746094 172.570312 L 243.746094 176.304688 L 240.015625 176.304688 Z M 240.015625 172.570312" fill="#e2001a"/><path fill-rule="nonzero" fill-opacity="1" d="M 243.746094 176.304688 L 247.476562 176.304688 L 247.476562 180.035156 L 243.746094 180.035156 Z M 243.746094 176.304688" fill="#e2001a"/><path fill-rule="nonzero" fill-opacity="1" d="M 247.476562 180.035156 L 251.210938 180.035156 L 251.210938 183.769531 L 247.476562 183.769531 Z M 247.476562 180.035156" fill="#e2001a"/><path fill-rule="nonzero" fill-opacity="1" d="M 273.601562 161.375 L 277.332031 161.375 L 277.332031 165.109375 L 273.601562 165.109375 Z M 273.601562 161.375" fill="#e2001a"/><path fill-rule="nonzero" fill-opacity="1" d="M 269.871094 165.109375 L 273.601562 165.109375 L 273.601562 168.839844 L 269.871094 168.839844 Z M 269.871094 165.109375" fill="#e2001a"/><path fill-rule="nonzero" fill-opacity="1" d="M 266.136719 168.839844 L 269.871094 168.839844 L 269.871094 172.570312 L 266.136719 172.570312 Z M 266.136719 168.839844" fill="#e2001a"/><path fill-rule="nonzero" fill-opacity="1" d="M 262.40625 172.570312 L 266.136719 172.570312 L 266.136719 176.304688 L 262.40625 176.304688 Z M 262.40625 172.570312" fill="#e2001a"/><path fill-rule="nonzero" fill-opacity="1" d="M 258.675781 176.304688 L 262.40625 176.304688 L 262.40625 180.035156 L 258.675781 180.035156 Z M 258.675781 176.304688" fill="#e2001a"/><path fill-rule="nonzero" fill-opacity="1" d="M 254.941406 180.035156 L 258.675781 180.035156 L 258.675781 183.769531 L 254.941406 183.769531 Z M 254.941406 180.035156" fill="#e2001a"/><g clip-path="url(#13ef69aa83)"><path fill-rule="nonzero" fill-opacity="1" d="M 251.210938 183.769531 L 254.941406 183.769531 L 254.941406 187.5 L 251.210938 187.5 Z M 251.210938 183.769531" fill="#e2001a"/></g><g clip-path="url(#9eca6ad265)"><path fill-rule="nonzero" fill-opacity="1" d="M 203.972656 142.714844 L 207.707031 142.714844 L 207.707031 138.984375 L 196.511719 138.984375 L 196.511719 142.714844 Z M 203.972656 142.714844" fill="#e2001a"/></g><path fill-rule="nonzero" fill-opacity="1" d="M 207.707031 142.714844 L 211.4375 142.714844 L 211.4375 146.449219 L 207.707031 146.449219 Z M 207.707031 142.714844" fill="#e2001a"/><path fill-rule="nonzero" fill-opacity="1" d="M 192.777344 142.714844 L 196.511719 142.714844 L 196.511719 146.449219 L 192.777344 146.449219 Z M 192.777344 142.714844" fill="#e2001a"/><path fill-rule="nonzero" fill-opacity="1" d="M 211.4375 150.179688 L 211.4375 161.375 L 215.171875 161.375 L 215.171875 146.449219 L 211.4375 146.449219 Z M 211.4375 150.179688" fill="#e2001a"/><path fill-rule="nonzero" fill-opacity="1" d="M 189.046875 146.449219 L 192.777344 146.449219 L 192.777344 150.179688 L 189.046875 150.179688 Z M 189.046875 146.449219" fill="#e2001a"/><g clip-path="url(#8e4e785881)"><path fill-rule="nonzero" fill-opacity="1" d="M 185.316406 176.304688 L 185.316406 153.914062 L 189.046875 153.914062 L 189.046875 150.179688 L 185.316406 150.179688 L 185.316406 146.449219 L 181.582031 146.449219 L 181.582031 142.714844 L 177.851562 142.714844 L 177.851562 138.984375 L 166.65625 138.984375 L 166.65625 142.714844 L 162.921875 142.714844 L 162.921875 146.449219 L 159.191406 146.449219 L 159.191406 161.375 L 162.921875 161.375 L 162.921875 165.109375 L 166.65625 165.109375 L 166.65625 168.839844 L 170.386719 168.839844 L 170.386719 172.570312 L 174.117188 172.570312 L 174.117188 176.304688 L 177.851562 176.304688 L 177.851562 180.035156 L 181.582031 180.035156 L 181.582031 183.769531 L 185.316406 183.769531 Z M 185.316406 176.304688" fill="#e2001a"/></g><path fill-rule="nonzero" fill-opacity="1" d="M 207.707031 161.375 L 211.4375 161.375 L 211.4375 165.109375 L 207.707031 165.109375 Z M 207.707031 161.375" fill="#e2001a"/><path fill-rule="nonzero" fill-opacity="1" d="M 203.972656 165.109375 L 207.707031 165.109375 L 207.707031 168.839844 L 203.972656 168.839844 Z M 203.972656 165.109375" fill="#e2001a"/><path fill-rule="nonzero" fill-opacity="1" d="M 200.242188 168.839844 L 203.972656 168.839844 L 203.972656 172.570312 L 200.242188 172.570312 Z M 200.242188 168.839844" fill="#e2001a"/><path fill-rule="nonzero" fill-opacity="1" d="M 196.511719 172.570312 L 200.242188 172.570312 L 200.242188 176.304688 L 196.511719 176.304688 Z M 196.511719 172.570312" fill="#e2001a"/><path fill-rule="nonzero" fill-opacity="1" d="M 192.777344 176.304688 L 196.511719 176.304688 L 196.511719 180.035156 L 192.777344 180.035156 Z M 192.777344 176.304688" fill="#e2001a"/><path fill-rule="nonzero" fill-opacity="1" d="M 189.046875 180.035156 L 192.777344 180.035156 L 192.777344 183.769531 L 189.046875 183.769531 Z M 189.046875 180.035156" fill="#e2001a"/><g clip-path="url(#ade6616e7c)"><path fill-rule="nonzero" fill-opacity="1" d="M 185.316406 183.769531 L 189.046875 183.769531 L 189.046875 187.5 L 185.316406 187.5 Z M 185.316406 183.769531" fill="#e2001a"/></g><path fill-rule="nonzero" fill-opacity="1" d="M 101.398438 153.914062 L 105.128906 153.914062 L 105.128906 150.179688 L 108.863281 150.179688 L 108.863281 146.449219 L 101.398438 146.449219 L 101.398438 150.179688 L 97.664062 150.179688 L 97.664062 157.644531 L 101.398438 157.644531 Z M 101.398438 153.914062" fill="#ffffff"/><path fill-rule="nonzero" fill-opacity="1" d="M 166.65625 153.914062 L 170.386719 153.914062 L 170.386719 150.179688 L 174.117188 150.179688 L 174.117188 146.449219 L 166.65625 146.449219 L 166.65625 150.179688 L 162.921875 150.179688 L 162.921875 157.644531 L 166.65625 157.644531 Z M 166.65625 153.914062" fill="#ffffff"/></svg>