<svg version="1.0" preserveAspectRatio="xMidYMid meet" viewBox="18.8625 118.3124971605 327 107.999997408" zoomAndPan="magnify" xmlns:xlink="http://www.w3.org/1999/xlink" xmlns="http://www.w3.org/2000/svg" style="max-height: 500px" width="327" height="107.999997408"><defs><g/></defs><g fill-opacity="1" fill="#ff00ff"><g transform="translate(17.673695, 218.382767)"><g><path d="M 18.296875 -9.03125 L 56.265625 -9.03125 L 56.265625 0 L 8.0625 0 L 8.0625 -77.03125 L 18.296875 -77.03125 Z M 18.296875 -9.03125"/></g></g></g><g fill-opacity="1" fill="#ff00ff"><g transform="translate(77.49517, 218.382767)"><g><path d="M 30.234375 -57.03125 C 35.609375 -57.03125 40.210938 -55.753906 44.046875 -53.203125 C 47.890625 -50.660156 50.78125 -47.234375 52.71875 -42.921875 C 54.65625 -38.617188 55.625 -33.816406 55.625 -28.515625 L 55.625 -25.5 L 13.984375 -25.5 C 14.273438 -19.539062 15.960938 -14.894531 19.046875 -11.5625 C 22.128906 -8.226562 26.070312 -6.5625 30.875 -6.5625 C 34.53125 -6.5625 37.5625 -7.53125 39.96875 -9.46875 C 42.375 -11.40625 44.222656 -14.238281 45.515625 -17.96875 L 55.296875 -16.78125 C 53.796875 -11.1875 50.945312 -6.789062 46.75 -3.59375 C 42.550781 -0.40625 37.40625 1.1875 31.3125 1.1875 C 22.769531 1.1875 16.113281 -1.320312 11.34375 -6.34375 C 6.582031 -11.363281 4.203125 -18.394531 4.203125 -27.4375 C 4.203125 -33.457031 5.273438 -38.691406 7.421875 -43.140625 C 9.578125 -47.585938 12.609375 -51.015625 16.515625 -53.421875 C 20.421875 -55.828125 24.992188 -57.03125 30.234375 -57.03125 Z M 14.53125 -33.359375 L 45.625 -33.359375 C 45.40625 -38.660156 43.769531 -42.640625 40.71875 -45.296875 C 37.675781 -47.953125 34.179688 -49.28125 30.234375 -49.28125 C 25.785156 -49.28125 22.144531 -47.769531 19.3125 -44.75 C 16.476562 -41.738281 14.882812 -37.941406 14.53125 -33.359375 Z M 14.53125 -33.359375"/></g></g></g><g fill-opacity="1" fill="#ff00ff"><g transform="translate(135.379974, 218.382767)"><g><path d="M 22.8125 -23.890625 C 23.457031 -22.160156 24.390625 -19.289062 25.609375 -15.28125 L 27 -11.078125 C 28.582031 -16.390625 29.734375 -19.90625 30.453125 -21.625 L 42.828125 -55.734375 L 52.609375 -55.734375 L 31.53125 0 L 22.59375 0 L 1.40625 -55.734375 L 11.40625 -55.734375 Z M 22.8125 -23.890625"/></g></g></g><g fill-opacity="1" fill="#ff00ff"><g transform="translate(185.51813, 218.382767)"><g><path d="M 30.234375 -57.03125 C 35.609375 -57.03125 40.210938 -55.753906 44.046875 -53.203125 C 47.890625 -50.660156 50.78125 -47.234375 52.71875 -42.921875 C 54.65625 -38.617188 55.625 -33.816406 55.625 -28.515625 L 55.625 -25.5 L 13.984375 -25.5 C 14.273438 -19.539062 15.960938 -14.894531 19.046875 -11.5625 C 22.128906 -8.226562 26.070312 -6.5625 30.875 -6.5625 C 34.53125 -6.5625 37.5625 -7.53125 39.96875 -9.46875 C 42.375 -11.40625 44.222656 -14.238281 45.515625 -17.96875 L 55.296875 -16.78125 C 53.796875 -11.1875 50.945312 -6.789062 46.75 -3.59375 C 42.550781 -0.40625 37.40625 1.1875 31.3125 1.1875 C 22.769531 1.1875 16.113281 -1.320312 11.34375 -6.34375 C 6.582031 -11.363281 4.203125 -18.394531 4.203125 -27.4375 C 4.203125 -33.457031 5.273438 -38.691406 7.421875 -43.140625 C 9.578125 -47.585938 12.609375 -51.015625 16.515625 -53.421875 C 20.421875 -55.828125 24.992188 -57.03125 30.234375 -57.03125 Z M 14.53125 -33.359375 L 45.625 -33.359375 C 45.40625 -38.660156 43.769531 -42.640625 40.71875 -45.296875 C 37.675781 -47.953125 34.179688 -49.28125 30.234375 -49.28125 C 25.785156 -49.28125 22.144531 -47.769531 19.3125 -44.75 C 16.476562 -41.738281 14.882812 -37.941406 14.53125 -33.359375 Z M 14.53125 -33.359375"/></g></g></g><g fill-opacity="1" fill="#ff00ff"><g transform="translate(245.339606, 218.382767)"><g><path d="M 16.671875 0 L 7.203125 0 L 7.203125 -77.03125 L 16.671875 -77.03125 Z M 16.671875 0"/></g></g></g><g fill-opacity="1" fill="#ff00ff"><g transform="translate(269.225157, 218.382767)"><g/></g></g><g fill-opacity="1" fill="#ff00ff"><g transform="translate(299.135916, 218.382767)"><g><path d="M 34.21875 -77.359375 L 40.34375 -77.359375 L 40.34375 0 L 30.875 0 L 30.875 -60.25 C 28.507812 -58.03125 25.550781 -55.859375 22 -53.734375 C 18.445312 -51.617188 15.09375 -49.988281 11.9375 -48.84375 L 11.9375 -58 C 16.957031 -60.363281 21.492188 -63.285156 25.546875 -66.765625 C 29.597656 -70.242188 32.488281 -73.773438 34.21875 -77.359375 Z M 34.21875 -77.359375"/></g></g></g><g fill-opacity="1" fill="#00ffff"><g transform="translate(16.034663, 205.033924)"><g><path d="M 18.296875 -9.03125 L 56.265625 -9.03125 L 56.265625 0 L 8.0625 0 L 8.0625 -77.03125 L 18.296875 -77.03125 Z M 18.296875 -9.03125"/></g></g></g><g fill-opacity="1" fill="#00ffff"><g transform="translate(75.856138, 205.033924)"><g><path d="M 30.234375 -57.03125 C 35.609375 -57.03125 40.210938 -55.753906 44.046875 -53.203125 C 47.890625 -50.660156 50.78125 -47.234375 52.71875 -42.921875 C 54.65625 -38.617188 55.625 -33.816406 55.625 -28.515625 L 55.625 -25.5 L 13.984375 -25.5 C 14.273438 -19.539062 15.960938 -14.894531 19.046875 -11.5625 C 22.128906 -8.226562 26.070312 -6.5625 30.875 -6.5625 C 34.53125 -6.5625 37.5625 -7.53125 39.96875 -9.46875 C 42.375 -11.40625 44.222656 -14.238281 45.515625 -17.96875 L 55.296875 -16.78125 C 53.796875 -11.1875 50.945312 -6.789062 46.75 -3.59375 C 42.550781 -0.40625 37.40625 1.1875 31.3125 1.1875 C 22.769531 1.1875 16.113281 -1.320312 11.34375 -6.34375 C 6.582031 -11.363281 4.203125 -18.394531 4.203125 -27.4375 C 4.203125 -33.457031 5.273438 -38.691406 7.421875 -43.140625 C 9.578125 -47.585938 12.609375 -51.015625 16.515625 -53.421875 C 20.421875 -55.828125 24.992188 -57.03125 30.234375 -57.03125 Z M 14.53125 -33.359375 L 45.625 -33.359375 C 45.40625 -38.660156 43.769531 -42.640625 40.71875 -45.296875 C 37.675781 -47.953125 34.179688 -49.28125 30.234375 -49.28125 C 25.785156 -49.28125 22.144531 -47.769531 19.3125 -44.75 C 16.476562 -41.738281 14.882812 -37.941406 14.53125 -33.359375 Z M 14.53125 -33.359375"/></g></g></g><g fill-opacity="1" fill="#00ffff"><g transform="translate(133.740942, 205.033924)"><g><path d="M 22.8125 -23.890625 C 23.457031 -22.160156 24.390625 -19.289062 25.609375 -15.28125 L 27 -11.078125 C 28.582031 -16.390625 29.734375 -19.90625 30.453125 -21.625 L 42.828125 -55.734375 L 52.609375 -55.734375 L 31.53125 0 L 22.59375 0 L 1.40625 -55.734375 L 11.40625 -55.734375 Z M 22.8125 -23.890625"/></g></g></g><g fill-opacity="1" fill="#00ffff"><g transform="translate(183.879098, 205.033924)"><g><path d="M 30.234375 -57.03125 C 35.609375 -57.03125 40.210938 -55.753906 44.046875 -53.203125 C 47.890625 -50.660156 50.78125 -47.234375 52.71875 -42.921875 C 54.65625 -38.617188 55.625 -33.816406 55.625 -28.515625 L 55.625 -25.5 L 13.984375 -25.5 C 14.273438 -19.539062 15.960938 -14.894531 19.046875 -11.5625 C 22.128906 -8.226562 26.070312 -6.5625 30.875 -6.5625 C 34.53125 -6.5625 37.5625 -7.53125 39.96875 -9.46875 C 42.375 -11.40625 44.222656 -14.238281 45.515625 -17.96875 L 55.296875 -16.78125 C 53.796875 -11.1875 50.945312 -6.789062 46.75 -3.59375 C 42.550781 -0.40625 37.40625 1.1875 31.3125 1.1875 C 22.769531 1.1875 16.113281 -1.320312 11.34375 -6.34375 C 6.582031 -11.363281 4.203125 -18.394531 4.203125 -27.4375 C 4.203125 -33.457031 5.273438 -38.691406 7.421875 -43.140625 C 9.578125 -47.585938 12.609375 -51.015625 16.515625 -53.421875 C 20.421875 -55.828125 24.992188 -57.03125 30.234375 -57.03125 Z M 14.53125 -33.359375 L 45.625 -33.359375 C 45.40625 -38.660156 43.769531 -42.640625 40.71875 -45.296875 C 37.675781 -47.953125 34.179688 -49.28125 30.234375 -49.28125 C 25.785156 -49.28125 22.144531 -47.769531 19.3125 -44.75 C 16.476562 -41.738281 14.882812 -37.941406 14.53125 -33.359375 Z M 14.53125 -33.359375"/></g></g></g><g fill-opacity="1" fill="#00ffff"><g transform="translate(243.700574, 205.033924)"><g><path d="M 16.671875 0 L 7.203125 0 L 7.203125 -77.03125 L 16.671875 -77.03125 Z M 16.671875 0"/></g></g></g><g fill-opacity="1" fill="#00ffff"><g transform="translate(267.586126, 205.033924)"><g/></g></g><g fill-opacity="1" fill="#00ffff"><g transform="translate(297.496884, 205.033924)"><g><path d="M 34.21875 -77.359375 L 40.34375 -77.359375 L 40.34375 0 L 30.875 0 L 30.875 -60.25 C 28.507812 -58.03125 25.550781 -55.859375 22 -53.734375 C 18.445312 -51.617188 15.09375 -49.988281 11.9375 -48.84375 L 11.9375 -58 C 16.957031 -60.363281 21.492188 -63.285156 25.546875 -66.765625 C 29.597656 -70.242188 32.488281 -73.773438 34.21875 -77.359375 Z M 34.21875 -77.359375"/></g></g></g><g fill-opacity="1" fill="#ffffff"><g transform="translate(16.854179, 211.708346)"><g><path d="M 18.296875 -9.03125 L 56.265625 -9.03125 L 56.265625 0 L 8.0625 0 L 8.0625 -77.03125 L 18.296875 -77.03125 Z M 18.296875 -9.03125"/></g></g></g><g fill-opacity="1" fill="#ffffff"><g transform="translate(76.675654, 211.708346)"><g><path d="M 30.234375 -57.03125 C 35.609375 -57.03125 40.210938 -55.753906 44.046875 -53.203125 C 47.890625 -50.660156 50.78125 -47.234375 52.71875 -42.921875 C 54.65625 -38.617188 55.625 -33.816406 55.625 -28.515625 L 55.625 -25.5 L 13.984375 -25.5 C 14.273438 -19.539062 15.960938 -14.894531 19.046875 -11.5625 C 22.128906 -8.226562 26.070312 -6.5625 30.875 -6.5625 C 34.53125 -6.5625 37.5625 -7.53125 39.96875 -9.46875 C 42.375 -11.40625 44.222656 -14.238281 45.515625 -17.96875 L 55.296875 -16.78125 C 53.796875 -11.1875 50.945312 -6.789062 46.75 -3.59375 C 42.550781 -0.40625 37.40625 1.1875 31.3125 1.1875 C 22.769531 1.1875 16.113281 -1.320312 11.34375 -6.34375 C 6.582031 -11.363281 4.203125 -18.394531 4.203125 -27.4375 C 4.203125 -33.457031 5.273438 -38.691406 7.421875 -43.140625 C 9.578125 -47.585938 12.609375 -51.015625 16.515625 -53.421875 C 20.421875 -55.828125 24.992188 -57.03125 30.234375 -57.03125 Z M 14.53125 -33.359375 L 45.625 -33.359375 C 45.40625 -38.660156 43.769531 -42.640625 40.71875 -45.296875 C 37.675781 -47.953125 34.179688 -49.28125 30.234375 -49.28125 C 25.785156 -49.28125 22.144531 -47.769531 19.3125 -44.75 C 16.476562 -41.738281 14.882812 -37.941406 14.53125 -33.359375 Z M 14.53125 -33.359375"/></g></g></g><g fill-opacity="1" fill="#ffffff"><g transform="translate(134.560458, 211.708346)"><g><path d="M 22.8125 -23.890625 C 23.457031 -22.160156 24.390625 -19.289062 25.609375 -15.28125 L 27 -11.078125 C 28.582031 -16.390625 29.734375 -19.90625 30.453125 -21.625 L 42.828125 -55.734375 L 52.609375 -55.734375 L 31.53125 0 L 22.59375 0 L 1.40625 -55.734375 L 11.40625 -55.734375 Z M 22.8125 -23.890625"/></g></g></g><g fill-opacity="1" fill="#ffffff"><g transform="translate(184.698614, 211.708346)"><g><path d="M 30.234375 -57.03125 C 35.609375 -57.03125 40.210938 -55.753906 44.046875 -53.203125 C 47.890625 -50.660156 50.78125 -47.234375 52.71875 -42.921875 C 54.65625 -38.617188 55.625 -33.816406 55.625 -28.515625 L 55.625 -25.5 L 13.984375 -25.5 C 14.273438 -19.539062 15.960938 -14.894531 19.046875 -11.5625 C 22.128906 -8.226562 26.070312 -6.5625 30.875 -6.5625 C 34.53125 -6.5625 37.5625 -7.53125 39.96875 -9.46875 C 42.375 -11.40625 44.222656 -14.238281 45.515625 -17.96875 L 55.296875 -16.78125 C 53.796875 -11.1875 50.945312 -6.789062 46.75 -3.59375 C 42.550781 -0.40625 37.40625 1.1875 31.3125 1.1875 C 22.769531 1.1875 16.113281 -1.320312 11.34375 -6.34375 C 6.582031 -11.363281 4.203125 -18.394531 4.203125 -27.4375 C 4.203125 -33.457031 5.273438 -38.691406 7.421875 -43.140625 C 9.578125 -47.585938 12.609375 -51.015625 16.515625 -53.421875 C 20.421875 -55.828125 24.992188 -57.03125 30.234375 -57.03125 Z M 14.53125 -33.359375 L 45.625 -33.359375 C 45.40625 -38.660156 43.769531 -42.640625 40.71875 -45.296875 C 37.675781 -47.953125 34.179688 -49.28125 30.234375 -49.28125 C 25.785156 -49.28125 22.144531 -47.769531 19.3125 -44.75 C 16.476562 -41.738281 14.882812 -37.941406 14.53125 -33.359375 Z M 14.53125 -33.359375"/></g></g></g><g fill-opacity="1" fill="#ffffff"><g transform="translate(244.52009, 211.708346)"><g><path d="M 16.671875 0 L 7.203125 0 L 7.203125 -77.03125 L 16.671875 -77.03125 Z M 16.671875 0"/></g></g></g><g fill-opacity="1" fill="#ffffff"><g transform="translate(268.405642, 211.708346)"><g/></g></g><g fill-opacity="1" fill="#ffffff"><g transform="translate(298.3164, 211.708346)"><g><path d="M 34.21875 -77.359375 L 40.34375 -77.359375 L 40.34375 0 L 30.875 0 L 30.875 -60.25 C 28.507812 -58.03125 25.550781 -55.859375 22 -53.734375 C 18.445312 -51.617188 15.09375 -49.988281 11.9375 -48.84375 L 11.9375 -58 C 16.957031 -60.363281 21.492188 -63.285156 25.546875 -66.765625 C 29.597656 -70.242188 32.488281 -73.773438 34.21875 -77.359375 Z M 34.21875 -77.359375"/></g></g></g></svg>