<svg version="1.0" preserveAspectRatio="xMidYMid meet" viewBox="110.66250000000001 163.602746073534 153.75 29.99999928" zoomAndPan="magnify" xmlns:xlink="http://www.w3.org/1999/xlink" xmlns="http://www.w3.org/2000/svg" style="max-height: 500px" width="153.75" height="29.99999928"><defs><g/></defs><g fill-opacity="1" fill="#ff00ff"><g transform="translate(113.189368, 190.766399)"><g><path d="M 6.03125 0 L 6.03125 -4.015625 L 22.09375 -4.015625 L 22.09375 0 Z M 2.015625 -4.015625 L 2.015625 -20.078125 L 6.03125 -20.078125 L 6.03125 -4.015625 Z M 2.015625 -4.015625"/></g></g></g><g fill-opacity="1" fill="#ff00ff"><g transform="translate(137.286847, 190.766399)"><g><path d="M 2.015625 0 L 2.015625 -20.078125 L 22.09375 -20.078125 L 22.09375 -16.0625 L 6.03125 -16.0625 L 6.03125 -12.046875 L 18.078125 -12.046875 L 18.078125 -8.03125 L 6.03125 -8.03125 L 6.03125 -4.015625 L 22.09375 -4.015625 L 22.09375 0 Z M 2.015625 0"/></g></g></g><g fill-opacity="1" fill="#ff00ff"><g transform="translate(161.384326, 190.766399)"><g><path d="M 18.078125 -8.03125 L 18.078125 -4.015625 L 14.0625 -4.015625 L 14.0625 -8.03125 Z M 2.015625 -8.03125 L 2.015625 -20.078125 L 6.03125 -20.078125 L 6.03125 -8.03125 Z M 6.03125 -4.015625 L 6.03125 -8.03125 L 10.046875 -8.03125 L 10.046875 -4.015625 Z M 10.046875 0 L 10.046875 -4.015625 L 14.0625 -4.015625 L 14.0625 0 Z M 18.078125 -8.03125 L 18.078125 -20.078125 L 22.09375 -20.078125 L 22.09375 -8.03125 Z M 18.078125 -8.03125"/></g></g></g><g fill-opacity="1" fill="#ff00ff"><g transform="translate(185.481805, 190.766399)"><g><path d="M 2.015625 0 L 2.015625 -20.078125 L 22.09375 -20.078125 L 22.09375 -16.0625 L 6.03125 -16.0625 L 6.03125 -12.046875 L 18.078125 -12.046875 L 18.078125 -8.03125 L 6.03125 -8.03125 L 6.03125 -4.015625 L 22.09375 -4.015625 L 22.09375 0 Z M 2.015625 0"/></g></g></g><g fill-opacity="1" fill="#ff00ff"><g transform="translate(209.579283, 190.766399)"><g><path d="M 6.03125 0 L 6.03125 -4.015625 L 22.09375 -4.015625 L 22.09375 0 Z M 2.015625 -4.015625 L 2.015625 -20.078125 L 6.03125 -20.078125 L 6.03125 -4.015625 Z M 2.015625 -4.015625"/></g></g></g><g fill-opacity="1" fill="#ff00ff"><g transform="translate(233.676762, 190.766399)"><g/></g></g><g fill-opacity="1" fill="#ff00ff"><g transform="translate(245.725502, 190.766399)"><g><path d="M 2.015625 0 L 2.015625 -4.015625 L 6.03125 -4.015625 L 6.03125 -16.0625 L 2.015625 -16.0625 L 2.015625 -20.078125 L 10.046875 -20.078125 L 10.046875 -4.015625 L 14.0625 -4.015625 L 14.0625 0 Z M 2.015625 0"/></g></g></g><g fill-opacity="1" fill="#00ffff"><g transform="translate(113.189368, 187.180257)"><g><path d="M 6.03125 0 L 6.03125 -4.015625 L 22.09375 -4.015625 L 22.09375 0 Z M 2.015625 -4.015625 L 2.015625 -20.078125 L 6.03125 -20.078125 L 6.03125 -4.015625 Z M 2.015625 -4.015625"/></g></g></g><g fill-opacity="1" fill="#00ffff"><g transform="translate(137.286847, 187.180257)"><g><path d="M 2.015625 0 L 2.015625 -20.078125 L 22.09375 -20.078125 L 22.09375 -16.0625 L 6.03125 -16.0625 L 6.03125 -12.046875 L 18.078125 -12.046875 L 18.078125 -8.03125 L 6.03125 -8.03125 L 6.03125 -4.015625 L 22.09375 -4.015625 L 22.09375 0 Z M 2.015625 0"/></g></g></g><g fill-opacity="1" fill="#00ffff"><g transform="translate(161.384326, 187.180257)"><g><path d="M 18.078125 -8.03125 L 18.078125 -4.015625 L 14.0625 -4.015625 L 14.0625 -8.03125 Z M 2.015625 -8.03125 L 2.015625 -20.078125 L 6.03125 -20.078125 L 6.03125 -8.03125 Z M 6.03125 -4.015625 L 6.03125 -8.03125 L 10.046875 -8.03125 L 10.046875 -4.015625 Z M 10.046875 0 L 10.046875 -4.015625 L 14.0625 -4.015625 L 14.0625 0 Z M 18.078125 -8.03125 L 18.078125 -20.078125 L 22.09375 -20.078125 L 22.09375 -8.03125 Z M 18.078125 -8.03125"/></g></g></g><g fill-opacity="1" fill="#00ffff"><g transform="translate(185.481805, 187.180257)"><g><path d="M 2.015625 0 L 2.015625 -20.078125 L 22.09375 -20.078125 L 22.09375 -16.0625 L 6.03125 -16.0625 L 6.03125 -12.046875 L 18.078125 -12.046875 L 18.078125 -8.03125 L 6.03125 -8.03125 L 6.03125 -4.015625 L 22.09375 -4.015625 L 22.09375 0 Z M 2.015625 0"/></g></g></g><g fill-opacity="1" fill="#00ffff"><g transform="translate(209.579283, 187.180257)"><g><path d="M 6.03125 0 L 6.03125 -4.015625 L 22.09375 -4.015625 L 22.09375 0 Z M 2.015625 -4.015625 L 2.015625 -20.078125 L 6.03125 -20.078125 L 6.03125 -4.015625 Z M 2.015625 -4.015625"/></g></g></g><g fill-opacity="1" fill="#00ffff"><g transform="translate(233.676762, 187.180257)"><g/></g></g><g fill-opacity="1" fill="#00ffff"><g transform="translate(245.725502, 187.180257)"><g><path d="M 2.015625 0 L 2.015625 -4.015625 L 6.03125 -4.015625 L 6.03125 -16.0625 L 2.015625 -16.0625 L 2.015625 -20.078125 L 10.046875 -20.078125 L 10.046875 -4.015625 L 14.0625 -4.015625 L 14.0625 0 Z M 2.015625 0"/></g></g></g><g fill-opacity="1" fill="#ffffff"><g transform="translate(113.189368, 188.973328)"><g><path d="M 6.03125 0 L 6.03125 -4.015625 L 22.09375 -4.015625 L 22.09375 0 Z M 2.015625 -4.015625 L 2.015625 -20.078125 L 6.03125 -20.078125 L 6.03125 -4.015625 Z M 2.015625 -4.015625"/></g></g></g><g fill-opacity="1" fill="#ffffff"><g transform="translate(137.286847, 188.973328)"><g><path d="M 2.015625 0 L 2.015625 -20.078125 L 22.09375 -20.078125 L 22.09375 -16.0625 L 6.03125 -16.0625 L 6.03125 -12.046875 L 18.078125 -12.046875 L 18.078125 -8.03125 L 6.03125 -8.03125 L 6.03125 -4.015625 L 22.09375 -4.015625 L 22.09375 0 Z M 2.015625 0"/></g></g></g><g fill-opacity="1" fill="#ffffff"><g transform="translate(161.384326, 188.973328)"><g><path d="M 18.078125 -8.03125 L 18.078125 -4.015625 L 14.0625 -4.015625 L 14.0625 -8.03125 Z M 2.015625 -8.03125 L 2.015625 -20.078125 L 6.03125 -20.078125 L 6.03125 -8.03125 Z M 6.03125 -4.015625 L 6.03125 -8.03125 L 10.046875 -8.03125 L 10.046875 -4.015625 Z M 10.046875 0 L 10.046875 -4.015625 L 14.0625 -4.015625 L 14.0625 0 Z M 18.078125 -8.03125 L 18.078125 -20.078125 L 22.09375 -20.078125 L 22.09375 -8.03125 Z M 18.078125 -8.03125"/></g></g></g><g fill-opacity="1" fill="#ffffff"><g transform="translate(185.481805, 188.973328)"><g><path d="M 2.015625 0 L 2.015625 -20.078125 L 22.09375 -20.078125 L 22.09375 -16.0625 L 6.03125 -16.0625 L 6.03125 -12.046875 L 18.078125 -12.046875 L 18.078125 -8.03125 L 6.03125 -8.03125 L 6.03125 -4.015625 L 22.09375 -4.015625 L 22.09375 0 Z M 2.015625 0"/></g></g></g><g fill-opacity="1" fill="#ffffff"><g transform="translate(209.579283, 188.973328)"><g><path d="M 6.03125 0 L 6.03125 -4.015625 L 22.09375 -4.015625 L 22.09375 0 Z M 2.015625 -4.015625 L 2.015625 -20.078125 L 6.03125 -20.078125 L 6.03125 -4.015625 Z M 2.015625 -4.015625"/></g></g></g><g fill-opacity="1" fill="#ffffff"><g transform="translate(233.676762, 188.973328)"><g/></g></g><g fill-opacity="1" fill="#ffffff"><g transform="translate(245.725502, 188.973328)"><g><path d="M 2.015625 0 L 2.015625 -4.015625 L 6.03125 -4.015625 L 6.03125 -16.0625 L 2.015625 -16.0625 L 2.015625 -20.078125 L 10.046875 -20.078125 L 10.046875 -4.015625 L 14.0625 -4.015625 L 14.0625 0 Z M 2.015625 0"/></g></g></g></svg>