<svg xmlns="http://www.w3.org/2000/svg" xmlns:xlink="http://www.w3.org/1999/xlink" zoomAndPan="magnify" preserveAspectRatio="xMidYMid meet" version="1.0" viewBox="125.72 123.88 113.53 113.12"><metadata><ContainsAiGeneratedContent>Yes</ContainsAiGeneratedContent></metadata><defs><clipPath id="7f0fda2aaa"><path d="M 184 155 L 238.96875 155 L 238.96875 212 L 184 212 Z M 184 155 " clip-rule="nonzero"/></clipPath><clipPath id="12afb6f340"><path d="M 182 123.890625 L 233 123.890625 L 233 179 L 182 179 Z M 182 123.890625 " clip-rule="nonzero"/></clipPath><clipPath id="bf0af88239"><path d="M 125.71875 126 L 228 126 L 228 237 L 125.71875 237 Z M 125.71875 126 " clip-rule="nonzero"/></clipPath></defs><g clip-path="url(#7f0fda2aaa)"><path fill="#666666" d="M 239.25 181.722656 C 239.25 192.777344 235.992188 203.074219 230.386719 211.703125 L 184.160156 181.722656 L 232.601562 155.464844 C 236.84375 163.269531 239.25 172.214844 239.25 181.722656 Z M 239.25 181.722656 " fill-opacity="1" fill-rule="nonzero"/></g><g clip-path="url(#12afb6f340)"><path fill="#666666" d="M 182.875 178.96875 L 182.875 123.878906 C 204.414062 123.878906 223.066406 136.238281 232.125 154.253906 Z M 182.875 178.96875 " fill-opacity="1" fill-rule="nonzero"/></g><g clip-path="url(#bf0af88239)"><path fill="#666666" d="M 227.078125 211.703125 C 217.257812 226.816406 200.222656 236.8125 180.855469 236.8125 C 150.429688 236.8125 125.765625 212.148438 125.765625 181.722656 C 125.765625 151.296875 150.429688 126.632812 180.855469 126.632812 L 180.855469 181.722656 Z M 227.078125 211.703125 " fill-opacity="1" fill-rule="nonzero"/></g></svg>