<svg version="1.0" preserveAspectRatio="xMidYMid meet" viewBox="92.53125 112.64099729661599 177.75 136.499996724" zoomAndPan="magnify" xmlns:xlink="http://www.w3.org/1999/xlink" xmlns="http://www.w3.org/2000/svg" style="max-height: 500px" width="177.75" height="136.499996724"><metadata>Yes</metadata><defs><clipPath id="afadf4bfec"><path clip-rule="nonzero" d="M 223 166 L 257.402344 166 L 257.402344 170 L 223 170 Z M 223 166"/></clipPath><clipPath id="a3b40325b0"><path clip-rule="nonzero" d="M 124 118.808594 L 236 118.808594 L 236 159 L 124 159 Z M 124 118.808594"/></clipPath><clipPath id="21054ac59c"><path clip-rule="nonzero" d="M 103.652344 168 L 111 168 L 111 172 L 103.652344 172 Z M 103.652344 168"/></clipPath><clipPath id="bee73b6c5c"><path clip-rule="nonzero" d="M 151.3125 230.582031 L 215.632812 230.582031 L 215.632812 240.292969 L 151.3125 240.292969 Z M 151.3125 230.582031"/></clipPath><clipPath id="e2856ae2be"><path clip-rule="nonzero" d="M 250 160 L 257.402344 160 L 257.402344 164 L 250 164 Z M 250 160"/></clipPath></defs><path fill-rule="nonzero" fill-opacity="1" d="M 244.5 218.332031 L 217.445312 218.332031 L 217.445312 220.808594 L 244.5 220.808594 L 244.5 218.332031" fill="#ff00f7"/><path fill-rule="nonzero" fill-opacity="1" d="M 151.199219 218.332031 L 124.148438 218.332031 L 124.148438 220.808594 L 151.199219 220.808594 L 151.199219 218.332031" fill="#ff00f7"/><path fill-rule="nonzero" fill-opacity="1" d="M 247.996094 181.933594 L 220.945312 181.933594 L 220.945312 184.40625 L 247.996094 184.40625 L 247.996094 181.933594" fill="#ff00f7"/><path fill-rule="nonzero" fill-opacity="1" d="M 114.085938 137.324219 L 154.90625 137.324219 L 154.90625 136.464844 L 114.085938 136.464844 Z M 114.085938 137.324219" fill="#ff59fa"/><path fill-rule="nonzero" fill-opacity="1" d="M 188.441406 229.515625 L 229.261719 229.515625 L 229.261719 228.65625 L 188.441406 228.65625 Z M 188.441406 229.515625" fill="#ff59fa"/><path fill-rule="nonzero" fill-opacity="1" d="M 151.316406 172.300781 L 192.136719 172.300781 L 192.136719 171.441406 L 151.316406 171.441406 Z M 151.316406 172.300781" fill="#ff59fa"/><path fill-rule="nonzero" fill-opacity="1" d="M 201.355469 132.8125 L 242.171875 132.8125 L 242.171875 131.949219 L 201.355469 131.949219 Z M 201.355469 132.8125" fill="#59eeff"/><path fill-rule="nonzero" fill-opacity="1" d="M 212.347656 206.425781 L 253.167969 206.425781 L 253.167969 205.566406 L 212.347656 205.566406 Z M 212.347656 206.425781" fill="#59eeff"/><path fill-rule="nonzero" fill-opacity="1" d="M 174.917969 187.480469 L 215.734375 187.480469 L 215.734375 186.617188 L 174.917969 186.617188 Z M 174.917969 187.480469" fill="#59eeff"/><path fill-rule="nonzero" fill-opacity="1" d="M 110.09375 215.765625 L 150.914062 215.765625 L 150.914062 214.90625 L 110.09375 214.90625 Z M 110.09375 215.765625" fill="#59eeff"/><path fill-rule="nonzero" fill-opacity="1" d="M 158.785156 129.90625 L 131.734375 129.90625 L 131.734375 132.378906 L 158.785156 132.378906 L 158.785156 129.90625" fill="#00e5ff"/><path fill-rule="nonzero" fill-opacity="1" d="M 242.789062 149.714844 L 215.734375 149.714844 L 215.734375 152.191406 L 242.789062 152.191406 L 242.789062 149.714844" fill="#00e5ff"/><path fill-rule="nonzero" fill-opacity="1" d="M 134.496094 203.523438 L 107.441406 203.523438 L 107.441406 205.996094 L 134.496094 205.996094 L 134.496094 203.523438" fill="#00e5ff"/><path fill-rule="nonzero" fill-opacity="1" d="M 189.574219 128.90625 L 222.992188 128.90625 L 222.992188 125.878906 L 189.574219 125.878906 Z M 189.574219 128.90625" fill="#59eeff"/><path fill-rule="nonzero" fill-opacity="1" d="M 117.21875 163.679688 L 150.632812 163.679688 L 150.632812 160.652344 L 117.21875 160.652344 Z M 117.21875 163.679688" fill="#59eeff"/><g clip-path="url(#afadf4bfec)"><path fill-rule="nonzero" fill-opacity="1" d="M 223.984375 169.390625 L 257.402344 169.390625 L 257.402344 166.363281 L 223.984375 166.363281 Z M 223.984375 169.390625" fill="#ff59fa"/></g><path fill-rule="nonzero" fill-opacity="1" d="M 209.773438 177.84375 L 162.53125 206.1875 L 162.53125 173.585938 L 121.140625 173.585938 C 121.039062 174.992188 120.96875 176.410156 120.96875 177.84375 C 120.96875 188.613281 123.867188 198.699219 128.902344 207.390625 L 231.046875 207.390625 C 236.082031 198.699219 238.980469 188.613281 238.980469 177.84375 C 238.980469 176.410156 238.914062 174.992188 238.8125 173.585938 L 202.679688 173.585938 L 209.773438 177.84375" fill="#00e5ff"/><path fill-rule="nonzero" fill-opacity="1" d="M 147.894531 229.085938 L 212.054688 229.085938 C 219.851562 224.019531 226.375 217.167969 231.046875 209.105469 L 128.902344 209.105469 C 133.578125 217.167969 140.097656 224.019531 147.894531 229.085938" fill="#00e5ff"/><path fill-rule="nonzero" fill-opacity="1" d="M 179.976562 236.867188 C 191.808594 236.867188 202.816406 233.371094 212.054688 227.375 L 147.894531 227.375 C 157.132812 233.371094 168.140625 236.867188 179.976562 236.867188" fill="#00e5ff"/><g clip-path="url(#a3b40325b0)"><path fill-rule="nonzero" fill-opacity="1" d="M 162.53125 149.5 L 177.9375 158.742188 L 235.804688 158.742188 C 227.863281 135.523438 205.878906 118.816406 179.976562 118.816406 C 154.074219 118.816406 132.085938 135.523438 124.148438 158.742188 L 162.53125 158.742188 L 162.53125 149.5" fill="#00e5ff"/></g><path fill-rule="nonzero" fill-opacity="1" d="M 165.957031 157.03125 L 127.570312 157.03125 C 125.957031 161.738281 124.929688 166.714844 124.5625 171.875 L 165.957031 171.875 L 165.957031 157.03125" fill="#00e5ff"/><path fill-rule="nonzero" fill-opacity="1" d="M 181.363281 157.03125 L 206.105469 171.875 L 242.234375 171.875 C 241.867188 166.714844 240.835938 161.738281 239.226562 157.03125 L 181.363281 157.03125" fill="#00e5ff"/><path fill-rule="nonzero" fill-opacity="1" d="M 243.300781 160.453125 L 211.796875 160.453125 L 211.796875 157.027344 L 243.300781 157.027344 L 243.300781 160.453125" fill="#00e5ff"/><path fill-rule="nonzero" fill-opacity="1" d="M 247.265625 160.453125 L 253.621094 160.453125 L 253.621094 157.027344 L 247.265625 157.027344 L 247.265625 160.453125" fill="#00e5ff"/><path fill-rule="nonzero" fill-opacity="1" d="M 124.148438 229.085938 L 130.5 229.085938 L 130.5 225.660156 L 124.148438 225.660156 L 124.148438 229.085938" fill="#00e5ff"/><path fill-rule="nonzero" fill-opacity="1" d="M 113.96875 171.875 L 145.472656 171.875 L 145.472656 168.449219 L 113.96875 168.449219 L 113.96875 171.875" fill="#00e5ff"/><path fill-rule="nonzero" fill-opacity="1" d="M 204.300781 212.53125 L 235.804688 212.53125 L 235.804688 209.105469 L 204.300781 209.105469 L 204.300781 212.53125" fill="#00e5ff"/><path fill-rule="nonzero" fill-opacity="1" d="M 133.5625 229.085938 L 165.066406 229.085938 L 165.066406 225.660156 L 133.5625 225.660156 L 133.5625 229.085938" fill="#00e5ff"/><g clip-path="url(#21054ac59c)"><path fill-rule="nonzero" fill-opacity="1" d="M 110.007812 171.875 L 103.652344 171.875 L 103.652344 168.449219 L 110.007812 168.449219 L 110.007812 171.875" fill="#00e5ff"/></g><path fill-rule="nonzero" fill-opacity="1" d="M 213.199219 181.265625 L 165.957031 209.613281 L 165.957031 177.011719 L 124.5625 177.011719 C 124.460938 178.417969 124.394531 179.835938 124.394531 181.265625 C 124.394531 192.039062 127.289062 202.125 132.324219 210.816406 L 234.46875 210.816406 C 239.507812 202.125 242.402344 192.039062 242.402344 181.265625 C 242.402344 179.835938 242.335938 178.417969 242.234375 177.011719 L 206.105469 177.011719 L 213.199219 181.265625" fill="#ff00f7"/><path fill-rule="nonzero" fill-opacity="1" d="M 151.316406 232.507812 L 215.476562 232.507812 C 223.273438 227.445312 229.796875 220.589844 234.46875 212.527344 L 132.324219 212.527344 C 137 220.589844 143.523438 227.445312 151.316406 232.507812" fill="#ff00f7"/><g clip-path="url(#bee73b6c5c)"><path fill-rule="nonzero" fill-opacity="1" d="M 183.398438 240.292969 C 195.230469 240.292969 206.242188 236.792969 215.476562 230.796875 L 151.316406 230.796875 C 160.554688 236.792969 171.566406 240.292969 183.398438 240.292969" fill="#ff00f7"/></g><path fill-rule="nonzero" fill-opacity="1" d="M 165.957031 152.921875 L 181.363281 162.167969 L 239.226562 162.167969 C 231.289062 138.945312 209.300781 122.242188 183.398438 122.242188 C 157.496094 122.242188 135.507812 138.945312 127.570312 162.167969 L 165.957031 162.167969 L 165.957031 152.921875" fill="#ff00f7"/><path fill-rule="nonzero" fill-opacity="1" d="M 169.378906 160.453125 L 130.992188 160.453125 C 129.382812 165.164062 128.351562 170.136719 127.984375 175.300781 L 169.378906 175.300781 L 169.378906 160.453125" fill="#ff00f7"/><path fill-rule="nonzero" fill-opacity="1" d="M 184.78125 160.453125 L 209.527344 175.300781 L 245.65625 175.300781 C 245.289062 170.136719 244.261719 165.164062 242.648438 160.453125 L 184.78125 160.453125" fill="#ff00f7"/><path fill-rule="nonzero" fill-opacity="1" d="M 246.722656 163.878906 L 215.21875 163.878906 L 215.21875 160.453125 L 246.722656 160.453125 L 246.722656 163.878906" fill="#ff00f7"/><g clip-path="url(#e2856ae2be)"><path fill-rule="nonzero" fill-opacity="1" d="M 250.6875 163.878906 L 257.042969 163.878906 L 257.042969 160.453125 L 250.6875 160.453125 L 250.6875 163.878906" fill="#ff00f7"/></g><path fill-rule="nonzero" fill-opacity="1" d="M 127.570312 232.507812 L 133.925781 232.507812 L 133.925781 229.082031 L 127.570312 229.082031 L 127.570312 232.507812" fill="#ff00f7"/><path fill-rule="nonzero" fill-opacity="1" d="M 117.394531 175.300781 L 148.894531 175.300781 L 148.894531 171.871094 L 117.394531 171.871094 L 117.394531 175.300781" fill="#ff00f7"/><path fill-rule="nonzero" fill-opacity="1" d="M 207.722656 215.953125 L 239.226562 215.953125 L 239.226562 212.527344 L 207.722656 212.527344 L 207.722656 215.953125" fill="#ff00f7"/><path fill-rule="nonzero" fill-opacity="1" d="M 136.984375 232.507812 L 168.488281 232.507812 L 168.488281 229.082031 L 136.984375 229.082031 L 136.984375 232.507812" fill="#ff00f7"/><path fill-rule="nonzero" fill-opacity="1" d="M 113.429688 175.300781 L 107.074219 175.300781 L 107.074219 171.871094 L 113.429688 171.871094 L 113.429688 175.300781" fill="#ff00f7"/><path fill-rule="nonzero" fill-opacity="1" d="M 211.484375 179.554688 L 164.242188 207.902344 L 164.242188 175.300781 L 122.851562 175.300781 C 122.75 176.707031 122.679688 178.121094 122.679688 179.554688 C 122.679688 190.324219 125.578125 200.410156 130.613281 209.105469 L 232.757812 209.105469 C 237.792969 200.410156 240.691406 190.324219 240.691406 179.554688 C 240.691406 178.121094 240.625 176.707031 240.523438 175.300781 L 204.390625 175.300781 L 211.484375 179.554688" fill="#ffffff"/><path fill-rule="nonzero" fill-opacity="1" d="M 149.605469 230.796875 L 213.765625 230.796875 C 221.566406 225.730469 228.085938 218.878906 232.757812 210.816406 L 130.613281 210.816406 C 135.289062 218.878906 141.808594 225.730469 149.605469 230.796875" fill="#ffffff"/><path fill-rule="nonzero" fill-opacity="1" d="M 181.6875 238.582031 C 193.519531 238.582031 204.527344 235.082031 213.765625 229.085938 L 149.605469 229.085938 C 158.84375 235.082031 169.855469 238.582031 181.6875 238.582031" fill="#ffffff"/><path fill-rule="nonzero" fill-opacity="1" d="M 164.242188 151.210938 L 179.652344 160.453125 L 237.515625 160.453125 C 229.578125 137.230469 207.589844 120.53125 181.6875 120.53125 C 155.785156 120.53125 133.796875 137.230469 125.859375 160.453125 L 164.242188 160.453125 L 164.242188 151.210938" fill="#ffffff"/><path fill-rule="nonzero" fill-opacity="1" d="M 167.667969 158.742188 L 129.28125 158.742188 C 127.671875 163.449219 126.640625 168.425781 126.273438 173.585938 L 167.667969 173.585938 L 167.667969 158.742188" fill="#ffffff"/><path fill-rule="nonzero" fill-opacity="1" d="M 183.074219 158.742188 L 207.8125 173.585938 L 243.945312 173.585938 C 243.578125 168.425781 242.546875 163.449219 240.9375 158.742188 L 183.074219 158.742188" fill="#ffffff"/><path fill-rule="nonzero" fill-opacity="1" d="M 245.011719 162.167969 L 213.507812 162.167969 L 213.507812 158.742188 L 245.011719 158.742188 L 245.011719 162.167969" fill="#ffffff"/><path fill-rule="nonzero" fill-opacity="1" d="M 248.976562 162.167969 L 255.332031 162.167969 L 255.332031 158.742188 L 248.976562 158.742188 L 248.976562 162.167969" fill="#ffffff"/><path fill-rule="nonzero" fill-opacity="1" d="M 125.859375 230.800781 L 132.214844 230.800781 L 132.214844 227.371094 L 125.859375 227.371094 L 125.859375 230.800781" fill="#ffffff"/><path fill-rule="nonzero" fill-opacity="1" d="M 115.679688 173.585938 L 147.183594 173.585938 L 147.183594 170.160156 L 115.679688 170.160156 L 115.679688 173.585938" fill="#ffffff"/><path fill-rule="nonzero" fill-opacity="1" d="M 206.011719 214.242188 L 237.515625 214.242188 L 237.515625 210.816406 L 206.011719 210.816406 L 206.011719 214.242188" fill="#ffffff"/><path fill-rule="nonzero" fill-opacity="1" d="M 135.273438 230.800781 L 166.777344 230.800781 L 166.777344 227.371094 L 135.273438 227.371094 L 135.273438 230.800781" fill="#ffffff"/><path fill-rule="nonzero" fill-opacity="1" d="M 111.71875 173.585938 L 105.359375 173.585938 L 105.359375 170.160156 L 111.71875 170.160156 L 111.71875 173.585938" fill="#ffffff"/></svg>