<svg version="1.0" preserveAspectRatio="xMidYMid meet" viewBox="49.771874999999994 66.721873398675 252.75000000000003 208.49999499600003" zoomAndPan="magnify" xmlns:xlink="http://www.w3.org/1999/xlink" xmlns="http://www.w3.org/2000/svg" style="max-height: 500px" width="252.75000000000003" height="208.49999499600003"><defs><clipPath id="f26d38469c"><path clip-rule="nonzero" d="M 244 149 L 297.683594 149 L 297.683594 155 L 244 155 Z M 244 149"/></clipPath><clipPath id="f82020c5e4"><path clip-rule="nonzero" d="M 83 72.816406 L 264 72.816406 L 264 138 L 83 138 Z M 83 72.816406"/></clipPath><clipPath id="68ae2bb7d9"><path clip-rule="nonzero" d="M 50.183594 152 L 61 152 L 61 159 L 50.183594 159 Z M 50.183594 152"/></clipPath><clipPath id="4fce72a8c6"><path clip-rule="nonzero" d="M 126.960938 253 L 230.566406 253 L 230.566406 268.445312 L 126.960938 268.445312 Z M 126.960938 253"/></clipPath><clipPath id="85a047819b"><path clip-rule="nonzero" d="M 287 139 L 297.683594 139 L 297.683594 146 L 287 146 Z M 287 139"/></clipPath></defs><path fill-rule="nonzero" fill-opacity="1" d="M 277.066406 233.085938 L 233.488281 233.085938 L 233.488281 237.066406 L 277.066406 237.066406 L 277.066406 233.085938" fill="#ff00f7"/><path fill-rule="nonzero" fill-opacity="1" d="M 126.777344 233.085938 L 83.199219 233.085938 L 83.199219 237.066406 L 126.777344 237.066406 L 126.777344 233.085938" fill="#ff00f7"/><path fill-rule="nonzero" fill-opacity="1" d="M 282.699219 174.472656 L 239.121094 174.472656 L 239.121094 178.449219 L 282.699219 178.449219 L 282.699219 174.472656" fill="#ff00f7"/><path fill-rule="nonzero" fill-opacity="1" d="M 66.996094 102.636719 L 132.746094 102.636719 L 132.746094 101.253906 L 66.996094 101.253906 Z M 66.996094 102.636719" fill="#ff59fa"/><path fill-rule="nonzero" fill-opacity="1" d="M 186.769531 251.09375 L 252.519531 251.09375 L 252.519531 249.707031 L 186.769531 249.707031 Z M 186.769531 251.09375" fill="#ff59fa"/><path fill-rule="nonzero" fill-opacity="1" d="M 126.964844 158.960938 L 192.722656 158.960938 L 192.722656 157.574219 L 126.964844 157.574219 Z M 126.964844 158.960938" fill="#ff59fa"/><path fill-rule="nonzero" fill-opacity="1" d="M 207.566406 95.371094 L 273.320312 95.371094 L 273.320312 93.984375 L 207.566406 93.984375 Z M 207.566406 95.371094" fill="#59eeff"/><path fill-rule="nonzero" fill-opacity="1" d="M 225.277344 213.910156 L 291.027344 213.910156 L 291.027344 212.523438 L 225.277344 212.523438 Z M 225.277344 213.910156" fill="#59eeff"/><path fill-rule="nonzero" fill-opacity="1" d="M 164.980469 183.398438 L 230.730469 183.398438 L 230.730469 182.011719 L 164.980469 182.011719 Z M 164.980469 183.398438" fill="#59eeff"/><path fill-rule="nonzero" fill-opacity="1" d="M 60.5625 228.949219 L 126.3125 228.949219 L 126.3125 227.5625 L 60.5625 227.5625 Z M 60.5625 228.949219" fill="#59eeff"/><path fill-rule="nonzero" fill-opacity="1" d="M 138.996094 90.695312 L 95.417969 90.695312 L 95.417969 94.675781 L 138.996094 94.675781 L 138.996094 90.695312" fill="#00e5ff"/><path fill-rule="nonzero" fill-opacity="1" d="M 274.308594 122.59375 L 230.730469 122.59375 L 230.730469 126.574219 L 274.308594 126.574219 L 274.308594 122.59375" fill="#00e5ff"/><path fill-rule="nonzero" fill-opacity="1" d="M 99.871094 209.238281 L 56.292969 209.238281 L 56.292969 213.214844 L 99.871094 213.214844 L 99.871094 209.238281" fill="#00e5ff"/><path fill-rule="nonzero" fill-opacity="1" d="M 188.59375 89.082031 L 242.421875 89.082031 L 242.421875 84.207031 L 188.59375 84.207031 Z M 188.59375 89.082031" fill="#59eeff"/><path fill-rule="nonzero" fill-opacity="1" d="M 72.039062 145.078125 L 125.863281 145.078125 L 125.863281 140.203125 L 72.039062 140.203125 Z M 72.039062 145.078125" fill="#59eeff"/><g clip-path="url(#f26d38469c)"><path fill-rule="nonzero" fill-opacity="1" d="M 244.019531 154.269531 L 297.847656 154.269531 L 297.847656 149.398438 L 244.019531 149.398438 Z M 244.019531 154.269531" fill="#ff59fa"/></g><path fill-rule="nonzero" fill-opacity="1" d="M 221.132812 167.882812 L 145.03125 213.527344 L 145.03125 161.027344 L 78.355469 161.027344 C 78.191406 163.296875 78.082031 165.578125 78.082031 167.882812 C 78.082031 185.226562 82.746094 201.46875 90.859375 215.464844 L 255.394531 215.464844 C 263.511719 201.46875 268.179688 185.226562 268.179688 167.882812 C 268.179688 165.578125 268.066406 163.296875 267.902344 161.027344 L 209.703125 161.027344 L 221.132812 167.882812" fill="#00e5ff"/><path fill-rule="nonzero" fill-opacity="1" d="M 121.453125 250.398438 L 224.804688 250.398438 C 237.363281 242.242188 247.871094 231.207031 255.394531 218.222656 L 90.859375 218.222656 C 98.390625 231.207031 108.894531 242.242188 121.453125 250.398438" fill="#00e5ff"/><path fill-rule="nonzero" fill-opacity="1" d="M 173.128906 262.933594 C 192.191406 262.933594 209.925781 257.300781 224.804688 247.640625 L 121.453125 247.640625 C 136.332031 257.300781 154.066406 262.933594 173.128906 262.933594" fill="#00e5ff"/><g clip-path="url(#f82020c5e4)"><path fill-rule="nonzero" fill-opacity="1" d="M 145.03125 122.242188 L 169.847656 137.125 L 263.058594 137.125 C 250.269531 99.734375 214.855469 72.835938 173.128906 72.835938 C 131.40625 72.835938 95.988281 99.734375 83.199219 137.125 L 145.03125 137.125 L 145.03125 122.242188" fill="#00e5ff"/></g><path fill-rule="nonzero" fill-opacity="1" d="M 150.546875 134.367188 L 88.710938 134.367188 C 86.117188 141.953125 84.460938 149.960938 83.867188 158.273438 L 150.546875 158.273438 L 150.546875 134.367188" fill="#00e5ff"/><path fill-rule="nonzero" fill-opacity="1" d="M 175.363281 134.367188 L 215.21875 158.273438 L 273.417969 158.273438 C 272.828125 149.960938 271.164062 141.953125 268.574219 134.367188 L 175.363281 134.367188" fill="#00e5ff"/><path fill-rule="nonzero" fill-opacity="1" d="M 275.136719 139.882812 L 224.390625 139.882812 L 224.390625 134.367188 L 275.136719 134.367188 L 275.136719 139.882812" fill="#00e5ff"/><path fill-rule="nonzero" fill-opacity="1" d="M 281.519531 139.882812 L 291.757812 139.882812 L 291.757812 134.367188 L 281.519531 134.367188 L 281.519531 139.882812" fill="#00e5ff"/><path fill-rule="nonzero" fill-opacity="1" d="M 83.199219 250.398438 L 93.4375 250.398438 L 93.4375 244.882812 L 83.199219 244.882812 L 83.199219 250.398438" fill="#00e5ff"/><path fill-rule="nonzero" fill-opacity="1" d="M 66.804688 158.273438 L 117.550781 158.273438 L 117.550781 152.757812 L 66.804688 152.757812 L 66.804688 158.273438" fill="#00e5ff"/><path fill-rule="nonzero" fill-opacity="1" d="M 212.3125 223.742188 L 263.058594 223.742188 L 263.058594 218.222656 L 212.3125 218.222656 L 212.3125 223.742188" fill="#00e5ff"/><path fill-rule="nonzero" fill-opacity="1" d="M 98.367188 250.398438 L 149.113281 250.398438 L 149.113281 244.882812 L 98.367188 244.882812 L 98.367188 250.398438" fill="#00e5ff"/><g clip-path="url(#68ae2bb7d9)"><path fill-rule="nonzero" fill-opacity="1" d="M 60.421875 158.273438 L 50.183594 158.273438 L 50.183594 152.757812 L 60.421875 152.757812 L 60.421875 158.273438" fill="#00e5ff"/></g><path fill-rule="nonzero" fill-opacity="1" d="M 226.644531 173.398438 L 150.546875 219.039062 L 150.546875 166.542969 L 83.867188 166.542969 C 83.707031 168.8125 83.59375 171.089844 83.59375 173.398438 C 83.59375 190.742188 88.261719 206.980469 96.375 220.980469 L 260.910156 220.980469 C 269.023438 206.980469 273.691406 190.742188 273.691406 173.398438 C 273.691406 171.089844 273.578125 168.8125 273.417969 166.542969 L 215.21875 166.542969 L 226.644531 173.398438" fill="#ff00f7"/><path fill-rule="nonzero" fill-opacity="1" d="M 126.964844 255.910156 L 230.316406 255.910156 C 242.875 247.757812 253.382812 236.71875 260.910156 223.734375 L 96.375 223.734375 C 103.902344 236.71875 114.410156 247.757812 126.964844 255.910156" fill="#ff00f7"/><g clip-path="url(#4fce72a8c6)"><path fill-rule="nonzero" fill-opacity="1" d="M 178.640625 268.445312 C 197.703125 268.445312 215.441406 262.8125 230.316406 253.152344 L 126.964844 253.152344 C 141.847656 262.8125 159.582031 268.445312 178.640625 268.445312" fill="#ff00f7"/></g><path fill-rule="nonzero" fill-opacity="1" d="M 150.546875 127.753906 L 175.363281 142.640625 L 268.574219 142.640625 C 255.785156 105.246094 220.367188 78.351562 178.640625 78.351562 C 136.917969 78.351562 101.5 105.246094 88.710938 142.640625 L 150.546875 142.640625 L 150.546875 127.753906" fill="#ff00f7"/><path fill-rule="nonzero" fill-opacity="1" d="M 156.058594 139.882812 L 94.222656 139.882812 C 91.632812 147.464844 89.972656 155.476562 89.378906 163.785156 L 156.058594 163.785156 L 156.058594 139.882812" fill="#ff00f7"/><path fill-rule="nonzero" fill-opacity="1" d="M 180.871094 139.882812 L 220.730469 163.785156 L 278.929688 163.785156 C 278.339844 155.476562 276.679688 147.464844 274.085938 139.882812 L 180.871094 139.882812" fill="#ff00f7"/><path fill-rule="nonzero" fill-opacity="1" d="M 280.648438 145.398438 L 229.902344 145.398438 L 229.902344 139.878906 L 280.648438 139.878906 L 280.648438 145.398438" fill="#ff00f7"/><g clip-path="url(#85a047819b)"><path fill-rule="nonzero" fill-opacity="1" d="M 287.035156 145.398438 L 297.273438 145.398438 L 297.273438 139.878906 L 287.035156 139.878906 L 287.035156 145.398438" fill="#ff00f7"/></g><path fill-rule="nonzero" fill-opacity="1" d="M 88.710938 255.910156 L 98.953125 255.910156 L 98.953125 250.394531 L 88.710938 250.394531 L 88.710938 255.910156" fill="#ff00f7"/><path fill-rule="nonzero" fill-opacity="1" d="M 72.320312 163.785156 L 123.066406 163.785156 L 123.066406 158.269531 L 72.320312 158.269531 L 72.320312 163.785156" fill="#ff00f7"/><path fill-rule="nonzero" fill-opacity="1" d="M 217.828125 229.253906 L 268.574219 229.253906 L 268.574219 223.734375 L 217.828125 223.734375 L 217.828125 229.253906" fill="#ff00f7"/><path fill-rule="nonzero" fill-opacity="1" d="M 103.878906 255.910156 L 154.625 255.910156 L 154.625 250.394531 L 103.878906 250.394531 L 103.878906 255.910156" fill="#ff00f7"/><path fill-rule="nonzero" fill-opacity="1" d="M 65.9375 163.785156 L 55.695312 163.785156 L 55.695312 158.269531 L 65.9375 158.269531 L 65.9375 163.785156" fill="#ff00f7"/><path fill-rule="nonzero" fill-opacity="1" d="M 223.886719 170.640625 L 147.785156 216.285156 L 147.785156 163.785156 L 81.109375 163.785156 C 80.949219 166.050781 80.839844 168.335938 80.839844 170.640625 C 80.839844 187.984375 85.503906 204.222656 93.617188 218.222656 L 258.15625 218.222656 C 266.265625 204.222656 270.933594 187.984375 270.933594 170.640625 C 270.933594 168.335938 270.820312 166.050781 270.660156 163.785156 L 212.460938 163.785156 L 223.886719 170.640625" fill="#3939ff"/><path fill-rule="nonzero" fill-opacity="1" d="M 124.210938 253.152344 L 227.558594 253.152344 C 240.121094 245 250.625 233.964844 258.15625 220.980469 L 93.617188 220.980469 C 101.144531 233.964844 111.652344 245 124.210938 253.152344" fill="#3939ff"/><path fill-rule="nonzero" fill-opacity="1" d="M 175.882812 265.691406 C 194.949219 265.691406 212.679688 260.058594 227.558594 250.398438 L 124.210938 250.398438 C 139.089844 260.058594 156.824219 265.691406 175.882812 265.691406" fill="#3939ff"/><path fill-rule="nonzero" fill-opacity="1" d="M 147.785156 124.996094 L 172.605469 139.882812 L 265.816406 139.882812 C 253.03125 102.488281 217.609375 75.59375 175.882812 75.59375 C 134.160156 75.59375 98.742188 102.488281 85.957031 139.882812 L 147.785156 139.882812 L 147.785156 124.996094" fill="#3939ff"/><path fill-rule="nonzero" fill-opacity="1" d="M 153.300781 137.125 L 91.46875 137.125 C 88.875 144.707031 87.21875 152.71875 86.625 161.027344 L 153.300781 161.027344 L 153.300781 137.125" fill="#3939ff"/><path fill-rule="nonzero" fill-opacity="1" d="M 178.117188 137.125 L 217.972656 161.027344 L 276.171875 161.027344 C 275.582031 152.71875 273.921875 144.707031 271.328125 137.125 L 178.117188 137.125" fill="#3939ff"/><path fill-rule="nonzero" fill-opacity="1" d="M 277.894531 142.640625 L 227.148438 142.640625 L 227.148438 137.121094 L 277.894531 137.121094 L 277.894531 142.640625" fill="#3939ff"/><path fill-rule="nonzero" fill-opacity="1" d="M 284.277344 142.640625 L 294.515625 142.640625 L 294.515625 137.121094 L 284.277344 137.121094 L 284.277344 142.640625" fill="#3939ff"/><path fill-rule="nonzero" fill-opacity="1" d="M 85.957031 253.15625 L 96.195312 253.15625 L 96.195312 247.636719 L 85.957031 247.636719 L 85.957031 253.15625" fill="#3939ff"/><path fill-rule="nonzero" fill-opacity="1" d="M 69.5625 161.027344 L 120.308594 161.027344 L 120.308594 155.511719 L 69.5625 155.511719 L 69.5625 161.027344" fill="#3939ff"/><path fill-rule="nonzero" fill-opacity="1" d="M 215.070312 226.496094 L 265.816406 226.496094 L 265.816406 220.980469 L 215.070312 220.980469 L 215.070312 226.496094" fill="#3939ff"/><path fill-rule="nonzero" fill-opacity="1" d="M 101.125 253.15625 L 151.867188 253.15625 L 151.867188 247.636719 L 101.125 247.636719 L 101.125 253.15625" fill="#3939ff"/><path fill-rule="nonzero" fill-opacity="1" d="M 63.179688 161.027344 L 52.9375 161.027344 L 52.9375 155.511719 L 63.179688 155.511719 L 63.179688 161.027344" fill="#3939ff"/></svg>