<svg xmlns="http://www.w3.org/2000/svg" xmlns:xlink="http://www.w3.org/1999/xlink" width="500" zoomAndPan="magnify" viewBox="0 0 375 374.999991" height="500" preserveAspectRatio="xMidYMid meet" version="1.0"><metadata><ContainsAiGeneratedContent>Yes</ContainsAiGeneratedContent></metadata><defs><clipPath id="6efdbb32af"><path d="M 107.65625 68.378906 L 267.40625 68.378906 L 267.40625 276.878906 L 107.65625 276.878906 Z M 107.65625 68.378906 " clip-rule="nonzero"/></clipPath></defs><g clip-path="url(#6efdbb32af)"><path fill="#dad9d9" d="M 187.519531 208.164062 C 153.144531 208.164062 125.183594 180.199219 125.183594 145.824219 C 125.183594 111.453125 153.144531 83.488281 187.519531 83.488281 C 221.890625 83.488281 249.859375 111.453125 249.859375 145.824219 C 249.859375 180.199219 221.890625 208.164062 187.519531 208.164062 Z M 237.042969 205.378906 C 254.113281 191.167969 264.988281 169.773438 264.988281 145.824219 C 264.988281 103.039062 230.304688 68.355469 187.519531 68.355469 C 144.734375 68.355469 110.050781 103.039062 110.050781 145.824219 C 110.050781 169.773438 120.925781 191.167969 137.996094 205.378906 L 107.777344 254.121094 L 135.898438 250.117188 L 144.816406 277.085938 L 178.515625 222.726562 C 181.476562 223.070312 184.46875 223.292969 187.519531 223.292969 C 190.570312 223.292969 193.5625 223.070312 196.523438 222.730469 L 230.222656 277.085938 L 239.140625 250.117188 L 267.261719 254.121094 L 237.042969 205.378906 " fill-opacity="1" fill-rule="nonzero"/></g><path fill="#dad9d9" d="M 211.894531 180.539062 L 187.417969 167.574219 L 162.851562 180.394531 L 167.625 153.105469 L 147.847656 133.707031 L 175.269531 129.808594 L 187.609375 105 L 199.789062 129.875 L 227.191406 133.9375 L 207.292969 153.222656 Z M 187.519531 93.929688 C 158.902344 93.929688 135.625 117.210938 135.625 145.824219 C 135.625 174.441406 158.902344 197.722656 187.519531 197.722656 C 216.132812 197.722656 239.417969 174.441406 239.417969 145.824219 C 239.417969 117.210938 216.132812 93.929688 187.519531 93.929688 " fill-opacity="1" fill-rule="nonzero"/></svg>