<svg version="1.0" preserveAspectRatio="xMidYMid meet" viewBox="92.8125 127.0124969517 192 72.749998254" zoomAndPan="magnify" xmlns:xlink="http://www.w3.org/1999/xlink" xmlns="http://www.w3.org/2000/svg" style="max-height: 500px" width="192" height="72.749998254"><defs><g/></defs><g fill-opacity="1" fill="#ff00ff"><g transform="translate(98.15082, 156.284209)"><g><path d="M 10.046875 0 L 10.046875 -16.0625 L 2.015625 -16.0625 L 2.015625 -20.078125 L 22.09375 -20.078125 L 22.09375 -16.0625 L 14.0625 -16.0625 L 14.0625 0 Z M 10.046875 0"/></g></g></g><g fill-opacity="1" fill="#ff00ff"><g transform="translate(120.233528, 156.284209)"><g><path d="M 2.015625 0 L 2.015625 -16.0625 L 6.03125 -16.0625 L 6.03125 -8.03125 L 18.078125 -8.03125 L 18.078125 -16.0625 L 22.09375 -16.0625 L 22.09375 0 L 18.078125 0 L 18.078125 -4.015625 L 6.03125 -4.015625 L 6.03125 0 Z M 6.03125 -16.0625 L 6.03125 -20.078125 L 18.078125 -20.078125 L 18.078125 -16.0625 Z M 6.03125 -16.0625"/></g></g></g><g fill-opacity="1" fill="#ff00ff"><g transform="translate(144.324434, 156.284209)"><g><path d="M 2.015625 0 L 2.015625 -20.078125 L 6.03125 -20.078125 L 6.03125 -12.046875 L 14.0625 -12.046875 L 14.0625 -8.03125 L 6.03125 -8.03125 L 6.03125 0 Z M 14.0625 -4.015625 L 14.0625 -8.03125 L 18.078125 -8.03125 L 18.078125 -4.015625 Z M 14.0625 -12.046875 L 14.0625 -16.0625 L 18.078125 -16.0625 L 18.078125 -12.046875 Z M 18.078125 0 L 18.078125 -4.015625 L 22.09375 -4.015625 L 22.09375 0 Z M 18.078125 -16.0625 L 18.078125 -20.078125 L 22.09375 -20.078125 L 22.09375 -16.0625 Z M 18.078125 -16.0625"/></g></g></g><g fill-opacity="1" fill="#ff00ff"><g transform="translate(168.41534, 156.284209)"><g><path d="M 2.015625 0 L 2.015625 -20.078125 L 22.09375 -20.078125 L 22.09375 -16.0625 L 6.03125 -16.0625 L 6.03125 -12.046875 L 18.078125 -12.046875 L 18.078125 -8.03125 L 6.03125 -8.03125 L 6.03125 -4.015625 L 22.09375 -4.015625 L 22.09375 0 Z M 2.015625 0"/></g></g></g><g fill-opacity="1" fill="#ff00ff"><g transform="translate(192.506245, 156.284209)"><g/></g></g><g fill-opacity="1" fill="#ff00ff"><g transform="translate(204.551698, 156.284209)"><g><path d="M 10.046875 0 L 10.046875 -16.0625 L 2.015625 -16.0625 L 2.015625 -20.078125 L 22.09375 -20.078125 L 22.09375 -16.0625 L 14.0625 -16.0625 L 14.0625 0 Z M 10.046875 0"/></g></g></g><g fill-opacity="1" fill="#ff00ff"><g transform="translate(228.642604, 156.284209)"><g><path d="M 2.015625 0 L 2.015625 -20.078125 L 6.03125 -20.078125 L 6.03125 -12.046875 L 18.078125 -12.046875 L 18.078125 -20.078125 L 22.09375 -20.078125 L 22.09375 0 L 18.078125 0 L 18.078125 -8.03125 L 6.03125 -8.03125 L 6.03125 0 Z M 2.015625 0"/></g></g></g><g fill-opacity="1" fill="#ff00ff"><g transform="translate(252.733509, 156.284209)"><g><path d="M 2.015625 0 L 2.015625 -20.078125 L 22.09375 -20.078125 L 22.09375 -16.0625 L 6.03125 -16.0625 L 6.03125 -12.046875 L 18.078125 -12.046875 L 18.078125 -8.03125 L 6.03125 -8.03125 L 6.03125 -4.015625 L 22.09375 -4.015625 L 22.09375 0 Z M 2.015625 0"/></g></g></g><g fill-opacity="1" fill="#00ffff"><g transform="translate(98.15082, 152.698064)"><g><path d="M 10.046875 0 L 10.046875 -16.0625 L 2.015625 -16.0625 L 2.015625 -20.078125 L 22.09375 -20.078125 L 22.09375 -16.0625 L 14.0625 -16.0625 L 14.0625 0 Z M 10.046875 0"/></g></g></g><g fill-opacity="1" fill="#00ffff"><g transform="translate(120.233528, 152.698064)"><g><path d="M 2.015625 0 L 2.015625 -16.0625 L 6.03125 -16.0625 L 6.03125 -8.03125 L 18.078125 -8.03125 L 18.078125 -16.0625 L 22.09375 -16.0625 L 22.09375 0 L 18.078125 0 L 18.078125 -4.015625 L 6.03125 -4.015625 L 6.03125 0 Z M 6.03125 -16.0625 L 6.03125 -20.078125 L 18.078125 -20.078125 L 18.078125 -16.0625 Z M 6.03125 -16.0625"/></g></g></g><g fill-opacity="1" fill="#00ffff"><g transform="translate(144.324434, 152.698064)"><g><path d="M 2.015625 0 L 2.015625 -20.078125 L 6.03125 -20.078125 L 6.03125 -12.046875 L 14.0625 -12.046875 L 14.0625 -8.03125 L 6.03125 -8.03125 L 6.03125 0 Z M 14.0625 -4.015625 L 14.0625 -8.03125 L 18.078125 -8.03125 L 18.078125 -4.015625 Z M 14.0625 -12.046875 L 14.0625 -16.0625 L 18.078125 -16.0625 L 18.078125 -12.046875 Z M 18.078125 0 L 18.078125 -4.015625 L 22.09375 -4.015625 L 22.09375 0 Z M 18.078125 -16.0625 L 18.078125 -20.078125 L 22.09375 -20.078125 L 22.09375 -16.0625 Z M 18.078125 -16.0625"/></g></g></g><g fill-opacity="1" fill="#00ffff"><g transform="translate(168.41534, 152.698064)"><g><path d="M 2.015625 0 L 2.015625 -20.078125 L 22.09375 -20.078125 L 22.09375 -16.0625 L 6.03125 -16.0625 L 6.03125 -12.046875 L 18.078125 -12.046875 L 18.078125 -8.03125 L 6.03125 -8.03125 L 6.03125 -4.015625 L 22.09375 -4.015625 L 22.09375 0 Z M 2.015625 0"/></g></g></g><g fill-opacity="1" fill="#00ffff"><g transform="translate(192.506245, 152.698064)"><g/></g></g><g fill-opacity="1" fill="#00ffff"><g transform="translate(204.551698, 152.698064)"><g><path d="M 10.046875 0 L 10.046875 -16.0625 L 2.015625 -16.0625 L 2.015625 -20.078125 L 22.09375 -20.078125 L 22.09375 -16.0625 L 14.0625 -16.0625 L 14.0625 0 Z M 10.046875 0"/></g></g></g><g fill-opacity="1" fill="#00ffff"><g transform="translate(228.642604, 152.698064)"><g><path d="M 2.015625 0 L 2.015625 -20.078125 L 6.03125 -20.078125 L 6.03125 -12.046875 L 18.078125 -12.046875 L 18.078125 -20.078125 L 22.09375 -20.078125 L 22.09375 0 L 18.078125 0 L 18.078125 -8.03125 L 6.03125 -8.03125 L 6.03125 0 Z M 2.015625 0"/></g></g></g><g fill-opacity="1" fill="#00ffff"><g transform="translate(252.733509, 152.698064)"><g><path d="M 2.015625 0 L 2.015625 -20.078125 L 22.09375 -20.078125 L 22.09375 -16.0625 L 6.03125 -16.0625 L 6.03125 -12.046875 L 18.078125 -12.046875 L 18.078125 -8.03125 L 6.03125 -8.03125 L 6.03125 -4.015625 L 22.09375 -4.015625 L 22.09375 0 Z M 2.015625 0"/></g></g></g><g fill-opacity="1" fill="#ffffff"><g transform="translate(98.15082, 154.491138)"><g><path d="M 10.046875 0 L 10.046875 -16.0625 L 2.015625 -16.0625 L 2.015625 -20.078125 L 22.09375 -20.078125 L 22.09375 -16.0625 L 14.0625 -16.0625 L 14.0625 0 Z M 10.046875 0"/></g></g></g><g fill-opacity="1" fill="#ffffff"><g transform="translate(120.233528, 154.491138)"><g><path d="M 2.015625 0 L 2.015625 -16.0625 L 6.03125 -16.0625 L 6.03125 -8.03125 L 18.078125 -8.03125 L 18.078125 -16.0625 L 22.09375 -16.0625 L 22.09375 0 L 18.078125 0 L 18.078125 -4.015625 L 6.03125 -4.015625 L 6.03125 0 Z M 6.03125 -16.0625 L 6.03125 -20.078125 L 18.078125 -20.078125 L 18.078125 -16.0625 Z M 6.03125 -16.0625"/></g></g></g><g fill-opacity="1" fill="#ffffff"><g transform="translate(144.324434, 154.491138)"><g><path d="M 2.015625 0 L 2.015625 -20.078125 L 6.03125 -20.078125 L 6.03125 -12.046875 L 14.0625 -12.046875 L 14.0625 -8.03125 L 6.03125 -8.03125 L 6.03125 0 Z M 14.0625 -4.015625 L 14.0625 -8.03125 L 18.078125 -8.03125 L 18.078125 -4.015625 Z M 14.0625 -12.046875 L 14.0625 -16.0625 L 18.078125 -16.0625 L 18.078125 -12.046875 Z M 18.078125 0 L 18.078125 -4.015625 L 22.09375 -4.015625 L 22.09375 0 Z M 18.078125 -16.0625 L 18.078125 -20.078125 L 22.09375 -20.078125 L 22.09375 -16.0625 Z M 18.078125 -16.0625"/></g></g></g><g fill-opacity="1" fill="#ffffff"><g transform="translate(168.41534, 154.491138)"><g><path d="M 2.015625 0 L 2.015625 -20.078125 L 22.09375 -20.078125 L 22.09375 -16.0625 L 6.03125 -16.0625 L 6.03125 -12.046875 L 18.078125 -12.046875 L 18.078125 -8.03125 L 6.03125 -8.03125 L 6.03125 -4.015625 L 22.09375 -4.015625 L 22.09375 0 Z M 2.015625 0"/></g></g></g><g fill-opacity="1" fill="#ffffff"><g transform="translate(192.506245, 154.491138)"><g/></g></g><g fill-opacity="1" fill="#ffffff"><g transform="translate(204.551698, 154.491138)"><g><path d="M 10.046875 0 L 10.046875 -16.0625 L 2.015625 -16.0625 L 2.015625 -20.078125 L 22.09375 -20.078125 L 22.09375 -16.0625 L 14.0625 -16.0625 L 14.0625 0 Z M 10.046875 0"/></g></g></g><g fill-opacity="1" fill="#ffffff"><g transform="translate(228.642604, 154.491138)"><g><path d="M 2.015625 0 L 2.015625 -20.078125 L 6.03125 -20.078125 L 6.03125 -12.046875 L 18.078125 -12.046875 L 18.078125 -20.078125 L 22.09375 -20.078125 L 22.09375 0 L 18.078125 0 L 18.078125 -8.03125 L 6.03125 -8.03125 L 6.03125 0 Z M 2.015625 0"/></g></g></g><g fill-opacity="1" fill="#ffffff"><g transform="translate(252.733509, 154.491138)"><g><path d="M 2.015625 0 L 2.015625 -20.078125 L 22.09375 -20.078125 L 22.09375 -16.0625 L 6.03125 -16.0625 L 6.03125 -12.046875 L 18.078125 -12.046875 L 18.078125 -8.03125 L 6.03125 -8.03125 L 6.03125 -4.015625 L 22.09375 -4.015625 L 22.09375 0 Z M 2.015625 0"/></g></g></g><g fill-opacity="1" fill="#ff00ff"><g transform="translate(95.135559, 196.30242)"><g><path d="M 18.078125 -4.015625 L 18.078125 0 L 6.03125 0 L 6.03125 -4.015625 Z M 2.015625 -4.015625 L 2.015625 -20.078125 L 6.03125 -20.078125 L 6.03125 -4.015625 Z M 18.078125 -4.015625 L 18.078125 -20.078125 L 22.09375 -20.078125 L 22.09375 -4.015625 Z M 18.078125 -4.015625"/></g></g></g><g fill-opacity="1" fill="#ff00ff"><g transform="translate(119.226465, 196.30242)"><g><path d="M 18.078125 0 L 18.078125 -4.015625 L 14.0625 -4.015625 L 14.0625 -8.03125 L 18.078125 -8.03125 L 18.078125 -20.078125 L 22.09375 -20.078125 L 22.09375 0 Z M 2.015625 0 L 2.015625 -20.078125 L 6.03125 -20.078125 L 6.03125 -16.0625 L 10.046875 -16.0625 L 10.046875 -12.046875 L 6.03125 -12.046875 L 6.03125 0 Z M 10.046875 -8.03125 L 10.046875 -12.046875 L 14.0625 -12.046875 L 14.0625 -8.03125 Z M 10.046875 -8.03125"/></g></g></g><g fill-opacity="1" fill="#ff00ff"><g transform="translate(143.31737, 196.30242)"><g><path d="M 2.015625 0 L 2.015625 -4.015625 L 6.03125 -4.015625 L 6.03125 -16.0625 L 2.015625 -16.0625 L 2.015625 -20.078125 L 14.0625 -20.078125 L 14.0625 -16.0625 L 10.046875 -16.0625 L 10.046875 -4.015625 L 14.0625 -4.015625 L 14.0625 0 Z M 2.015625 0"/></g></g></g><g fill-opacity="1" fill="#ff00ff"><g transform="translate(159.377983, 196.30242)"><g><path d="M 6.03125 -16.0625 L 6.03125 -4.015625 L 2.015625 -4.015625 L 2.015625 -16.0625 Z M 6.03125 0 L 6.03125 -4.015625 L 14.0625 -4.015625 L 14.0625 0 Z M 6.03125 -16.0625 L 6.03125 -20.078125 L 18.078125 -20.078125 L 18.078125 -16.0625 Z M 14.0625 -4.015625 L 14.0625 -8.03125 L 18.078125 -8.03125 L 18.078125 -4.015625 Z M 18.078125 0 L 18.078125 -4.015625 L 22.09375 -4.015625 L 22.09375 0 Z M 18.078125 -8.03125 L 18.078125 -16.0625 L 22.09375 -16.0625 L 22.09375 -8.03125 Z M 18.078125 -8.03125"/></g></g></g><g fill-opacity="1" fill="#ff00ff"><g transform="translate(183.468889, 196.30242)"><g><path d="M 18.078125 -4.015625 L 18.078125 0 L 6.03125 0 L 6.03125 -4.015625 Z M 2.015625 -4.015625 L 2.015625 -20.078125 L 6.03125 -20.078125 L 6.03125 -4.015625 Z M 18.078125 -4.015625 L 18.078125 -20.078125 L 22.09375 -20.078125 L 22.09375 -4.015625 Z M 18.078125 -4.015625"/></g></g></g><g fill-opacity="1" fill="#ff00ff"><g transform="translate(207.559794, 196.30242)"><g><path d="M 2.015625 0 L 2.015625 -4.015625 L 6.03125 -4.015625 L 6.03125 -16.0625 L 2.015625 -16.0625 L 2.015625 -20.078125 L 14.0625 -20.078125 L 14.0625 -16.0625 L 10.046875 -16.0625 L 10.046875 -4.015625 L 14.0625 -4.015625 L 14.0625 0 Z M 2.015625 0"/></g></g></g><g fill-opacity="1" fill="#ff00ff"><g transform="translate(223.620407, 196.30242)"><g><path d="M 14.0625 -12.046875 L 14.0625 -8.03125 L 10.046875 -8.03125 L 10.046875 -12.046875 Z M 2.015625 0 L 2.015625 -4.015625 L 6.03125 -4.015625 L 6.03125 -8.03125 L 10.046875 -8.03125 L 10.046875 -4.015625 L 22.09375 -4.015625 L 22.09375 0 Z M 2.015625 -16.0625 L 2.015625 -20.078125 L 22.09375 -20.078125 L 22.09375 -16.0625 L 18.078125 -16.0625 L 18.078125 -12.046875 L 14.0625 -12.046875 L 14.0625 -16.0625 Z M 2.015625 -16.0625"/></g></g></g><g fill-opacity="1" fill="#ff00ff"><g transform="translate(247.711313, 196.30242)"><g><path d="M 14.0625 -12.046875 L 14.0625 -8.03125 L 10.046875 -8.03125 L 10.046875 -12.046875 Z M 2.015625 0 L 2.015625 -4.015625 L 6.03125 -4.015625 L 6.03125 -8.03125 L 10.046875 -8.03125 L 10.046875 -4.015625 L 22.09375 -4.015625 L 22.09375 0 Z M 2.015625 -16.0625 L 2.015625 -20.078125 L 22.09375 -20.078125 L 22.09375 -16.0625 L 18.078125 -16.0625 L 18.078125 -12.046875 L 14.0625 -12.046875 L 14.0625 -16.0625 Z M 2.015625 -16.0625"/></g></g></g><g fill-opacity="1" fill="#ff00ff"><g transform="translate(271.802218, 196.30242)"><g><path d="M 2.015625 -8.03125 L 2.015625 -20.078125 L 6.03125 -20.078125 L 6.03125 -8.03125 Z M 2.015625 0 L 2.015625 -4.015625 L 6.03125 -4.015625 L 6.03125 0 Z M 2.015625 0"/></g></g></g><g fill-opacity="1" fill="#00ffff"><g transform="translate(95.135559, 192.716276)"><g><path d="M 18.078125 -4.015625 L 18.078125 0 L 6.03125 0 L 6.03125 -4.015625 Z M 2.015625 -4.015625 L 2.015625 -20.078125 L 6.03125 -20.078125 L 6.03125 -4.015625 Z M 18.078125 -4.015625 L 18.078125 -20.078125 L 22.09375 -20.078125 L 22.09375 -4.015625 Z M 18.078125 -4.015625"/></g></g></g><g fill-opacity="1" fill="#00ffff"><g transform="translate(119.226465, 192.716276)"><g><path d="M 18.078125 0 L 18.078125 -4.015625 L 14.0625 -4.015625 L 14.0625 -8.03125 L 18.078125 -8.03125 L 18.078125 -20.078125 L 22.09375 -20.078125 L 22.09375 0 Z M 2.015625 0 L 2.015625 -20.078125 L 6.03125 -20.078125 L 6.03125 -16.0625 L 10.046875 -16.0625 L 10.046875 -12.046875 L 6.03125 -12.046875 L 6.03125 0 Z M 10.046875 -8.03125 L 10.046875 -12.046875 L 14.0625 -12.046875 L 14.0625 -8.03125 Z M 10.046875 -8.03125"/></g></g></g><g fill-opacity="1" fill="#00ffff"><g transform="translate(143.31737, 192.716276)"><g><path d="M 2.015625 0 L 2.015625 -4.015625 L 6.03125 -4.015625 L 6.03125 -16.0625 L 2.015625 -16.0625 L 2.015625 -20.078125 L 14.0625 -20.078125 L 14.0625 -16.0625 L 10.046875 -16.0625 L 10.046875 -4.015625 L 14.0625 -4.015625 L 14.0625 0 Z M 2.015625 0"/></g></g></g><g fill-opacity="1" fill="#00ffff"><g transform="translate(159.377983, 192.716276)"><g><path d="M 6.03125 -16.0625 L 6.03125 -4.015625 L 2.015625 -4.015625 L 2.015625 -16.0625 Z M 6.03125 0 L 6.03125 -4.015625 L 14.0625 -4.015625 L 14.0625 0 Z M 6.03125 -16.0625 L 6.03125 -20.078125 L 18.078125 -20.078125 L 18.078125 -16.0625 Z M 14.0625 -4.015625 L 14.0625 -8.03125 L 18.078125 -8.03125 L 18.078125 -4.015625 Z M 18.078125 0 L 18.078125 -4.015625 L 22.09375 -4.015625 L 22.09375 0 Z M 18.078125 -8.03125 L 18.078125 -16.0625 L 22.09375 -16.0625 L 22.09375 -8.03125 Z M 18.078125 -8.03125"/></g></g></g><g fill-opacity="1" fill="#00ffff"><g transform="translate(183.468889, 192.716276)"><g><path d="M 18.078125 -4.015625 L 18.078125 0 L 6.03125 0 L 6.03125 -4.015625 Z M 2.015625 -4.015625 L 2.015625 -20.078125 L 6.03125 -20.078125 L 6.03125 -4.015625 Z M 18.078125 -4.015625 L 18.078125 -20.078125 L 22.09375 -20.078125 L 22.09375 -4.015625 Z M 18.078125 -4.015625"/></g></g></g><g fill-opacity="1" fill="#00ffff"><g transform="translate(207.559794, 192.716276)"><g><path d="M 2.015625 0 L 2.015625 -4.015625 L 6.03125 -4.015625 L 6.03125 -16.0625 L 2.015625 -16.0625 L 2.015625 -20.078125 L 14.0625 -20.078125 L 14.0625 -16.0625 L 10.046875 -16.0625 L 10.046875 -4.015625 L 14.0625 -4.015625 L 14.0625 0 Z M 2.015625 0"/></g></g></g><g fill-opacity="1" fill="#00ffff"><g transform="translate(223.620407, 192.716276)"><g><path d="M 14.0625 -12.046875 L 14.0625 -8.03125 L 10.046875 -8.03125 L 10.046875 -12.046875 Z M 2.015625 0 L 2.015625 -4.015625 L 6.03125 -4.015625 L 6.03125 -8.03125 L 10.046875 -8.03125 L 10.046875 -4.015625 L 22.09375 -4.015625 L 22.09375 0 Z M 2.015625 -16.0625 L 2.015625 -20.078125 L 22.09375 -20.078125 L 22.09375 -16.0625 L 18.078125 -16.0625 L 18.078125 -12.046875 L 14.0625 -12.046875 L 14.0625 -16.0625 Z M 2.015625 -16.0625"/></g></g></g><g fill-opacity="1" fill="#00ffff"><g transform="translate(247.711313, 192.716276)"><g><path d="M 14.0625 -12.046875 L 14.0625 -8.03125 L 10.046875 -8.03125 L 10.046875 -12.046875 Z M 2.015625 0 L 2.015625 -4.015625 L 6.03125 -4.015625 L 6.03125 -8.03125 L 10.046875 -8.03125 L 10.046875 -4.015625 L 22.09375 -4.015625 L 22.09375 0 Z M 2.015625 -16.0625 L 2.015625 -20.078125 L 22.09375 -20.078125 L 22.09375 -16.0625 L 18.078125 -16.0625 L 18.078125 -12.046875 L 14.0625 -12.046875 L 14.0625 -16.0625 Z M 2.015625 -16.0625"/></g></g></g><g fill-opacity="1" fill="#00ffff"><g transform="translate(271.802218, 192.716276)"><g><path d="M 2.015625 -8.03125 L 2.015625 -20.078125 L 6.03125 -20.078125 L 6.03125 -8.03125 Z M 2.015625 0 L 2.015625 -4.015625 L 6.03125 -4.015625 L 6.03125 0 Z M 2.015625 0"/></g></g></g><g fill-opacity="1" fill="#ffffff"><g transform="translate(95.135559, 194.509349)"><g><path d="M 18.078125 -4.015625 L 18.078125 0 L 6.03125 0 L 6.03125 -4.015625 Z M 2.015625 -4.015625 L 2.015625 -20.078125 L 6.03125 -20.078125 L 6.03125 -4.015625 Z M 18.078125 -4.015625 L 18.078125 -20.078125 L 22.09375 -20.078125 L 22.09375 -4.015625 Z M 18.078125 -4.015625"/></g></g></g><g fill-opacity="1" fill="#ffffff"><g transform="translate(119.226465, 194.509349)"><g><path d="M 18.078125 0 L 18.078125 -4.015625 L 14.0625 -4.015625 L 14.0625 -8.03125 L 18.078125 -8.03125 L 18.078125 -20.078125 L 22.09375 -20.078125 L 22.09375 0 Z M 2.015625 0 L 2.015625 -20.078125 L 6.03125 -20.078125 L 6.03125 -16.0625 L 10.046875 -16.0625 L 10.046875 -12.046875 L 6.03125 -12.046875 L 6.03125 0 Z M 10.046875 -8.03125 L 10.046875 -12.046875 L 14.0625 -12.046875 L 14.0625 -8.03125 Z M 10.046875 -8.03125"/></g></g></g><g fill-opacity="1" fill="#ffffff"><g transform="translate(143.31737, 194.509349)"><g><path d="M 2.015625 0 L 2.015625 -4.015625 L 6.03125 -4.015625 L 6.03125 -16.0625 L 2.015625 -16.0625 L 2.015625 -20.078125 L 14.0625 -20.078125 L 14.0625 -16.0625 L 10.046875 -16.0625 L 10.046875 -4.015625 L 14.0625 -4.015625 L 14.0625 0 Z M 2.015625 0"/></g></g></g><g fill-opacity="1" fill="#ffffff"><g transform="translate(159.377983, 194.509349)"><g><path d="M 6.03125 -16.0625 L 6.03125 -4.015625 L 2.015625 -4.015625 L 2.015625 -16.0625 Z M 6.03125 0 L 6.03125 -4.015625 L 14.0625 -4.015625 L 14.0625 0 Z M 6.03125 -16.0625 L 6.03125 -20.078125 L 18.078125 -20.078125 L 18.078125 -16.0625 Z M 14.0625 -4.015625 L 14.0625 -8.03125 L 18.078125 -8.03125 L 18.078125 -4.015625 Z M 18.078125 0 L 18.078125 -4.015625 L 22.09375 -4.015625 L 22.09375 0 Z M 18.078125 -8.03125 L 18.078125 -16.0625 L 22.09375 -16.0625 L 22.09375 -8.03125 Z M 18.078125 -8.03125"/></g></g></g><g fill-opacity="1" fill="#ffffff"><g transform="translate(183.468889, 194.509349)"><g><path d="M 18.078125 -4.015625 L 18.078125 0 L 6.03125 0 L 6.03125 -4.015625 Z M 2.015625 -4.015625 L 2.015625 -20.078125 L 6.03125 -20.078125 L 6.03125 -4.015625 Z M 18.078125 -4.015625 L 18.078125 -20.078125 L 22.09375 -20.078125 L 22.09375 -4.015625 Z M 18.078125 -4.015625"/></g></g></g><g fill-opacity="1" fill="#ffffff"><g transform="translate(207.559794, 194.509349)"><g><path d="M 2.015625 0 L 2.015625 -4.015625 L 6.03125 -4.015625 L 6.03125 -16.0625 L 2.015625 -16.0625 L 2.015625 -20.078125 L 14.0625 -20.078125 L 14.0625 -16.0625 L 10.046875 -16.0625 L 10.046875 -4.015625 L 14.0625 -4.015625 L 14.0625 0 Z M 2.015625 0"/></g></g></g><g fill-opacity="1" fill="#ffffff"><g transform="translate(223.620407, 194.509349)"><g><path d="M 14.0625 -12.046875 L 14.0625 -8.03125 L 10.046875 -8.03125 L 10.046875 -12.046875 Z M 2.015625 0 L 2.015625 -4.015625 L 6.03125 -4.015625 L 6.03125 -8.03125 L 10.046875 -8.03125 L 10.046875 -4.015625 L 22.09375 -4.015625 L 22.09375 0 Z M 2.015625 -16.0625 L 2.015625 -20.078125 L 22.09375 -20.078125 L 22.09375 -16.0625 L 18.078125 -16.0625 L 18.078125 -12.046875 L 14.0625 -12.046875 L 14.0625 -16.0625 Z M 2.015625 -16.0625"/></g></g></g><g fill-opacity="1" fill="#ffffff"><g transform="translate(247.711313, 194.509349)"><g><path d="M 14.0625 -12.046875 L 14.0625 -8.03125 L 10.046875 -8.03125 L 10.046875 -12.046875 Z M 2.015625 0 L 2.015625 -4.015625 L 6.03125 -4.015625 L 6.03125 -8.03125 L 10.046875 -8.03125 L 10.046875 -4.015625 L 22.09375 -4.015625 L 22.09375 0 Z M 2.015625 -16.0625 L 2.015625 -20.078125 L 22.09375 -20.078125 L 22.09375 -16.0625 L 18.078125 -16.0625 L 18.078125 -12.046875 L 14.0625 -12.046875 L 14.0625 -16.0625 Z M 2.015625 -16.0625"/></g></g></g><g fill-opacity="1" fill="#ffffff"><g transform="translate(271.802218, 194.509349)"><g><path d="M 2.015625 -8.03125 L 2.015625 -20.078125 L 6.03125 -20.078125 L 6.03125 -8.03125 Z M 2.015625 0 L 2.015625 -4.015625 L 6.03125 -4.015625 L 6.03125 0 Z M 2.015625 0"/></g></g></g></svg>