<svg version="1.0" preserveAspectRatio="xMidYMid meet" viewBox="57.431250000000006 151.04024637503403 275.25 44.249998938" zoomAndPan="magnify" xmlns:xlink="http://www.w3.org/1999/xlink" xmlns="http://www.w3.org/2000/svg" style="max-height: 500px" width="275.25" height="44.249998938"><metadata>Yes</metadata><defs><g/></defs><g fill-opacity="1" fill="#ff00ff"><g transform="translate(59.798977, 189.961154)"><g><path d="M 26.421875 -5.875 L 26.421875 0 L 8.8125 0 L 8.8125 -5.875 Z M 2.9375 -5.875 L 2.9375 -29.359375 L 8.8125 -29.359375 L 8.8125 -5.875 Z M 26.421875 -5.875 L 26.421875 -29.359375 L 32.296875 -29.359375 L 32.296875 -5.875 Z M 26.421875 -5.875"/></g></g></g><g fill-opacity="1" fill="#ff00ff"><g transform="translate(95.023095, 189.961154)"><g><path d="M 26.421875 0 L 26.421875 -5.875 L 20.546875 -5.875 L 20.546875 -11.75 L 26.421875 -11.75 L 26.421875 -29.359375 L 32.296875 -29.359375 L 32.296875 0 Z M 2.9375 0 L 2.9375 -29.359375 L 8.8125 -29.359375 L 8.8125 -23.484375 L 14.671875 -23.484375 L 14.671875 -17.609375 L 8.8125 -17.609375 L 8.8125 0 Z M 14.671875 -11.75 L 14.671875 -17.609375 L 20.546875 -17.609375 L 20.546875 -11.75 Z M 14.671875 -11.75"/></g></g></g><g fill-opacity="1" fill="#ff00ff"><g transform="translate(130.247213, 189.961154)"><g><path d="M 2.9375 0 L 2.9375 -5.875 L 8.8125 -5.875 L 8.8125 -23.484375 L 2.9375 -23.484375 L 2.9375 -29.359375 L 20.546875 -29.359375 L 20.546875 -23.484375 L 14.671875 -23.484375 L 14.671875 -5.875 L 20.546875 -5.875 L 20.546875 0 Z M 2.9375 0"/></g></g></g><g fill-opacity="1" fill="#ff00ff"><g transform="translate(153.729966, 189.961154)"><g><path d="M 26.421875 -11.75 L 26.421875 -5.875 L 20.546875 -5.875 L 20.546875 -11.75 Z M 2.9375 -11.75 L 2.9375 -29.359375 L 8.8125 -29.359375 L 8.8125 -11.75 Z M 8.8125 -5.875 L 8.8125 -11.75 L 14.671875 -11.75 L 14.671875 -5.875 Z M 14.671875 0 L 14.671875 -5.875 L 20.546875 -5.875 L 20.546875 0 Z M 26.421875 -11.75 L 26.421875 -29.359375 L 32.296875 -29.359375 L 32.296875 -11.75 Z M 26.421875 -11.75"/></g></g></g><g fill-opacity="1" fill="#ff00ff"><g transform="translate(188.954084, 189.961154)"><g><path d="M 2.9375 0 L 2.9375 -29.359375 L 32.296875 -29.359375 L 32.296875 -23.484375 L 8.8125 -23.484375 L 8.8125 -17.609375 L 26.421875 -17.609375 L 26.421875 -11.75 L 8.8125 -11.75 L 8.8125 -5.875 L 32.296875 -5.875 L 32.296875 0 Z M 2.9375 0"/></g></g></g><g fill-opacity="1" fill="#ff00ff"><g transform="translate(224.178202, 189.961154)"><g><path d="M 2.9375 0 L 2.9375 -29.359375 L 26.421875 -29.359375 L 26.421875 -23.484375 L 8.8125 -23.484375 L 8.8125 -11.75 L 26.421875 -11.75 L 26.421875 -5.875 L 8.8125 -5.875 L 8.8125 0 Z M 26.421875 0 L 26.421875 -5.875 L 32.296875 -5.875 L 32.296875 0 Z M 26.421875 -11.75 L 26.421875 -23.484375 L 32.296875 -23.484375 L 32.296875 -11.75 Z M 26.421875 -11.75"/></g></g></g><g fill-opacity="1" fill="#ff00ff"><g transform="translate(259.402331, 189.961154)"><g><path d="M 8.8125 -23.484375 L 8.8125 -17.609375 L 2.9375 -17.609375 L 2.9375 -23.484375 Z M 2.9375 0 L 2.9375 -5.875 L 26.421875 -5.875 L 26.421875 0 Z M 8.8125 -11.75 L 8.8125 -17.609375 L 26.421875 -17.609375 L 26.421875 -11.75 Z M 8.8125 -23.484375 L 8.8125 -29.359375 L 32.296875 -29.359375 L 32.296875 -23.484375 Z M 26.421875 -5.875 L 26.421875 -11.75 L 32.296875 -11.75 L 32.296875 -5.875 Z M 26.421875 -5.875"/></g></g></g><g fill-opacity="1" fill="#ff00ff"><g transform="translate(294.626459, 189.961154)"><g><path d="M 2.9375 0 L 2.9375 -29.359375 L 32.296875 -29.359375 L 32.296875 -23.484375 L 8.8125 -23.484375 L 8.8125 -17.609375 L 26.421875 -17.609375 L 26.421875 -11.75 L 8.8125 -11.75 L 8.8125 -5.875 L 32.296875 -5.875 L 32.296875 0 Z M 2.9375 0"/></g></g></g><g fill-opacity="1" fill="#00ffff"><g transform="translate(59.160173, 184.758528)"><g><path d="M 26.421875 -5.875 L 26.421875 0 L 8.8125 0 L 8.8125 -5.875 Z M 2.9375 -5.875 L 2.9375 -29.359375 L 8.8125 -29.359375 L 8.8125 -5.875 Z M 26.421875 -5.875 L 26.421875 -29.359375 L 32.296875 -29.359375 L 32.296875 -5.875 Z M 26.421875 -5.875"/></g></g></g><g fill-opacity="1" fill="#00ffff"><g transform="translate(94.384292, 184.758528)"><g><path d="M 26.421875 0 L 26.421875 -5.875 L 20.546875 -5.875 L 20.546875 -11.75 L 26.421875 -11.75 L 26.421875 -29.359375 L 32.296875 -29.359375 L 32.296875 0 Z M 2.9375 0 L 2.9375 -29.359375 L 8.8125 -29.359375 L 8.8125 -23.484375 L 14.671875 -23.484375 L 14.671875 -17.609375 L 8.8125 -17.609375 L 8.8125 0 Z M 14.671875 -11.75 L 14.671875 -17.609375 L 20.546875 -17.609375 L 20.546875 -11.75 Z M 14.671875 -11.75"/></g></g></g><g fill-opacity="1" fill="#00ffff"><g transform="translate(129.60841, 184.758528)"><g><path d="M 2.9375 0 L 2.9375 -5.875 L 8.8125 -5.875 L 8.8125 -23.484375 L 2.9375 -23.484375 L 2.9375 -29.359375 L 20.546875 -29.359375 L 20.546875 -23.484375 L 14.671875 -23.484375 L 14.671875 -5.875 L 20.546875 -5.875 L 20.546875 0 Z M 2.9375 0"/></g></g></g><g fill-opacity="1" fill="#00ffff"><g transform="translate(153.091163, 184.758528)"><g><path d="M 26.421875 -11.75 L 26.421875 -5.875 L 20.546875 -5.875 L 20.546875 -11.75 Z M 2.9375 -11.75 L 2.9375 -29.359375 L 8.8125 -29.359375 L 8.8125 -11.75 Z M 8.8125 -5.875 L 8.8125 -11.75 L 14.671875 -11.75 L 14.671875 -5.875 Z M 14.671875 0 L 14.671875 -5.875 L 20.546875 -5.875 L 20.546875 0 Z M 26.421875 -11.75 L 26.421875 -29.359375 L 32.296875 -29.359375 L 32.296875 -11.75 Z M 26.421875 -11.75"/></g></g></g><g fill-opacity="1" fill="#00ffff"><g transform="translate(188.315281, 184.758528)"><g><path d="M 2.9375 0 L 2.9375 -29.359375 L 32.296875 -29.359375 L 32.296875 -23.484375 L 8.8125 -23.484375 L 8.8125 -17.609375 L 26.421875 -17.609375 L 26.421875 -11.75 L 8.8125 -11.75 L 8.8125 -5.875 L 32.296875 -5.875 L 32.296875 0 Z M 2.9375 0"/></g></g></g><g fill-opacity="1" fill="#00ffff"><g transform="translate(223.539399, 184.758528)"><g><path d="M 2.9375 0 L 2.9375 -29.359375 L 26.421875 -29.359375 L 26.421875 -23.484375 L 8.8125 -23.484375 L 8.8125 -11.75 L 26.421875 -11.75 L 26.421875 -5.875 L 8.8125 -5.875 L 8.8125 0 Z M 26.421875 0 L 26.421875 -5.875 L 32.296875 -5.875 L 32.296875 0 Z M 26.421875 -11.75 L 26.421875 -23.484375 L 32.296875 -23.484375 L 32.296875 -11.75 Z M 26.421875 -11.75"/></g></g></g><g fill-opacity="1" fill="#00ffff"><g transform="translate(258.763528, 184.758528)"><g><path d="M 8.8125 -23.484375 L 8.8125 -17.609375 L 2.9375 -17.609375 L 2.9375 -23.484375 Z M 2.9375 0 L 2.9375 -5.875 L 26.421875 -5.875 L 26.421875 0 Z M 8.8125 -11.75 L 8.8125 -17.609375 L 26.421875 -17.609375 L 26.421875 -11.75 Z M 8.8125 -23.484375 L 8.8125 -29.359375 L 32.296875 -29.359375 L 32.296875 -23.484375 Z M 26.421875 -5.875 L 26.421875 -11.75 L 32.296875 -11.75 L 32.296875 -5.875 Z M 26.421875 -5.875"/></g></g></g><g fill-opacity="1" fill="#00ffff"><g transform="translate(293.987656, 184.758528)"><g><path d="M 2.9375 0 L 2.9375 -29.359375 L 32.296875 -29.359375 L 32.296875 -23.484375 L 8.8125 -23.484375 L 8.8125 -17.609375 L 26.421875 -17.609375 L 26.421875 -11.75 L 8.8125 -11.75 L 8.8125 -5.875 L 32.296875 -5.875 L 32.296875 0 Z M 2.9375 0"/></g></g></g><g fill-opacity="1" fill="#ffffff"><g transform="translate(59.479575, 187.359842)"><g><path d="M 26.421875 -5.875 L 26.421875 0 L 8.8125 0 L 8.8125 -5.875 Z M 2.9375 -5.875 L 2.9375 -29.359375 L 8.8125 -29.359375 L 8.8125 -5.875 Z M 26.421875 -5.875 L 26.421875 -29.359375 L 32.296875 -29.359375 L 32.296875 -5.875 Z M 26.421875 -5.875"/></g></g></g><g fill-opacity="1" fill="#ffffff"><g transform="translate(94.703693, 187.359842)"><g><path d="M 26.421875 0 L 26.421875 -5.875 L 20.546875 -5.875 L 20.546875 -11.75 L 26.421875 -11.75 L 26.421875 -29.359375 L 32.296875 -29.359375 L 32.296875 0 Z M 2.9375 0 L 2.9375 -29.359375 L 8.8125 -29.359375 L 8.8125 -23.484375 L 14.671875 -23.484375 L 14.671875 -17.609375 L 8.8125 -17.609375 L 8.8125 0 Z M 14.671875 -11.75 L 14.671875 -17.609375 L 20.546875 -17.609375 L 20.546875 -11.75 Z M 14.671875 -11.75"/></g></g></g><g fill-opacity="1" fill="#ffffff"><g transform="translate(129.927811, 187.359842)"><g><path d="M 2.9375 0 L 2.9375 -5.875 L 8.8125 -5.875 L 8.8125 -23.484375 L 2.9375 -23.484375 L 2.9375 -29.359375 L 20.546875 -29.359375 L 20.546875 -23.484375 L 14.671875 -23.484375 L 14.671875 -5.875 L 20.546875 -5.875 L 20.546875 0 Z M 2.9375 0"/></g></g></g><g fill-opacity="1" fill="#ffffff"><g transform="translate(153.410564, 187.359842)"><g><path d="M 26.421875 -11.75 L 26.421875 -5.875 L 20.546875 -5.875 L 20.546875 -11.75 Z M 2.9375 -11.75 L 2.9375 -29.359375 L 8.8125 -29.359375 L 8.8125 -11.75 Z M 8.8125 -5.875 L 8.8125 -11.75 L 14.671875 -11.75 L 14.671875 -5.875 Z M 14.671875 0 L 14.671875 -5.875 L 20.546875 -5.875 L 20.546875 0 Z M 26.421875 -11.75 L 26.421875 -29.359375 L 32.296875 -29.359375 L 32.296875 -11.75 Z M 26.421875 -11.75"/></g></g></g><g fill-opacity="1" fill="#ffffff"><g transform="translate(188.634682, 187.359842)"><g><path d="M 2.9375 0 L 2.9375 -29.359375 L 32.296875 -29.359375 L 32.296875 -23.484375 L 8.8125 -23.484375 L 8.8125 -17.609375 L 26.421875 -17.609375 L 26.421875 -11.75 L 8.8125 -11.75 L 8.8125 -5.875 L 32.296875 -5.875 L 32.296875 0 Z M 2.9375 0"/></g></g></g><g fill-opacity="1" fill="#ffffff"><g transform="translate(223.8588, 187.359842)"><g><path d="M 2.9375 0 L 2.9375 -29.359375 L 26.421875 -29.359375 L 26.421875 -23.484375 L 8.8125 -23.484375 L 8.8125 -11.75 L 26.421875 -11.75 L 26.421875 -5.875 L 8.8125 -5.875 L 8.8125 0 Z M 26.421875 0 L 26.421875 -5.875 L 32.296875 -5.875 L 32.296875 0 Z M 26.421875 -11.75 L 26.421875 -23.484375 L 32.296875 -23.484375 L 32.296875 -11.75 Z M 26.421875 -11.75"/></g></g></g><g fill-opacity="1" fill="#ffffff"><g transform="translate(259.082929, 187.359842)"><g><path d="M 8.8125 -23.484375 L 8.8125 -17.609375 L 2.9375 -17.609375 L 2.9375 -23.484375 Z M 2.9375 0 L 2.9375 -5.875 L 26.421875 -5.875 L 26.421875 0 Z M 8.8125 -11.75 L 8.8125 -17.609375 L 26.421875 -17.609375 L 26.421875 -11.75 Z M 8.8125 -23.484375 L 8.8125 -29.359375 L 32.296875 -29.359375 L 32.296875 -23.484375 Z M 26.421875 -5.875 L 26.421875 -11.75 L 32.296875 -11.75 L 32.296875 -5.875 Z M 26.421875 -5.875"/></g></g></g><g fill-opacity="1" fill="#ffffff"><g transform="translate(294.307058, 187.359842)"><g><path d="M 2.9375 0 L 2.9375 -29.359375 L 32.296875 -29.359375 L 32.296875 -23.484375 L 8.8125 -23.484375 L 8.8125 -17.609375 L 26.421875 -17.609375 L 26.421875 -11.75 L 8.8125 -11.75 L 8.8125 -5.875 L 32.296875 -5.875 L 32.296875 0 Z M 2.9375 0"/></g></g></g></svg>